<?xml version="1.0" encoding="utf-8"?>
<!-- Generator: Adobe Illustrator 17.0.0, SVG Export Plug-In . SVG Version: 6.00 Build 0)  -->
<!DOCTYPE svg PUBLIC "-//W3C//DTD SVG 1.1//EN" "http://www.w3.org/Graphics/SVG/1.1/DTD/svg11.dtd">
<svg version="1.1" id="Layer_1" xmlns="http://www.w3.org/2000/svg" xmlns:xlink="http://www.w3.org/1999/xlink" x="0px" y="0px"
	 width="55px" height="46px" viewBox="0 0 55 46" enable-background="new 0 0 55 46" xml:space="preserve">
<g>
	<g>
		<g>
			<g>
				<g>
					<linearGradient id="SVGID_1_" gradientUnits="userSpaceOnUse" x1="0.5833" y1="17.8077" x2="54.6065" y2="17.8077">
						<stop  offset="0" style="stop-color:#3F53A0"/>
						<stop  offset="1" style="stop-color:#3FB7E2"/>
					</linearGradient>
					<path fill="url(#SVGID_1_)" d="M45.219,23.865c-2.886,0-5.063-2.79-5.063-6.49c0-2.619,0.576-5.625,5.063-5.625
						s5.063,3.006,5.063,5.625C50.281,21.075,48.105,23.865,45.219,23.865z M45.219,13.481c-2.555,0-3.375,0.946-3.375,3.894
						c0,2.308,1.183,4.76,3.375,4.76s3.375-2.452,3.375-4.76C48.594,14.427,47.773,13.481,45.219,13.481z"/>
				</g>
				<g>
					<linearGradient id="SVGID_2_" gradientUnits="userSpaceOnUse" x1="0.5833" y1="23.4327" x2="54.6065" y2="23.4327">
						<stop  offset="0" style="stop-color:#3F53A0"/>
						<stop  offset="1" style="stop-color:#3FB7E2"/>
					</linearGradient>
					<polygon fill="url(#SVGID_2_)" points="38.903,25.473 38.035,23.989 42.253,21.393 43.122,22.877 					"/>
				</g>
				<g>
					<linearGradient id="SVGID_3_" gradientUnits="userSpaceOnUse" x1="0.5833" y1="26.0859" x2="54.6065" y2="26.0859">
						<stop  offset="0" style="stop-color:#3F53A0"/>
						<stop  offset="1" style="stop-color:#3FB7E2"/>
					</linearGradient>
					<path fill="url(#SVGID_3_)" d="M51.969,30.788h-5.063v-1.731h5.063c0.25,0,0.844-0.672,0.844-1.731v-1.229l-5.481-3.212
						l0.837-1.503l6.331,3.711v2.233C54.5,29.203,53.341,30.788,51.969,30.788z"/>
				</g>
			</g>
			<g>
				<g>
					<linearGradient id="SVGID_4_" gradientUnits="userSpaceOnUse" x1="0.5833" y1="17.8077" x2="54.6065" y2="17.8077">
						<stop  offset="0" style="stop-color:#3F53A0"/>
						<stop  offset="1" style="stop-color:#3FB7E2"/>
					</linearGradient>
					<path fill="url(#SVGID_4_)" d="M9.781,23.865c-2.886,0-5.063-2.79-5.063-6.49c0-2.619,0.576-5.625,5.063-5.625
						s5.063,3.006,5.063,5.625C14.844,21.075,12.667,23.865,9.781,23.865z M9.781,13.481c-2.555,0-3.375,0.946-3.375,3.894
						c0,2.308,1.183,4.76,3.375,4.76s3.375-2.452,3.375-4.76C13.156,14.427,12.336,13.481,9.781,13.481z"/>
				</g>
				<g>
					<linearGradient id="SVGID_5_" gradientUnits="userSpaceOnUse" x1="0.5833" y1="23.4327" x2="54.6065" y2="23.4327">
						<stop  offset="0" style="stop-color:#3F53A0"/>
						<stop  offset="1" style="stop-color:#3FB7E2"/>
					</linearGradient>
					<polygon fill="url(#SVGID_5_)" points="16.097,25.473 11.878,22.877 12.747,21.393 16.965,23.989 					"/>
				</g>
				<g>
					<linearGradient id="SVGID_6_" gradientUnits="userSpaceOnUse" x1="0.5833" y1="26.0859" x2="54.6065" y2="26.0859">
						<stop  offset="0" style="stop-color:#3F53A0"/>
						<stop  offset="1" style="stop-color:#3FB7E2"/>
					</linearGradient>
					<path fill="url(#SVGID_6_)" d="M8.094,30.788H3.031c-1.372,0-2.531-1.585-2.531-3.462v-2.233l6.331-3.711l0.837,1.503
						l-5.481,3.212v1.229c0,1.059,0.593,1.731,0.844,1.731h5.063V30.788z"/>
				</g>
			</g>
			<g>
				<g>
					<g>
						<linearGradient id="SVGID_7_" gradientUnits="userSpaceOnUse" x1="33.4062" y1="26.4616" x2="33.4062" y2="26.4616">
							<stop  offset="0" style="stop-color:#3F53A0"/>
							<stop  offset="1" style="stop-color:#3FB7E2"/>
						</linearGradient>
						<path fill="url(#SVGID_7_)" d="M33.406,26.462"/>
					</g>
					<g>
						<linearGradient id="SVGID_8_" gradientUnits="userSpaceOnUse" x1="0.5833" y1="35.6051" x2="54.6065" y2="35.6051">
							<stop  offset="0" style="stop-color:#3F53A0"/>
							<stop  offset="1" style="stop-color:#3FB7E2"/>
						</linearGradient>
						<path fill="url(#SVGID_8_)" d="M9.781,45.5H8.094v-7.788c0-6.932,3.751-8.394,7.722-9.942c1.47-0.573,2.99-1.165,4.515-2.059
							l0.837,1.503c-1.64,0.961-3.294,1.606-4.753,2.174c-3.995,1.558-6.634,2.586-6.634,8.324V45.5z"/>
					</g>
					<g>
						<linearGradient id="SVGID_9_" gradientUnits="userSpaceOnUse" x1="0.5833" y1="35.6051" x2="54.6065" y2="35.6051">
							<stop  offset="0" style="stop-color:#3F53A0"/>
							<stop  offset="1" style="stop-color:#3FB7E2"/>
						</linearGradient>
						<path fill="url(#SVGID_9_)" d="M46.906,45.5h-1.688v-7.788c0-5.738-2.639-6.767-6.634-8.324
							c-1.459-0.569-3.113-1.213-4.753-2.174l0.837-1.503c1.525,0.894,3.045,1.487,4.515,2.059c3.971,1.548,7.722,3.011,7.722,9.942
							V45.5z"/>
					</g>
					<g>
						<linearGradient id="SVGID_10_" gradientUnits="userSpaceOnUse" x1="0.5833" y1="26.9479" x2="54.6065" y2="26.9479">
							<stop  offset="0" style="stop-color:#3F53A0"/>
							<stop  offset="1" style="stop-color:#3FB7E2"/>
						</linearGradient>
						<path fill="url(#SVGID_10_)" d="M31.041,30.976L27.5,29.16l-3.541,1.816l-4.294-4.404l2.373-3.652l5.462,0.934l5.462-0.934
							l2.373,3.652L31.041,30.976z M27.5,27.225l3.209,1.645l2.456-2.519l-1.002-1.54L27.5,25.608l-4.663-0.797l-1.002,1.54
							l2.456,2.519L27.5,27.225z"/>
					</g>
					<g>
						<linearGradient id="SVGID_11_" gradientUnits="userSpaceOnUse" x1="0.5833" y1="22.1346" x2="54.6065" y2="22.1346">
							<stop  offset="0" style="stop-color:#3F53A0"/>
							<stop  offset="1" style="stop-color:#3FB7E2"/>
						</linearGradient>
						<rect x="30.875" y="20.404" fill="url(#SVGID_11_)" width="1.688" height="3.462"/>
					</g>
					<g>
						<linearGradient id="SVGID_12_" gradientUnits="userSpaceOnUse" x1="0.5833" y1="22.1346" x2="54.6065" y2="22.1346">
							<stop  offset="0" style="stop-color:#3F53A0"/>
							<stop  offset="1" style="stop-color:#3FB7E2"/>
						</linearGradient>
						<rect x="22.438" y="20.404" fill="url(#SVGID_12_)" width="1.688" height="3.462"/>
					</g>
					<g>
						<linearGradient id="SVGID_13_" gradientUnits="userSpaceOnUse" x1="0.5833" y1="35.9808" x2="54.6065" y2="35.9808">
							<stop  offset="0" style="stop-color:#3F53A0"/>
							<stop  offset="1" style="stop-color:#3FB7E2"/>
						</linearGradient>
						<rect x="26.656" y="35.115" fill="url(#SVGID_13_)" width="1.688" height="1.731"/>
					</g>
					<g>
						<linearGradient id="SVGID_14_" gradientUnits="userSpaceOnUse" x1="0.5833" y1="32.5192" x2="54.6065" y2="32.5192">
							<stop  offset="0" style="stop-color:#3F53A0"/>
							<stop  offset="1" style="stop-color:#3FB7E2"/>
						</linearGradient>
						<rect x="26.656" y="31.654" fill="url(#SVGID_14_)" width="1.688" height="1.731"/>
					</g>
					<g>
						<linearGradient id="SVGID_15_" gradientUnits="userSpaceOnUse" x1="0.5833" y1="11.3173" x2="54.6065" y2="11.3173">
							<stop  offset="0" style="stop-color:#3F53A0"/>
							<stop  offset="1" style="stop-color:#3FB7E2"/>
						</linearGradient>
						<path fill="url(#SVGID_15_)" d="M27.5,22.135c-0.112,0-2.752-0.011-4.596-0.957l-0.091-0.054
							c-0.116-0.079-2.855-2.019-3.742-8.386l-0.009-0.123V9.154c0-5.742,2.839-8.654,8.438-8.654s8.438,2.911,8.438,8.654
							l-0.009,3.584c-0.887,6.367-3.626,8.307-3.742,8.386l-0.091,0.054C30.252,22.124,27.612,22.135,27.5,22.135z M23.719,19.66
							c1.478,0.727,3.731,0.744,3.781,0.744s2.302-0.016,3.78-0.743c0.264-0.216,2.245-1.994,2.97-7.107V9.154
							c0-4.788-2.082-6.923-6.75-6.923s-6.75,2.135-6.75,6.923v3.399C21.477,17.674,23.451,19.442,23.719,19.66z"/>
					</g>
					<g>
						<linearGradient id="SVGID_16_" gradientUnits="userSpaceOnUse" x1="0.5833" y1="9.1538" x2="54.6065" y2="9.1538">
							<stop  offset="0" style="stop-color:#3F53A0"/>
							<stop  offset="1" style="stop-color:#3FB7E2"/>
						</linearGradient>
						<polygon fill="url(#SVGID_16_)" points="31.757,11.832 23.32,8.371 20.284,9.928 19.529,8.38 23.243,6.475 31.68,9.937 
							34.716,8.38 35.471,9.928 						"/>
					</g>
				</g>
				<g>
					<linearGradient id="SVGID_17_" gradientUnits="userSpaceOnUse" x1="0.5833" y1="42.0385" x2="54.6065" y2="42.0385">
						<stop  offset="0" style="stop-color:#3F53A0"/>
						<stop  offset="1" style="stop-color:#3FB7E2"/>
					</linearGradient>
					<rect x="14.844" y="38.577" fill="url(#SVGID_17_)" width="1.688" height="6.923"/>
				</g>
				<g>
					<linearGradient id="SVGID_18_" gradientUnits="userSpaceOnUse" x1="0.5833" y1="42.0385" x2="54.6065" y2="42.0385">
						<stop  offset="0" style="stop-color:#3F53A0"/>
						<stop  offset="1" style="stop-color:#3FB7E2"/>
					</linearGradient>
					<rect x="38.469" y="38.577" fill="url(#SVGID_18_)" width="1.688" height="6.923"/>
				</g>
			</g>
		</g>
	</g>
</g>
</svg>
