<?xml version="1.0" encoding="utf-8"?>
<!-- Generator: Adobe Illustrator 17.0.0, SVG Export Plug-In . SVG Version: 6.00 Build 0)  -->
<!DOCTYPE svg PUBLIC "-//W3C//DTD SVG 1.1//EN" "http://www.w3.org/Graphics/SVG/1.1/DTD/svg11.dtd">
<svg version="1.1" id="Layer_1" xmlns="http://www.w3.org/2000/svg" xmlns:xlink="http://www.w3.org/1999/xlink" x="0px" y="0px"
	 width="55px" height="46px" viewBox="0 0 55 46" enable-background="new 0 0 55 46" xml:space="preserve">
<g>
	<g>
		<linearGradient id="SVGID_1_" gradientUnits="userSpaceOnUse" x1="6.5" y1="4.7191" x2="48.7147" y2="4.7191">
			<stop  offset="0" style="stop-color:#3F53A0"/>
			<stop  offset="1" style="stop-color:#3FB7E2"/>
		</linearGradient>
		<path fill="url(#SVGID_1_)" d="M27.5,8.938c-2.318,0-4.204-1.892-4.204-4.219S25.182,0.5,27.5,0.5s4.204,1.892,4.204,4.219
			S29.818,8.938,27.5,8.938z M27.5,1.907c-1.546,0-2.803,1.262-2.803,2.813s1.257,2.813,2.803,2.813s2.803-1.262,2.803-2.813
			S29.046,1.907,27.5,1.907z"/>
	</g>
	<g>
		<linearGradient id="SVGID_2_" gradientUnits="userSpaceOnUse" x1="6.5" y1="39.1719" x2="48.7147" y2="39.1719">
			<stop  offset="0" style="stop-color:#3F53A0"/>
			<stop  offset="1" style="stop-color:#3FB7E2"/>
		</linearGradient>
		<rect x="26.799" y="32.844" fill="url(#SVGID_2_)" width="1.401" height="12.656"/>
	</g>
	<g>
		<linearGradient id="SVGID_3_" gradientUnits="userSpaceOnUse" x1="6.5" y1="13.8594" x2="48.7147" y2="13.8594">
			<stop  offset="0" style="stop-color:#3F53A0"/>
			<stop  offset="1" style="stop-color:#3FB7E2"/>
		</linearGradient>
		<rect x="26.799" y="13.156" fill="url(#SVGID_3_)" width="1.401" height="1.406"/>
	</g>
	<g>
		<linearGradient id="SVGID_4_" gradientUnits="userSpaceOnUse" x1="6.5" y1="16.6719" x2="48.7147" y2="16.6719">
			<stop  offset="0" style="stop-color:#3F53A0"/>
			<stop  offset="1" style="stop-color:#3FB7E2"/>
		</linearGradient>
		<rect x="26.799" y="15.969" fill="url(#SVGID_4_)" width="1.401" height="1.406"/>
	</g>
	<g>
		<linearGradient id="SVGID_5_" gradientUnits="userSpaceOnUse" x1="6.5" y1="30.7344" x2="48.7147" y2="30.7344">
			<stop  offset="0" style="stop-color:#3F53A0"/>
			<stop  offset="1" style="stop-color:#3FB7E2"/>
		</linearGradient>
		<rect x="22.595" y="30.031" fill="url(#SVGID_5_)" width="7.707" height="1.406"/>
	</g>
	<g>
		<linearGradient id="SVGID_6_" gradientUnits="userSpaceOnUse" x1="6.5" y1="27.9219" x2="48.7147" y2="27.9219">
			<stop  offset="0" style="stop-color:#3F53A0"/>
			<stop  offset="1" style="stop-color:#3FB7E2"/>
		</linearGradient>
		<rect x="21.194" y="27.219" fill="url(#SVGID_6_)" width="12.612" height="1.406"/>
	</g>
	<g>
		<linearGradient id="SVGID_7_" gradientUnits="userSpaceOnUse" x1="6.5" y1="23.0003" x2="48.7147" y2="23.0003">
			<stop  offset="0" style="stop-color:#3F53A0"/>
			<stop  offset="1" style="stop-color:#3FB7E2"/>
		</linearGradient>
		<path fill="url(#SVGID_7_)" d="M37.104,27.716l-0.991-0.994L39.822,23l-3.709-3.722l0.991-0.994l4.204,4.219
			c0.274,0.275,0.274,0.72,0,0.994L37.104,27.716z"/>
	</g>
	<g>
		<linearGradient id="SVGID_8_" gradientUnits="userSpaceOnUse" x1="6.5" y1="24.4063" x2="48.7147" y2="24.4063">
			<stop  offset="0" style="stop-color:#3F53A0"/>
			<stop  offset="1" style="stop-color:#3FB7E2"/>
		</linearGradient>
		<path fill="url(#SVGID_8_)" d="M33.105,45.5h-1.401V30.031h1.401V17.375c0-1.551,1.257-2.813,2.803-2.813h2.513l8.698-8.728V3.313
			h1.401v3.104l-9.519,9.552h-3.093c-0.773,0-1.401,0.631-1.401,1.407v14.062h-1.401V45.5z"/>
	</g>
	<g>
		<linearGradient id="SVGID_9_" gradientUnits="userSpaceOnUse" x1="6.5" y1="23.103" x2="48.7147" y2="23.103">
			<stop  offset="0" style="stop-color:#3F53A0"/>
			<stop  offset="1" style="stop-color:#3FB7E2"/>
		</linearGradient>
		<polygon fill="url(#SVGID_9_)" points="39.001,31.438 35.908,31.438 35.908,30.031 38.421,30.031 45.017,23.412 45.017,22.588 
			38.215,15.763 39.206,14.768 46.418,22.006 46.418,23.995 		"/>
	</g>
	<g>
		<linearGradient id="SVGID_10_" gradientUnits="userSpaceOnUse" x1="6.5" y1="7.6342" x2="48.7147" y2="7.6342">
			<stop  offset="0" style="stop-color:#3F53A0"/>
			<stop  offset="1" style="stop-color:#3FB7E2"/>
		</linearGradient>
		<polygon fill="url(#SVGID_10_)" points="37.6,11.75 17.4,11.75 10.188,4.513 11.179,3.518 17.981,10.344 37.019,10.344 
			43.821,3.518 44.812,4.513 		"/>
	</g>
	<g>
		<linearGradient id="SVGID_11_" gradientUnits="userSpaceOnUse" x1="6.5" y1="23.0003" x2="48.7147" y2="23.0003">
			<stop  offset="0" style="stop-color:#3F53A0"/>
			<stop  offset="1" style="stop-color:#3FB7E2"/>
		</linearGradient>
		<path fill="url(#SVGID_11_)" d="M17.896,27.716l-4.204-4.219c-0.274-0.275-0.274-0.72,0-0.994l4.204-4.219l0.991,0.994L15.178,23
			l3.709,3.722L17.896,27.716z"/>
	</g>
	<g>
		<linearGradient id="SVGID_12_" gradientUnits="userSpaceOnUse" x1="6.5" y1="24.4063" x2="48.7147" y2="24.4063">
			<stop  offset="0" style="stop-color:#3F53A0"/>
			<stop  offset="1" style="stop-color:#3FB7E2"/>
		</linearGradient>
		<path fill="url(#SVGID_12_)" d="M23.296,45.5h-1.401V31.438h-1.401V17.375c0-0.776-0.629-1.407-1.401-1.407h-3.093L6.48,6.416
			V3.313h1.401v2.522l8.698,8.728h2.513c1.546,0,2.803,1.262,2.803,2.813v12.656h1.401V45.5z"/>
	</g>
	<g>
		<linearGradient id="SVGID_13_" gradientUnits="userSpaceOnUse" x1="6.5" y1="23.103" x2="48.7147" y2="23.103">
			<stop  offset="0" style="stop-color:#3F53A0"/>
			<stop  offset="1" style="stop-color:#3FB7E2"/>
		</linearGradient>
		<polygon fill="url(#SVGID_13_)" points="19.092,31.438 15.999,31.438 8.582,23.995 8.582,22.006 15.794,14.768 16.785,15.763 
			9.983,22.588 9.983,23.412 16.579,30.031 19.092,30.031 		"/>
	</g>
	<g>
		<linearGradient id="SVGID_14_" gradientUnits="userSpaceOnUse" x1="6.5" y1="1.2031" x2="48.7147" y2="1.2031">
			<stop  offset="0" style="stop-color:#3F53A0"/>
			<stop  offset="1" style="stop-color:#3FB7E2"/>
		</linearGradient>
		<rect x="6.48" y="0.5" fill="url(#SVGID_14_)" width="1.401" height="1.406"/>
	</g>
	<g>
		<linearGradient id="SVGID_15_" gradientUnits="userSpaceOnUse" x1="6.5" y1="1.2031" x2="48.7147" y2="1.2031">
			<stop  offset="0" style="stop-color:#3F53A0"/>
			<stop  offset="1" style="stop-color:#3FB7E2"/>
		</linearGradient>
		<rect x="47.119" y="0.5" fill="url(#SVGID_15_)" width="1.401" height="1.406"/>
	</g>
</g>
</svg>
