<?xml version="1.0" encoding="utf-8"?>
<!-- Generator: Adobe Illustrator 17.0.0, SVG Export Plug-In . SVG Version: 6.00 Build 0)  -->
<!DOCTYPE svg PUBLIC "-//W3C//DTD SVG 1.1//EN" "http://www.w3.org/Graphics/SVG/1.1/DTD/svg11.dtd">
<svg version="1.1" id="Layer_1" xmlns="http://www.w3.org/2000/svg" xmlns:xlink="http://www.w3.org/1999/xlink" x="0px" y="0px"
	 width="55px" height="46px" viewBox="0 0 55 46" enable-background="new 0 0 55 46" xml:space="preserve">
<g>
	<g>
		<g>
			<g>
				<rect x="34.219" y="14.346" fill="#FFFFFF" width="15.117" height="1.731"/>
			</g>
			<g>
				<rect x="34.219" y="17.808" fill="#FFFFFF" width="15.117" height="1.731"/>
			</g>
			<g>
				<rect x="10.703" y="14.346" fill="#FFFFFF" width="1.68" height="1.731"/>
			</g>
			<g>
				<rect x="14.063" y="14.346" fill="#FFFFFF" width="1.68" height="1.731"/>
			</g>
			<g>
				<rect x="17.422" y="14.346" fill="#FFFFFF" width="1.68" height="1.731"/>
			</g>
			<g>
				<path fill="#FFFFFF" d="M54.375,45.5H3.984c-1.852,0-3.359-1.552-3.359-3.462V0.5H16.93l3.359,3.462h30.726v3.462h-1.68V5.692
					H19.594l-3.359-3.462H2.305v39.808c0,0.954,0.753,1.731,1.68,1.731s1.68-0.777,1.68-1.731V9.154h48.711V45.5z M6.893,43.769
					h45.802V10.885H7.344v31.154C7.344,42.668,7.18,43.26,6.893,43.769z"/>
			</g>
			<g>
				<rect x="10.703" y="38.577" fill="#FFFFFF" width="38.633" height="1.731"/>
			</g>
		</g>
	</g>
</g>
</svg>
