<?xml version="1.0" encoding="utf-8"?>
<!-- Generator: Adobe Illustrator 17.0.0, SVG Export Plug-In . SVG Version: 6.00 Build 0)  -->
<!DOCTYPE svg PUBLIC "-//W3C//DTD SVG 1.1//EN" "http://www.w3.org/Graphics/SVG/1.1/DTD/svg11.dtd">
<svg version="1.1" id="Layer_1" xmlns="http://www.w3.org/2000/svg" xmlns:xlink="http://www.w3.org/1999/xlink" x="0px" y="0px"
	 width="55px" height="46px" viewBox="0 0 55 46" enable-background="new 0 0 55 46" xml:space="preserve">
<g>
	<g>
		<g>
			<g>
				<linearGradient id="SVGID_1_" gradientUnits="userSpaceOnUse" x1="0.5833" y1="15.2115" x2="54.2702" y2="15.2115">
					<stop  offset="0" style="stop-color:#3F53A0"/>
					<stop  offset="1" style="stop-color:#3FB7E2"/>
				</linearGradient>
				<rect x="34.219" y="14.346" fill="url(#SVGID_1_)" width="15.117" height="1.731"/>
			</g>
			<g>
				<linearGradient id="SVGID_2_" gradientUnits="userSpaceOnUse" x1="0.5833" y1="18.6731" x2="54.2702" y2="18.6731">
					<stop  offset="0" style="stop-color:#3F53A0"/>
					<stop  offset="1" style="stop-color:#3FB7E2"/>
				</linearGradient>
				<rect x="34.219" y="17.808" fill="url(#SVGID_2_)" width="15.117" height="1.731"/>
			</g>
			<g>
				<linearGradient id="SVGID_3_" gradientUnits="userSpaceOnUse" x1="0.5833" y1="15.2115" x2="54.2702" y2="15.2115">
					<stop  offset="0" style="stop-color:#3F53A0"/>
					<stop  offset="1" style="stop-color:#3FB7E2"/>
				</linearGradient>
				<rect x="10.703" y="14.346" fill="url(#SVGID_3_)" width="1.68" height="1.731"/>
			</g>
			<g>
				<linearGradient id="SVGID_4_" gradientUnits="userSpaceOnUse" x1="0.5833" y1="15.2115" x2="54.2702" y2="15.2115">
					<stop  offset="0" style="stop-color:#3F53A0"/>
					<stop  offset="1" style="stop-color:#3FB7E2"/>
				</linearGradient>
				<rect x="14.063" y="14.346" fill="url(#SVGID_4_)" width="1.68" height="1.731"/>
			</g>
			<g>
				<linearGradient id="SVGID_5_" gradientUnits="userSpaceOnUse" x1="0.5833" y1="15.2115" x2="54.2702" y2="15.2115">
					<stop  offset="0" style="stop-color:#3F53A0"/>
					<stop  offset="1" style="stop-color:#3FB7E2"/>
				</linearGradient>
				<rect x="17.422" y="14.346" fill="url(#SVGID_5_)" width="1.68" height="1.731"/>
			</g>
			<g>
				<linearGradient id="SVGID_6_" gradientUnits="userSpaceOnUse" x1="0.625" y1="23" x2="54.3119" y2="23">
					<stop  offset="0" style="stop-color:#3F53A0"/>
					<stop  offset="1" style="stop-color:#3FB7E2"/>
				</linearGradient>
				<path fill="url(#SVGID_6_)" d="M54.375,45.5H3.984c-1.852,0-3.359-1.552-3.359-3.462V0.5H16.93l3.359,3.462h30.726v3.462h-1.68
					V5.692H19.594l-3.359-3.462H2.305v39.808c0,0.954,0.753,1.731,1.68,1.731s1.68-0.777,1.68-1.731V9.154h48.711V45.5z
					 M6.893,43.769h45.802V10.885H7.344v31.154C7.344,42.668,7.18,43.26,6.893,43.769z"/>
			</g>
			<g>
				<linearGradient id="SVGID_7_" gradientUnits="userSpaceOnUse" x1="0.5833" y1="39.4423" x2="54.2702" y2="39.4423">
					<stop  offset="0" style="stop-color:#3F53A0"/>
					<stop  offset="1" style="stop-color:#3FB7E2"/>
				</linearGradient>
				<rect x="10.703" y="38.577" fill="url(#SVGID_7_)" width="38.633" height="1.731"/>
			</g>
		</g>
	</g>
</g>
</svg>
