<?xml version="1.0" encoding="utf-8"?>
<!-- Generator: Adobe Illustrator 17.0.0, SVG Export Plug-In . SVG Version: 6.00 Build 0)  -->
<!DOCTYPE svg PUBLIC "-//W3C//DTD SVG 1.1//EN" "http://www.w3.org/Graphics/SVG/1.1/DTD/svg11.dtd">
<svg version="1.1" id="Layer_1" xmlns="http://www.w3.org/2000/svg" xmlns:xlink="http://www.w3.org/1999/xlink" x="0px" y="0px"
	 width="55px" height="46px" viewBox="0 0 55 46" enable-background="new 0 0 55 46" xml:space="preserve">
<g>
	<g>
		<g>
			<g>
				<g>
					<g>
						<g>
							<linearGradient id="SVGID_1_" gradientUnits="userSpaceOnUse" x1="5" y1="27.9219" x2="49.7502" y2="27.9219">
								<stop  offset="0" style="stop-color:#3F53A0"/>
								<stop  offset="1" style="stop-color:#3FB7E2"/>
							</linearGradient>
							<path fill="url(#SVGID_1_)" d="M18.359,39.172h-1.406l0.03-1.608l2.08-6.933v-9.037c0-0.388-0.316-0.703-0.703-0.703
								s-0.703,0.316-0.703,0.703H16.25v-1.406c0-0.388-0.316-0.703-0.703-0.703s-0.703,0.316-0.703,0.703h-1.406v-1.406
								c0-0.388-0.316-0.703-0.703-0.703s-0.703,0.316-0.703,0.703v1.406h-1.406c0-0.388-0.316-0.703-0.703-0.703
								S9.219,19.8,9.219,20.188v9.141H7.813v-9.141c0-1.163,0.946-2.109,2.109-2.109c0.274,0,0.537,0.053,0.777,0.148
								c0.244-0.895,1.064-1.555,2.035-1.555s1.791,0.66,2.035,1.555c0.241-0.096,0.503-0.148,0.777-0.148
								c0.971,0,1.791,0.66,2.035,1.555c0.241-0.096,0.503-0.148,0.777-0.148c1.163,0,2.109,0.946,2.109,2.109l-0.03,9.342
								l-2.08,6.933V39.172z"/>
						</g>
						<g>
							<linearGradient id="SVGID_2_" gradientUnits="userSpaceOnUse" x1="5" y1="23.7031" x2="49.7502" y2="23.7031">
								<stop  offset="0" style="stop-color:#3F53A0"/>
								<stop  offset="1" style="stop-color:#3FB7E2"/>
							</linearGradient>
							<rect x="10.625" y="20.188" fill="url(#SVGID_2_)" width="1.406" height="7.031"/>
						</g>
						<g>
							<linearGradient id="SVGID_3_" gradientUnits="userSpaceOnUse" x1="5" y1="23.7031" x2="49.7502" y2="23.7031">
								<stop  offset="0" style="stop-color:#3F53A0"/>
								<stop  offset="1" style="stop-color:#3FB7E2"/>
							</linearGradient>
							<rect x="13.438" y="20.188" fill="url(#SVGID_3_)" width="1.406" height="7.031"/>
						</g>
						<g>
							<linearGradient id="SVGID_4_" gradientUnits="userSpaceOnUse" x1="5" y1="24.4063" x2="49.7502" y2="24.4063">
								<stop  offset="0" style="stop-color:#3F53A0"/>
								<stop  offset="1" style="stop-color:#3FB7E2"/>
							</linearGradient>
							<rect x="16.25" y="21.594" fill="url(#SVGID_4_)" width="1.406" height="5.625"/>
						</g>
						<g>
							<linearGradient id="SVGID_5_" gradientUnits="userSpaceOnUse" x1="5" y1="31.7891" x2="49.7502" y2="31.7891">
								<stop  offset="0" style="stop-color:#3F53A0"/>
								<stop  offset="1" style="stop-color:#3FB7E2"/>
							</linearGradient>
							<path fill="url(#SVGID_5_)" d="M9.922,39.172H8.516v-2.578L6.48,33.861L5,30.9v-4.385c0-1.163,0.946-2.109,2.109-2.109v1.406
								c-0.388,0-0.703,0.316-0.703,0.703v4.053l1.304,2.607l2.212,2.949V39.172z"/>
						</g>
					</g>
				</g>
				<g>
					<linearGradient id="SVGID_6_" gradientUnits="userSpaceOnUse" x1="5" y1="41.9844" x2="49.7502" y2="41.9844">
						<stop  offset="0" style="stop-color:#3F53A0"/>
						<stop  offset="1" style="stop-color:#3FB7E2"/>
					</linearGradient>
					<rect x="10.625" y="41.281" fill="url(#SVGID_6_)" width="1.406" height="1.406"/>
				</g>
				<g>
					<linearGradient id="SVGID_7_" gradientUnits="userSpaceOnUse" x1="5" y1="41.9844" x2="49.7502" y2="41.9844">
						<stop  offset="0" style="stop-color:#3F53A0"/>
						<stop  offset="1" style="stop-color:#3FB7E2"/>
					</linearGradient>
					<path fill="url(#SVGID_7_)" d="M19.063,45.5h-1.406v-5.625H9.219V45.5H7.813v-5.625c0-0.776,0.631-1.406,1.406-1.406h8.438
						c0.776,0,1.406,0.631,1.406,1.406V45.5z"/>
				</g>
			</g>
			<g>
				<g>
					<g>
						<g>
							<linearGradient id="SVGID_8_" gradientUnits="userSpaceOnUse" x1="5" y1="11.75" x2="49.7502" y2="11.75">
								<stop  offset="0" style="stop-color:#3F53A0"/>
								<stop  offset="1" style="stop-color:#3FB7E2"/>
							</linearGradient>
							<path fill="url(#SVGID_8_)" d="M32.422,23h-1.406l0.03-1.608l2.08-6.933V5.422c0-0.388-0.316-0.703-0.703-0.703
								s-0.703,0.316-0.703,0.703h-1.406V4.016c0-0.388-0.316-0.703-0.703-0.703s-0.703,0.316-0.703,0.703H27.5V2.609
								c0-0.388-0.316-0.703-0.703-0.703s-0.703,0.316-0.703,0.703v1.406h-1.406c0-0.388-0.316-0.703-0.703-0.703
								s-0.703,0.316-0.703,0.703v9.141h-1.406V4.016c0-1.163,0.946-2.109,2.109-2.109c0.274,0,0.537,0.053,0.777,0.148
								C25.006,1.16,25.826,0.5,26.797,0.5s1.791,0.66,2.035,1.555c0.241-0.096,0.503-0.148,0.777-0.148
								c0.971,0,1.791,0.66,2.035,1.555c0.241-0.096,0.503-0.148,0.777-0.148c1.163,0,2.109,0.946,2.109,2.109l-0.03,9.342
								l-2.08,6.933V23z"/>
						</g>
						<g>
							<linearGradient id="SVGID_9_" gradientUnits="userSpaceOnUse" x1="5" y1="7.5313" x2="49.7502" y2="7.5313">
								<stop  offset="0" style="stop-color:#3F53A0"/>
								<stop  offset="1" style="stop-color:#3FB7E2"/>
							</linearGradient>
							<rect x="24.688" y="4.016" fill="url(#SVGID_9_)" width="1.406" height="7.031"/>
						</g>
						<g>
							<linearGradient id="SVGID_10_" gradientUnits="userSpaceOnUse" x1="5" y1="7.5313" x2="49.7502" y2="7.5313">
								<stop  offset="0" style="stop-color:#3F53A0"/>
								<stop  offset="1" style="stop-color:#3FB7E2"/>
							</linearGradient>
							<rect x="27.5" y="4.016" fill="url(#SVGID_10_)" width="1.406" height="7.031"/>
						</g>
						<g>
							<linearGradient id="SVGID_11_" gradientUnits="userSpaceOnUse" x1="5" y1="8.2344" x2="49.7502" y2="8.2344">
								<stop  offset="0" style="stop-color:#3F53A0"/>
								<stop  offset="1" style="stop-color:#3FB7E2"/>
							</linearGradient>
							<rect x="30.313" y="5.422" fill="url(#SVGID_11_)" width="1.406" height="5.625"/>
						</g>
						<g>
							<linearGradient id="SVGID_12_" gradientUnits="userSpaceOnUse" x1="5" y1="15.6172" x2="49.7502" y2="15.6172">
								<stop  offset="0" style="stop-color:#3F53A0"/>
								<stop  offset="1" style="stop-color:#3FB7E2"/>
							</linearGradient>
							<path fill="url(#SVGID_12_)" d="M23.984,23h-1.406v-2.578l-2.035-2.733l-1.48-2.961v-4.385c0-1.163,0.946-2.109,2.109-2.109
								v1.406c-0.388,0-0.703,0.316-0.703,0.703v4.053l1.304,2.607l2.212,2.949V23z"/>
						</g>
					</g>
				</g>
				<g>
					<linearGradient id="SVGID_13_" gradientUnits="userSpaceOnUse" x1="5" y1="25.8125" x2="49.7502" y2="25.8125">
						<stop  offset="0" style="stop-color:#3F53A0"/>
						<stop  offset="1" style="stop-color:#3FB7E2"/>
					</linearGradient>
					<rect x="24.688" y="25.109" fill="url(#SVGID_13_)" width="1.406" height="1.406"/>
				</g>
				<g>
					<linearGradient id="SVGID_14_" gradientUnits="userSpaceOnUse" x1="5" y1="33.8984" x2="49.7502" y2="33.8984">
						<stop  offset="0" style="stop-color:#3F53A0"/>
						<stop  offset="1" style="stop-color:#3FB7E2"/>
					</linearGradient>
					<path fill="url(#SVGID_14_)" d="M33.125,45.5h-1.406V23.703h-8.438V45.5h-1.406V23.703c0-0.776,0.631-1.406,1.406-1.406h8.438
						c0.776,0,1.406,0.631,1.406,1.406V45.5z"/>
				</g>
			</g>
			<g>
				<g>
					<g>
						<g>
							<linearGradient id="SVGID_15_" gradientUnits="userSpaceOnUse" x1="5" y1="21.5938" x2="49.7502" y2="21.5938">
								<stop  offset="0" style="stop-color:#3F53A0"/>
								<stop  offset="1" style="stop-color:#3FB7E2"/>
							</linearGradient>
							<path fill="url(#SVGID_15_)" d="M47.891,32.844h-1.406l0.03-1.608l2.08-6.933v-9.037c0-0.388-0.316-0.703-0.703-0.703
								s-0.703,0.316-0.703,0.703h-1.406v-1.406c0-0.388-0.316-0.703-0.703-0.703s-0.703,0.316-0.703,0.703h-1.406v-1.406
								c0-0.388-0.316-0.703-0.703-0.703s-0.703,0.316-0.703,0.703v1.406h-1.406c0-0.388-0.316-0.703-0.703-0.703
								s-0.703,0.316-0.703,0.703V23h-1.406v-9.141c0-1.163,0.946-2.109,2.109-2.109c0.274,0,0.537,0.053,0.777,0.148
								c0.244-0.895,1.064-1.555,2.035-1.555s1.791,0.66,2.035,1.555c0.241-0.096,0.503-0.148,0.777-0.148
								c0.971,0,1.791,0.66,2.035,1.555c0.241-0.096,0.503-0.148,0.777-0.148c1.163,0,2.109,0.946,2.109,2.109l-0.03,9.342
								l-2.08,6.933V32.844z"/>
						</g>
						<g>
							<linearGradient id="SVGID_16_" gradientUnits="userSpaceOnUse" x1="5" y1="17.375" x2="49.7502" y2="17.375">
								<stop  offset="0" style="stop-color:#3F53A0"/>
								<stop  offset="1" style="stop-color:#3FB7E2"/>
							</linearGradient>
							<rect x="40.156" y="13.859" fill="url(#SVGID_16_)" width="1.406" height="7.031"/>
						</g>
						<g>
							<linearGradient id="SVGID_17_" gradientUnits="userSpaceOnUse" x1="5" y1="17.375" x2="49.7502" y2="17.375">
								<stop  offset="0" style="stop-color:#3F53A0"/>
								<stop  offset="1" style="stop-color:#3FB7E2"/>
							</linearGradient>
							<rect x="42.969" y="13.859" fill="url(#SVGID_17_)" width="1.406" height="7.031"/>
						</g>
						<g>
							<linearGradient id="SVGID_18_" gradientUnits="userSpaceOnUse" x1="5" y1="18.0781" x2="49.7502" y2="18.0781">
								<stop  offset="0" style="stop-color:#3F53A0"/>
								<stop  offset="1" style="stop-color:#3FB7E2"/>
							</linearGradient>
							<rect x="45.781" y="15.266" fill="url(#SVGID_18_)" width="1.406" height="5.625"/>
						</g>
						<g>
							<linearGradient id="SVGID_19_" gradientUnits="userSpaceOnUse" x1="5" y1="25.4609" x2="49.7502" y2="25.4609">
								<stop  offset="0" style="stop-color:#3F53A0"/>
								<stop  offset="1" style="stop-color:#3FB7E2"/>
							</linearGradient>
							<path fill="url(#SVGID_19_)" d="M39.453,32.844h-1.406v-2.578l-2.035-2.733l-1.48-2.961v-4.385
								c0-1.163,0.946-2.109,2.109-2.109v1.406c-0.388,0-0.703,0.316-0.703,0.703v4.053l1.304,2.607l2.212,2.949V32.844z"/>
						</g>
					</g>
				</g>
				<g>
					<linearGradient id="SVGID_20_" gradientUnits="userSpaceOnUse" x1="5" y1="35.6563" x2="49.7502" y2="35.6563">
						<stop  offset="0" style="stop-color:#3F53A0"/>
						<stop  offset="1" style="stop-color:#3FB7E2"/>
					</linearGradient>
					<rect x="40.156" y="34.953" fill="url(#SVGID_20_)" width="1.406" height="1.406"/>
				</g>
				<g>
					<linearGradient id="SVGID_21_" gradientUnits="userSpaceOnUse" x1="5" y1="38.8203" x2="49.7502" y2="38.8203">
						<stop  offset="0" style="stop-color:#3F53A0"/>
						<stop  offset="1" style="stop-color:#3FB7E2"/>
					</linearGradient>
					<path fill="url(#SVGID_21_)" d="M48.594,45.5h-1.406V33.547H38.75V45.5h-1.406V33.547c0-0.776,0.631-1.406,1.406-1.406h8.438
						c0.776,0,1.406,0.631,1.406,1.406V45.5z"/>
				</g>
			</g>
		</g>
	</g>
</g>
</svg>
