<?xml version="1.0" encoding="utf-8"?>
<!-- Generator: Adobe Illustrator 17.0.0, SVG Export Plug-In . SVG Version: 6.00 Build 0)  -->
<!DOCTYPE svg PUBLIC "-//W3C//DTD SVG 1.1//EN" "http://www.w3.org/Graphics/SVG/1.1/DTD/svg11.dtd">
<svg version="1.1" id="Layer_1" xmlns="http://www.w3.org/2000/svg" xmlns:xlink="http://www.w3.org/1999/xlink" x="0px" y="0px"
	 width="75px" height="90px" viewBox="0 0 75 90" enable-background="new 0 0 75 90" xml:space="preserve">
<g>
	<path fill="#5C5D5D" d="M73.114,16.632C61.19,13.364,49.195,8.277,38.427,1.919c-0.572-0.338-1.282-0.338-1.854,0
		C25.495,8.46,14.149,13.272,1.886,16.632c-0.792,0.217-1.341,0.937-1.341,1.758v18.628c0,19.183,8.849,31.88,16.273,39.154
		C24.81,84.003,34.12,88.334,37.5,88.334s12.69-4.331,20.682-12.162c7.424-7.274,16.273-19.971,16.273-39.154V18.39
		C74.455,17.569,73.906,16.849,73.114,16.632z M70.809,37.018c0,17.916-8.254,29.765-15.179,36.549
		c-7.859,7.701-16.263,11.12-18.13,11.12c-1.868,0-10.271-3.419-18.131-11.12C12.445,66.782,4.191,54.934,4.191,37.018V19.774
		c11.727-3.33,22.648-7.976,33.31-14.172c10.396,6.031,21.862,10.909,33.308,14.171V37.018z"/>
	<path fill="#5C5D5D" d="M21.341,19.57c-0.369-0.937-1.427-1.397-2.365-1.028c-3.257,1.283-6.6,2.464-9.935,3.511
		c-0.76,0.239-1.277,0.943-1.277,1.739v7.04c0,1.007,0.816,1.823,1.823,1.823s1.823-0.816,1.823-1.823v-5.708
		c2.993-0.968,5.982-2.039,8.903-3.19C21.25,21.565,21.71,20.507,21.341,19.57z"/>
	<path fill="#5C5D5D" d="M24.804,19.916c0.245,0,0.493-0.049,0.731-0.153l0.034-0.015c0.922-0.404,1.338-1.478,0.934-2.4
		c-0.405-0.922-1.484-1.34-2.406-0.936l-0.03,0.013c-0.923,0.403-1.34,1.476-0.937,2.398C23.429,19.508,24.101,19.916,24.804,19.916
		z"/>
	<path fill="#5C5D5D" d="M59.221,60.452c-0.842-0.551-1.972-0.314-2.523,0.529c-1.502,2.299-3.265,4.501-5.239,6.544
		c-1.624,1.68-3.383,3.245-5.229,4.652c-0.801,0.61-0.955,1.754-0.344,2.555c0.359,0.47,0.902,0.718,1.451,0.718
		c0.386,0,0.774-0.122,1.104-0.374c1.992-1.519,3.889-3.207,5.64-5.018c2.135-2.208,4.042-4.591,5.67-7.084
		C60.301,62.132,60.064,61.002,59.221,60.452z"/>
	<path fill="#5C5D5D" d="M41.995,75.036l-0.105,0.062c-0.871,0.505-1.169,1.62-0.665,2.491c0.338,0.584,0.95,0.91,1.58,0.91
		c0.31,0,0.624-0.079,0.912-0.246l0.121-0.071c0.869-0.509,1.161-1.625,0.652-2.494C43.981,74.819,42.864,74.528,41.995,75.036z"/>
</g>
<g>
	<path fill="#5C5D5D" d="M22.325,29.165c-0.729,0-1.351,0.258-1.866,0.773c-0.515,0.515-0.773,1.137-0.773,1.866
		c0,0.481,0.12,0.921,0.361,1.32c0.241,0.398,0.56,0.714,0.959,0.948v26.103c0,0.193,0.062,0.351,0.185,0.475
		c0.123,0.124,0.282,0.185,0.475,0.185h1.32c0.191,0,0.35-0.062,0.473-0.185c0.125-0.124,0.185-0.282,0.185-0.475V34.072
		c0.399-0.233,0.719-0.55,0.959-0.948c0.241-0.399,0.361-0.839,0.361-1.32c0-0.729-0.257-1.35-0.772-1.866
		C23.675,29.423,23.053,29.165,22.325,29.165L22.325,29.165z M22.325,29.165"/>
	<path fill="#5C5D5D" d="M54.675,31.99c-0.426-0.247-0.853-0.261-1.279-0.041c-0.123,0.069-0.336,0.185-0.639,0.35
		c-2.584,1.54-4.714,2.31-6.392,2.31c-0.701,0-1.312-0.13-1.835-0.392c-1.538-0.756-2.975-1.347-4.309-1.773
		c-1.333-0.425-2.769-0.639-4.309-0.639c-1.003,0-2.069,0.131-3.196,0.392c-1.127,0.261-2.176,0.602-3.145,1.021
		c-0.969,0.419-1.752,0.776-2.35,1.073c-0.598,0.295-1.138,0.587-1.619,0.876c-0.426,0.275-0.639,0.653-0.639,1.133v15.299
		c0,0.509,0.22,0.893,0.66,1.154c0.22,0.11,0.44,0.166,0.66,0.166c0.247,0,0.473-0.062,0.68-0.185
		c1.306-0.797,2.877-1.499,4.712-2.103c1.835-0.605,3.454-0.908,4.855-0.908c0.797,0,1.58,0.096,2.35,0.289
		c0.77,0.193,1.396,0.392,1.877,0.598c0.481,0.206,1.16,0.536,2.041,0.99l0.577,0.289c0.961,0.481,2.047,0.722,3.257,0.722
		c2.075,0,4.612-0.797,7.608-2.392c0.096-0.054,0.213-0.116,0.35-0.185c0.482-0.247,0.723-0.639,0.723-1.175V33.124
		C55.314,32.642,55.101,32.265,54.675,31.99L54.675,31.99z M52.675,48.072c-2.379,1.264-4.392,1.897-6.041,1.897
		c-0.784,0-1.478-0.151-2.082-0.453l-0.578-0.288c-0.755-0.372-1.322-0.642-1.7-0.816c-0.378-0.172-0.907-0.384-1.588-0.639
		c-0.68-0.255-1.353-0.432-2.02-0.536c-0.666-0.103-1.378-0.155-2.134-0.155c-2.584,0-5.559,0.777-8.928,2.33V37.062
		c3.162-1.746,5.931-2.618,8.31-2.618c1.291,0,2.515,0.189,3.669,0.567c1.155,0.377,2.419,0.903,3.795,1.577
		c0.865,0.44,1.862,0.66,2.989,0.66c1.883,0,3.986-0.625,6.309-1.876V48.072z M52.675,48.072"/>
</g>
</svg>
