<?xml version="1.0" encoding="utf-8"?>
<!-- Generator: Adobe Illustrator 17.0.0, SVG Export Plug-In . SVG Version: 6.00 Build 0)  -->
<!DOCTYPE svg PUBLIC "-//W3C//DTD SVG 1.1//EN" "http://www.w3.org/Graphics/SVG/1.1/DTD/svg11.dtd">
<svg version="1.1" id="Layer_1" xmlns="http://www.w3.org/2000/svg" xmlns:xlink="http://www.w3.org/1999/xlink" x="0px" y="0px"
	 width="75px" height="90px" viewBox="0 0 75 90" enable-background="new 0 0 75 90" xml:space="preserve">
<g>
	<path fill="#5C5D5D" d="M73.114,16.632C61.19,13.364,49.195,8.277,38.427,1.919c-0.572-0.338-1.282-0.338-1.854,0
		C25.495,8.46,14.149,13.272,1.886,16.632c-0.792,0.217-1.341,0.937-1.341,1.758v18.628c0,19.183,8.849,31.88,16.273,39.154
		C24.81,84.003,34.12,88.334,37.5,88.334c3.38,0,12.69-4.331,20.682-12.162c7.424-7.274,16.273-19.971,16.273-39.154V18.39
		C74.455,17.569,73.906,16.849,73.114,16.632z M70.809,37.018c0,17.916-8.254,29.765-15.179,36.549
		c-7.859,7.701-16.263,11.12-18.13,11.12c-1.868,0-10.271-3.419-18.131-11.12C12.445,66.782,4.191,54.934,4.191,37.018V19.774
		c11.727-3.33,22.648-7.976,33.31-14.172c10.396,6.031,21.862,10.909,33.308,14.171V37.018z"/>
	<path fill="#5C5D5D" d="M21.341,19.57c-0.369-0.937-1.427-1.397-2.365-1.028c-3.257,1.283-6.6,2.464-9.935,3.511
		c-0.76,0.239-1.277,0.943-1.277,1.739v7.04c0,1.007,0.816,1.823,1.823,1.823s1.823-0.816,1.823-1.823v-5.708
		c2.993-0.968,5.982-2.039,8.903-3.19C21.25,21.565,21.71,20.507,21.341,19.57z"/>
	<path fill="#5C5D5D" d="M24.804,19.916c0.245,0,0.493-0.049,0.731-0.153l0.034-0.015c0.922-0.404,1.338-1.478,0.934-2.4
		c-0.405-0.922-1.484-1.34-2.406-0.936l-0.03,0.013c-0.923,0.403-1.34,1.476-0.937,2.398C23.429,19.508,24.101,19.916,24.804,19.916
		z"/>
	<path fill="#5C5D5D" d="M59.221,60.452c-0.842-0.551-1.972-0.314-2.523,0.529c-1.502,2.299-3.265,4.501-5.239,6.544
		c-1.624,1.68-3.383,3.245-5.229,4.652c-0.801,0.61-0.955,1.754-0.344,2.555c0.359,0.47,0.902,0.718,1.451,0.718
		c0.386,0,0.774-0.122,1.104-0.374c1.992-1.519,3.889-3.207,5.64-5.018c2.135-2.208,4.042-4.591,5.67-7.084
		C60.301,62.132,60.064,61.002,59.221,60.452z"/>
	<path fill="#5C5D5D" d="M41.995,75.036l-0.105,0.062c-0.871,0.505-1.169,1.62-0.665,2.491c0.338,0.584,0.95,0.91,1.58,0.91
		c0.31,0,0.624-0.079,0.912-0.246l0.121-0.071c0.869-0.509,1.161-1.625,0.652-2.494C43.981,74.819,42.864,74.528,41.995,75.036z"/>
	<path fill="#5C5D5D" d="M25.073,41.279c-1.119-1.12-2.608-1.736-4.192-1.736s-3.072,0.616-4.192,1.736
		c-2.311,2.312-2.311,6.073,0,8.384l10.765,10.765c1.12,1.119,2.608,1.736,4.192,1.736c1.584,0,3.072-0.616,4.192-1.736
		l22.473-22.473c2.311-2.312,2.311-6.073,0-8.384c-1.12-1.12-2.608-1.736-4.192-1.736c-1.584,0-3.072,0.616-4.192,1.736
		L31.646,47.852L25.073,41.279z M52.505,32.15c0.431-0.431,1.004-0.668,1.614-0.668c0.61,0,1.183,0.237,1.614,0.668
		c0.889,0.889,0.889,2.338,0,3.227L33.26,57.85c-0.431,0.431-1.004,0.668-1.614,0.668c-0.61,0-1.183-0.237-1.614-0.668
		L19.268,47.085c-0.89-0.89-0.89-2.338,0-3.227c0.431-0.431,1.004-0.668,1.614-0.668s1.183,0.237,1.614,0.668l7.862,7.862
		c0.342,0.342,0.806,0.534,1.289,0.534s0.947-0.192,1.289-0.534L52.505,32.15z"/>
</g>
</svg>
