<?xml version="1.0" encoding="utf-8"?>
<!-- Generator: Adobe Illustrator 17.0.0, SVG Export Plug-In . SVG Version: 6.00 Build 0)  -->
<!DOCTYPE svg PUBLIC "-//W3C//DTD SVG 1.1//EN" "http://www.w3.org/Graphics/SVG/1.1/DTD/svg11.dtd">
<svg version="1.1" id="Layer_1" xmlns="http://www.w3.org/2000/svg" xmlns:xlink="http://www.w3.org/1999/xlink" x="0px" y="0px"
	 width="75px" height="90px" viewBox="0 0 75 90" enable-background="new 0 0 75 90" xml:space="preserve">
<g>
	<path fill="#FFFFFF" d="M73.114,16.632C61.19,13.364,49.195,8.277,38.427,1.919c-0.572-0.338-1.282-0.338-1.854,0
		C25.495,8.46,14.149,13.272,1.886,16.632c-0.792,0.217-1.341,0.937-1.341,1.758v18.628c0,19.183,8.849,31.88,16.273,39.154
		C24.81,84.003,34.12,88.334,37.5,88.334s12.69-4.331,20.682-12.162c7.424-7.274,16.273-19.971,16.273-39.154V18.39
		C74.455,17.569,73.906,16.849,73.114,16.632z M70.809,37.018c0,17.916-8.254,29.765-15.179,36.549
		c-7.859,7.701-16.263,11.12-18.13,11.12c-1.868,0-10.271-3.419-18.131-11.12C12.445,66.782,4.191,54.934,4.191,37.018V19.774
		c11.727-3.33,22.648-7.976,33.31-14.172c10.396,6.031,21.862,10.909,33.308,14.171V37.018z"/>
	<path fill="#FFFFFF" d="M21.341,19.57c-0.369-0.937-1.427-1.397-2.365-1.028c-3.257,1.283-6.6,2.464-9.935,3.511
		c-0.76,0.239-1.277,0.943-1.277,1.739v7.04c0,1.007,0.816,1.823,1.823,1.823s1.823-0.816,1.823-1.823v-5.708
		c2.993-0.968,5.982-2.039,8.903-3.19C21.25,21.565,21.71,20.507,21.341,19.57z"/>
	<path fill="#FFFFFF" d="M24.804,19.916c0.245,0,0.493-0.049,0.731-0.153l0.034-0.015c0.922-0.404,1.338-1.478,0.934-2.4
		c-0.405-0.922-1.484-1.34-2.406-0.936l-0.03,0.013c-0.923,0.403-1.34,1.476-0.937,2.398C23.429,19.508,24.101,19.916,24.804,19.916
		z"/>
	<path fill="#FFFFFF" d="M59.221,60.452c-0.842-0.551-1.972-0.314-2.523,0.529c-1.502,2.299-3.265,4.501-5.239,6.544
		c-1.624,1.68-3.383,3.245-5.229,4.652c-0.801,0.61-0.955,1.754-0.344,2.555c0.359,0.47,0.902,0.718,1.451,0.718
		c0.386,0,0.774-0.122,1.104-0.374c1.992-1.519,3.889-3.207,5.64-5.018c2.135-2.208,4.042-4.591,5.67-7.084
		C60.301,62.132,60.064,61.002,59.221,60.452z"/>
	<path fill="#FFFFFF" d="M41.995,75.036l-0.105,0.062c-0.871,0.505-1.169,1.62-0.665,2.491c0.338,0.584,0.95,0.91,1.58,0.91
		c0.31,0,0.624-0.079,0.912-0.246l0.121-0.071c0.869-0.509,1.161-1.625,0.652-2.494C43.981,74.819,42.864,74.528,41.995,75.036z"/>
</g>
<g>
	<g>
		<g>
			<path fill="#FFFFFF" d="M46.662,59.964c-0.408,0-0.816-0.1-1.177-0.289l-7.977-4.194l-7.927,4.19
				c-0.813,0.435-1.892,0.37-2.665-0.187c-0.788-0.58-1.172-1.527-1.013-2.479l1.522-8.887l-6.434-6.238
				c-0.695-0.68-0.941-1.674-0.643-2.597c0.295-0.912,1.099-1.59,2.05-1.727l8.915-1.295l3.95-8.049
				c0.427-0.87,1.298-1.413,2.271-1.413c0.975,0,1.847,0.543,2.276,1.416l3.983,8.076l8.878,1.265
				c0.961,0.139,1.744,0.8,2.045,1.725c0.299,0.924,0.053,1.919-0.641,2.597l-6.451,6.29l1.536,8.831
				c0.165,0.95-0.218,1.9-1.001,2.477C47.717,59.797,47.202,59.964,46.662,59.964z M37.534,52.894c0.412,0,0.822,0.102,1.186,0.296
				l7.902,4.155l-1.536-8.792c-0.14-0.831,0.136-1.669,0.736-2.248l6.363-6.204l-8.806-1.279c-0.826-0.123-1.537-0.639-1.907-1.381
				l-3.937-7.983l-3.941,7.978c-0.364,0.743-1.077,1.262-1.905,1.385l-8.81,1.28l6.372,6.21c0.6,0.586,0.871,1.426,0.726,2.248
				l-1.501,8.764l7.878-4.137C36.712,52.996,37.122,52.894,37.534,52.894z"/>
		</g>
	</g>
</g>
</svg>
