<?xml version="1.0" encoding="utf-8"?>
<!-- Generator: Adobe Illustrator 17.0.0, SVG Export Plug-In . SVG Version: 6.00 Build 0)  -->
<!DOCTYPE svg PUBLIC "-//W3C//DTD SVG 1.1//EN" "http://www.w3.org/Graphics/SVG/1.1/DTD/svg11.dtd">
<svg version="1.1" id="Layer_1" xmlns="http://www.w3.org/2000/svg" xmlns:xlink="http://www.w3.org/1999/xlink" x="0px" y="0px"
	 width="55px" height="46px" viewBox="0 0 55 46" enable-background="new 0 0 55 46" xml:space="preserve">
<g>
	<g>
		<g>
			<linearGradient id="SVGID_1_" gradientUnits="userSpaceOnUse" x1="5.125" y1="32.8164" x2="48.6056" y2="32.8164">
				<stop  offset="0" style="stop-color:#3F53A0"/>
				<stop  offset="1" style="stop-color:#3FB7E2"/>
			</linearGradient>
			<polygon fill="url(#SVGID_1_)" points="39.42,37.725 35.213,37.725 35.213,27.908 36.615,27.908 36.615,36.322 39.42,36.322 			
				"/>
		</g>
		<g>
			<linearGradient id="SVGID_2_" gradientUnits="userSpaceOnUse" x1="5.125" y1="37.7246" x2="48.6056" y2="37.7246">
				<stop  offset="0" style="stop-color:#3F53A0"/>
				<stop  offset="1" style="stop-color:#3FB7E2"/>
			</linearGradient>
			<polygon fill="url(#SVGID_2_)" points="36.615,45.438 31.006,45.438 31.006,30.012 32.408,30.012 32.408,44.035 35.213,44.035 
				35.213,41.932 38.018,41.932 38.018,40.529 35.213,40.529 35.213,39.127 39.42,39.127 39.42,43.334 36.615,43.334 			"/>
		</g>
		<g>
			<linearGradient id="SVGID_3_" gradientUnits="userSpaceOnUse" x1="5.125" y1="16.6895" x2="48.6056" y2="16.6895">
				<stop  offset="0" style="stop-color:#3F53A0"/>
				<stop  offset="1" style="stop-color:#3FB7E2"/>
			</linearGradient>
			<path fill="url(#SVGID_3_)" d="M33.811,20.195c-1.933,0-3.506-1.573-3.506-3.506s1.573-3.506,3.506-3.506
				s3.506,1.573,3.506,3.506S35.744,20.195,33.811,20.195z M33.811,14.586c-1.16,0-2.104,0.944-2.104,2.104s0.944,2.104,2.104,2.104
				s2.104-0.944,2.104-2.104S34.97,14.586,33.811,14.586z"/>
		</g>
		<g>
			<linearGradient id="SVGID_4_" gradientUnits="userSpaceOnUse" x1="5.125" y1="19.4941" x2="48.6056" y2="19.4941">
				<stop  offset="0" style="stop-color:#3F53A0"/>
				<stop  offset="1" style="stop-color:#3FB7E2"/>
			</linearGradient>
			<path fill="url(#SVGID_4_)" d="M33.811,28.609c-5.026,0-9.115-4.089-9.115-9.115c0-5.026,4.089-9.115,9.115-9.115
				s9.115,4.089,9.115,9.115C42.926,24.52,38.837,28.609,33.811,28.609z M33.811,11.781c-4.253,0-7.713,3.46-7.713,7.713
				s3.46,7.713,7.713,7.713s7.713-3.46,7.713-7.713S38.063,11.781,33.811,11.781z"/>
		</g>
	</g>
	<g>
		<linearGradient id="SVGID_5_" gradientUnits="userSpaceOnUse" x1="5.125" y1="26.9592" x2="48.6056" y2="26.9592">
			<stop  offset="0" style="stop-color:#3F53A0"/>
			<stop  offset="1" style="stop-color:#3FB7E2"/>
		</linearGradient>
		<polygon fill="url(#SVGID_5_)" points="12.074,35.621 5.063,35.621 5.063,31.124 17.889,18.297 18.881,19.289 6.465,31.704 
			6.465,34.219 10.672,34.219 10.672,32.115 13.477,32.115 13.477,29.311 16.281,29.311 16.281,26.917 19.993,23.205 20.984,24.197 
			17.684,27.498 17.684,30.713 14.879,30.713 14.879,33.518 12.074,33.518 		"/>
	</g>
	<g>
		<linearGradient id="SVGID_6_" gradientUnits="userSpaceOnUse" x1="5.125" y1="14.3374" x2="48.6056" y2="14.3374">
			<stop  offset="0" style="stop-color:#3F53A0"/>
			<stop  offset="1" style="stop-color:#3FB7E2"/>
		</linearGradient>
		<path fill="url(#SVGID_6_)" d="M23.122,23.204c-3.672-1.268-6.139-4.732-6.139-8.618c0-5.026,4.089-9.115,9.115-9.115
			c2.589,0,5.065,1.107,6.793,3.037l-1.045,0.935c-1.463-1.633-3.558-2.57-5.748-2.57c-4.253,0-7.713,3.46-7.713,7.713
			c0,3.289,2.087,6.219,5.194,7.292L23.122,23.204z"/>
	</g>
	<g>
		<linearGradient id="SVGID_7_" gradientUnits="userSpaceOnUse" x1="5.125" y1="11.4307" x2="48.6056" y2="11.4307">
			<stop  offset="0" style="stop-color:#3F53A0"/>
			<stop  offset="1" style="stop-color:#3FB7E2"/>
		</linearGradient>
		<path fill="url(#SVGID_7_)" d="M21.189,14.586h-1.402c0-3.479,2.831-6.311,6.311-6.311v1.402
			C23.391,9.678,21.189,11.88,21.189,14.586z"/>
	</g>
	<g>
		<linearGradient id="SVGID_8_" gradientUnits="userSpaceOnUse" x1="5.125" y1="10.3789" x2="48.6056" y2="10.3789">
			<stop  offset="0" style="stop-color:#3F53A0"/>
			<stop  offset="1" style="stop-color:#3FB7E2"/>
		</linearGradient>
		<path fill="url(#SVGID_8_)" d="M40.121,20.195c-2.639,0-5.115-1.033-6.972-2.907l0.996-0.987c1.591,1.607,3.714,2.491,5.976,2.491
			c4.639,0,8.414-3.775,8.414-8.414s-3.775-8.414-8.414-8.414c-2.883,0-5.534,1.452-7.091,3.884l-1.181-0.756
			c1.817-2.837,4.909-4.53,8.273-4.53c5.413,0,9.816,4.404,9.816,9.816S45.534,20.195,40.121,20.195z"/>
	</g>
</g>
</svg>
