<?xml version="1.0" encoding="utf-8"?>
<!-- Generator: Adobe Illustrator 17.0.0, SVG Export Plug-In . SVG Version: 6.00 Build 0)  -->
<!DOCTYPE svg PUBLIC "-//W3C//DTD SVG 1.1//EN" "http://www.w3.org/Graphics/SVG/1.1/DTD/svg11.dtd">
<svg version="1.1" id="Layer_1" xmlns="http://www.w3.org/2000/svg" xmlns:xlink="http://www.w3.org/1999/xlink" x="0px" y="0px"
	 width="55px" height="46px" viewBox="0 0 55 46" enable-background="new 0 0 55 46" xml:space="preserve">
<g>
	<g>
		<g>
			<linearGradient id="SVGID_1_" gradientUnits="userSpaceOnUse" x1="4.6667" y1="12.4102" x2="49.5693" y2="12.4102">
				<stop  offset="0" style="stop-color:#3F53A0"/>
				<stop  offset="1" style="stop-color:#3FB7E2"/>
			</linearGradient>
			<path fill="url(#SVGID_1_)" d="M36.274,24.32L35.6,23.087c0.301-0.165,7.369-4.17,7.369-14.149c0-3.679-0.807-6.128-1.165-7.031
				H23.045c-0.355,0.93-1.17,3.525-1.17,7.734c0,9.318,7.294,13.405,7.368,13.445L28.57,24.32c-0.331-0.181-8.101-4.535-8.101-14.68
				c0-5.725,1.42-8.631,1.48-8.752C22.069,0.65,22.312,0.5,22.578,0.5h19.688c0.266,0,0.509,0.15,0.629,0.389
				c0.06,0.121,1.48,3.019,1.48,8.049C44.375,19.777,36.605,24.14,36.274,24.32z"/>
		</g>
		<g>
			<linearGradient id="SVGID_2_" gradientUnits="userSpaceOnUse" x1="4.6667" y1="42.6875" x2="49.5693" y2="42.6875">
				<stop  offset="0" style="stop-color:#3F53A0"/>
				<stop  offset="1" style="stop-color:#3FB7E2"/>
			</linearGradient>
			<path fill="url(#SVGID_2_)" d="M37.344,45.5H27.5c-1.163,0-2.109-0.946-2.109-2.109v-1.406c0-1.163,0.946-2.109,2.109-2.109
				h9.844c1.163,0,2.109,0.946,2.109,2.109v1.406C39.453,44.554,38.507,45.5,37.344,45.5z M27.5,41.281
				c-0.388,0-0.703,0.316-0.703,0.703v1.406c0,0.388,0.315,0.703,0.703,0.703h9.844c0.388,0,0.703-0.316,0.703-0.703v-1.406
				c0-0.388-0.315-0.703-0.703-0.703H27.5z"/>
		</g>
		<g>
			<g>
				<linearGradient id="SVGID_3_" gradientUnits="userSpaceOnUse" x1="4.6667" y1="27.9219" x2="49.5693" y2="27.9219">
					<stop  offset="0" style="stop-color:#3F53A0"/>
					<stop  offset="1" style="stop-color:#3FB7E2"/>
				</linearGradient>
				<rect x="35.938" y="27.219" fill="url(#SVGID_3_)" width="2.813" height="1.406"/>
			</g>
			<g>
				<linearGradient id="SVGID_4_" gradientUnits="userSpaceOnUse" x1="4.6667" y1="23.4546" x2="49.5693" y2="23.4546">
					<stop  offset="0" style="stop-color:#3F53A0"/>
					<stop  offset="1" style="stop-color:#3FB7E2"/>
				</linearGradient>
				<path fill="url(#SVGID_4_)" d="M18.359,25.813h-2.813v-1.406h2.521l3.31-3.31l0.994,0.994l-3.516,3.516
					C18.725,25.738,18.546,25.813,18.359,25.813z"/>
			</g>
			<g>
				<g>
					<linearGradient id="SVGID_5_" gradientUnits="userSpaceOnUse" x1="4.6667" y1="32.8438" x2="49.5693" y2="32.8438">
						<stop  offset="0" style="stop-color:#3F53A0"/>
						<stop  offset="1" style="stop-color:#3FB7E2"/>
					</linearGradient>
					<path fill="url(#SVGID_5_)" d="M15.547,41.281H8.516c-0.389,0-0.703-0.315-0.703-0.703V25.109c0-0.388,0.314-0.703,0.703-0.703
						h7.031c0.389,0,0.703,0.315,0.703,0.703v15.469C16.25,40.966,15.936,41.281,15.547,41.281z M9.219,39.875h5.625V25.813H9.219
						V39.875z"/>
				</g>
				<g>
					<linearGradient id="SVGID_6_" gradientUnits="userSpaceOnUse" x1="4.6667" y1="25.1094" x2="49.5693" y2="25.1094">
						<stop  offset="0" style="stop-color:#3F53A0"/>
						<stop  offset="1" style="stop-color:#3FB7E2"/>
					</linearGradient>
					<rect x="5" y="24.406" fill="url(#SVGID_6_)" width="3.516" height="1.406"/>
				</g>
				<g>
					<linearGradient id="SVGID_7_" gradientUnits="userSpaceOnUse" x1="4.6667" y1="40.5781" x2="49.5693" y2="40.5781">
						<stop  offset="0" style="stop-color:#3F53A0"/>
						<stop  offset="1" style="stop-color:#3FB7E2"/>
					</linearGradient>
					<rect x="5" y="39.875" fill="url(#SVGID_7_)" width="3.516" height="1.406"/>
				</g>
				<g>
					<linearGradient id="SVGID_8_" gradientUnits="userSpaceOnUse" x1="4.6667" y1="37.7656" x2="49.5693" y2="37.7656">
						<stop  offset="0" style="stop-color:#3F53A0"/>
						<stop  offset="1" style="stop-color:#3FB7E2"/>
					</linearGradient>
					<rect x="12.031" y="37.063" fill="url(#SVGID_8_)" width="1.406" height="1.406"/>
				</g>
			</g>
			<g>
				<g>
					<linearGradient id="SVGID_9_" gradientUnits="userSpaceOnUse" x1="4.6667" y1="30.0313" x2="49.5693" y2="30.0313">
						<stop  offset="0" style="stop-color:#3F53A0"/>
						<stop  offset="1" style="stop-color:#3FB7E2"/>
					</linearGradient>
					<path fill="url(#SVGID_9_)" d="M38.75,32.844v-1.406c0.775,0,1.406-0.631,1.406-1.406s-0.631-1.406-1.406-1.406v-1.406
						c1.551,0,2.813,1.262,2.813,2.813S40.301,32.844,38.75,32.844z"/>
				</g>
				<g>
					<linearGradient id="SVGID_10_" gradientUnits="userSpaceOnUse" x1="4.6667" y1="32.1406" x2="49.5693" y2="32.1406">
						<stop  offset="0" style="stop-color:#3F53A0"/>
						<stop  offset="1" style="stop-color:#3FB7E2"/>
					</linearGradient>
					<rect x="35.938" y="31.438" fill="url(#SVGID_10_)" width="2.813" height="1.406"/>
				</g>
				<g>
					<linearGradient id="SVGID_11_" gradientUnits="userSpaceOnUse" x1="4.6667" y1="25.8125" x2="49.5693" y2="25.8125">
						<stop  offset="0" style="stop-color:#3F53A0"/>
						<stop  offset="1" style="stop-color:#3FB7E2"/>
					</linearGradient>
					<path fill="url(#SVGID_11_)" d="M37.344,28.625v-1.406c0.775,0,1.406-0.631,1.406-1.406s-0.631-1.406-1.406-1.406H26.797V23
						h10.547c1.551,0,2.813,1.262,2.813,2.813S38.895,28.625,37.344,28.625z"/>
				</g>
				<g>
					<linearGradient id="SVGID_12_" gradientUnits="userSpaceOnUse" x1="4.6667" y1="38.4688" x2="49.5693" y2="38.4688">
						<stop  offset="0" style="stop-color:#3F53A0"/>
						<stop  offset="1" style="stop-color:#3FB7E2"/>
					</linearGradient>
					<path fill="url(#SVGID_12_)" d="M36.641,41.281H22.578c-0.109,0-0.217-0.025-0.314-0.074l-2.664-1.332h-1.943v-1.406h2.109
						c0.109,0,0.217,0.025,0.314,0.074l2.664,1.332h13.896c0.775,0,1.406-0.631,1.406-1.406s-0.631-1.406-1.406-1.406v-1.406
						c1.551,0,2.813,1.262,2.813,2.813S38.192,41.281,36.641,41.281z"/>
				</g>
				<g>
					<linearGradient id="SVGID_13_" gradientUnits="userSpaceOnUse" x1="4.6667" y1="34.25" x2="49.5693" y2="34.25">
						<stop  offset="0" style="stop-color:#3F53A0"/>
						<stop  offset="1" style="stop-color:#3FB7E2"/>
					</linearGradient>
					<path fill="url(#SVGID_13_)" d="M37.344,37.063h-1.406v-1.406h1.406c0.775,0,1.406-0.631,1.406-1.406s-0.631-1.406-1.406-1.406
						v-1.406c1.551,0,2.813,1.262,2.813,2.813S38.895,37.063,37.344,37.063z"/>
				</g>
			</g>
		</g>
		<g>
			<linearGradient id="SVGID_14_" gradientUnits="userSpaceOnUse" x1="4.6667" y1="9.9922" x2="49.5693" y2="9.9922">
				<stop  offset="0" style="stop-color:#3F53A0"/>
				<stop  offset="1" style="stop-color:#3FB7E2"/>
			</linearGradient>
			<path fill="url(#SVGID_14_)" d="M35.938,15.266c-0.125,0-0.25-0.033-0.362-0.1l-3.154-1.892l-3.154,1.892
				c-0.258,0.155-0.587,0.129-0.818-0.068c-0.23-0.196-0.309-0.516-0.197-0.797l1.206-3.015L27.078,9.5
				c-0.242-0.182-0.341-0.497-0.245-0.785c0.095-0.287,0.364-0.481,0.667-0.481h3.04l1.229-3.074
				c0.107-0.267,0.365-0.442,0.653-0.442s0.546,0.175,0.653,0.442l1.229,3.074h3.04c0.303,0,0.571,0.194,0.667,0.481
				c0.096,0.287-0.003,0.603-0.245,0.785l-2.381,1.786l1.206,3.015c0.112,0.28,0.033,0.601-0.197,0.797
				C36.263,15.209,36.101,15.266,35.938,15.266z M32.422,11.75c0.125,0,0.251,0.033,0.362,0.1l1.726,1.035l-0.631-1.578
				c-0.118-0.295-0.023-0.633,0.231-0.824l1.125-0.844h-1.406c-0.288,0-0.546-0.175-0.653-0.442l-0.753-1.884l-0.753,1.884
				c-0.107,0.267-0.365,0.442-0.653,0.442h-1.406l1.125,0.844c0.255,0.191,0.35,0.528,0.231,0.824l-0.631,1.578l1.726-1.035
				C32.171,11.783,32.297,11.75,32.422,11.75z"/>
		</g>
		<g>
			<linearGradient id="SVGID_15_" gradientUnits="userSpaceOnUse" x1="4.6667" y1="15.095" x2="49.5693" y2="15.095">
				<stop  offset="0" style="stop-color:#3F53A0"/>
				<stop  offset="1" style="stop-color:#3FB7E2"/>
			</linearGradient>
			<path fill="url(#SVGID_15_)" d="M37.947,23.362l-1.206-0.724c0.81-1.35,2.458-2.247,4.366-3.285
				c3.509-1.909,7.486-4.073,7.486-9.713V8.234h-1.406v1.406h-1.406V7.531c0-0.388,0.314-0.703,0.703-0.703h2.813
				C49.686,6.828,50,7.143,50,7.531v2.109c0,6.475-4.558,8.955-8.221,10.948C40.052,21.529,38.56,22.34,37.947,23.362z"/>
		</g>
		<g>
			<linearGradient id="SVGID_16_" gradientUnits="userSpaceOnUse" x1="4.6667" y1="15.095" x2="49.5693" y2="15.095">
				<stop  offset="0" style="stop-color:#3F53A0"/>
				<stop  offset="1" style="stop-color:#3FB7E2"/>
			</linearGradient>
			<path fill="url(#SVGID_16_)" d="M26.897,23.362c-0.613-1.022-2.105-1.833-3.833-2.773c-3.663-1.993-8.221-4.472-8.221-10.948
				V7.531c0-0.388,0.314-0.703,0.703-0.703h2.813c0.389,0,0.703,0.315,0.703,0.703v2.109h-1.406V8.234H16.25v1.406
				c0,5.639,3.977,7.803,7.486,9.713c1.908,1.038,3.556,1.935,4.366,3.285L26.897,23.362z"/>
		</g>
	</g>
</g>
</svg>
