<?xml version="1.0" encoding="utf-8"?>
<!-- Generator: Adobe Illustrator 17.0.0, SVG Export Plug-In . SVG Version: 6.00 Build 0)  -->
<!DOCTYPE svg PUBLIC "-//W3C//DTD SVG 1.1//EN" "http://www.w3.org/Graphics/SVG/1.1/DTD/svg11.dtd">
<svg version="1.1" id="Layer_1" xmlns="http://www.w3.org/2000/svg" xmlns:xlink="http://www.w3.org/1999/xlink" x="0px" y="0px"
	 width="93px" height="93px" viewBox="0 0 93 93" enable-background="new 0 0 93 93" xml:space="preserve">
<g>
	<g>
		<linearGradient id="SVGID_1_" gradientUnits="userSpaceOnUse" x1="0.75" y1="32.125" x2="92.5378" y2="32.125">
			<stop  offset="0" style="stop-color:#3F53A0"/>
			<stop  offset="1" style="stop-color:#3FB7E2"/>
		</linearGradient>
		<rect x="19.188" y="30.688" fill="url(#SVGID_1_)" width="2.875" height="2.875"/>
	</g>
	<g>
		<linearGradient id="SVGID_2_" gradientUnits="userSpaceOnUse" x1="0.75" y1="27.8125" x2="92.5378" y2="27.8125">
			<stop  offset="0" style="stop-color:#3F53A0"/>
			<stop  offset="1" style="stop-color:#3FB7E2"/>
		</linearGradient>
		<rect x="12" y="26.375" fill="url(#SVGID_2_)" width="2.875" height="2.875"/>
	</g>
	<g>
		<linearGradient id="SVGID_3_" gradientUnits="userSpaceOnUse" x1="0.75" y1="23.5" x2="92.5378" y2="23.5">
			<stop  offset="0" style="stop-color:#3F53A0"/>
			<stop  offset="1" style="stop-color:#3FB7E2"/>
		</linearGradient>
		<rect x="4.813" y="22.063" fill="url(#SVGID_3_)" width="2.875" height="2.875"/>
	</g>
	<g>
		<linearGradient id="SVGID_4_" gradientUnits="userSpaceOnUse" x1="0.75" y1="20.625" x2="92.5378" y2="20.625">
			<stop  offset="0" style="stop-color:#3F53A0"/>
			<stop  offset="1" style="stop-color:#3FB7E2"/>
		</linearGradient>
		<rect x="30.688" y="19.188" fill="url(#SVGID_4_)" width="2.875" height="2.875"/>
	</g>
	<g>
		<linearGradient id="SVGID_5_" gradientUnits="userSpaceOnUse" x1="0.75" y1="13.4375" x2="92.5378" y2="13.4375">
			<stop  offset="0" style="stop-color:#3F53A0"/>
			<stop  offset="1" style="stop-color:#3FB7E2"/>
		</linearGradient>
		<rect x="26.375" y="12" fill="url(#SVGID_5_)" width="2.875" height="2.875"/>
	</g>
	<g>
		<linearGradient id="SVGID_6_" gradientUnits="userSpaceOnUse" x1="0.75" y1="6.25" x2="92.5378" y2="6.25">
			<stop  offset="0" style="stop-color:#3F53A0"/>
			<stop  offset="1" style="stop-color:#3FB7E2"/>
		</linearGradient>
		<rect x="22.063" y="4.813" fill="url(#SVGID_6_)" width="2.875" height="2.875"/>
	</g>
	<g>
		<linearGradient id="SVGID_7_" gradientUnits="userSpaceOnUse" x1="0.75" y1="9.125" x2="92.5378" y2="9.125">
			<stop  offset="0" style="stop-color:#3F53A0"/>
			<stop  offset="1" style="stop-color:#3FB7E2"/>
		</linearGradient>
		<rect x="45.063" y="7.688" fill="url(#SVGID_7_)" width="2.875" height="2.875"/>
	</g>
	<g>
		<linearGradient id="SVGID_8_" gradientUnits="userSpaceOnUse" x1="0.75" y1="16.3125" x2="92.5378" y2="16.3125">
			<stop  offset="0" style="stop-color:#3F53A0"/>
			<stop  offset="1" style="stop-color:#3FB7E2"/>
		</linearGradient>
		<rect x="45.063" y="14.875" fill="url(#SVGID_8_)" width="2.875" height="2.875"/>
	</g>
	<g>
		<linearGradient id="SVGID_9_" gradientUnits="userSpaceOnUse" x1="0.75" y1="1.9375" x2="92.5378" y2="1.9375">
			<stop  offset="0" style="stop-color:#3F53A0"/>
			<stop  offset="1" style="stop-color:#3FB7E2"/>
		</linearGradient>
		<rect x="45.063" y="0.5" fill="url(#SVGID_9_)" width="2.875" height="2.875"/>
	</g>
	<g>
		<linearGradient id="SVGID_10_" gradientUnits="userSpaceOnUse" x1="0.75" y1="32.125" x2="92.5378" y2="32.125">
			<stop  offset="0" style="stop-color:#3F53A0"/>
			<stop  offset="1" style="stop-color:#3FB7E2"/>
		</linearGradient>
		<rect x="70.938" y="30.688" fill="url(#SVGID_10_)" width="2.875" height="2.875"/>
	</g>
	<g>
		<linearGradient id="SVGID_11_" gradientUnits="userSpaceOnUse" x1="0.75" y1="27.8125" x2="92.5378" y2="27.8125">
			<stop  offset="0" style="stop-color:#3F53A0"/>
			<stop  offset="1" style="stop-color:#3FB7E2"/>
		</linearGradient>
		<rect x="78.125" y="26.375" fill="url(#SVGID_11_)" width="2.875" height="2.875"/>
	</g>
	<g>
		<linearGradient id="SVGID_12_" gradientUnits="userSpaceOnUse" x1="0.75" y1="23.5" x2="92.5378" y2="23.5">
			<stop  offset="0" style="stop-color:#3F53A0"/>
			<stop  offset="1" style="stop-color:#3FB7E2"/>
		</linearGradient>
		<rect x="85.313" y="22.063" fill="url(#SVGID_12_)" width="2.875" height="2.875"/>
	</g>
	<g>
		<linearGradient id="SVGID_13_" gradientUnits="userSpaceOnUse" x1="0.75" y1="20.625" x2="92.5378" y2="20.625">
			<stop  offset="0" style="stop-color:#3F53A0"/>
			<stop  offset="1" style="stop-color:#3FB7E2"/>
		</linearGradient>
		<rect x="59.438" y="19.188" fill="url(#SVGID_13_)" width="2.875" height="2.875"/>
	</g>
	<g>
		<linearGradient id="SVGID_14_" gradientUnits="userSpaceOnUse" x1="0.75" y1="13.4375" x2="92.5378" y2="13.4375">
			<stop  offset="0" style="stop-color:#3F53A0"/>
			<stop  offset="1" style="stop-color:#3FB7E2"/>
		</linearGradient>
		<rect x="63.75" y="12" fill="url(#SVGID_14_)" width="2.875" height="2.875"/>
	</g>
	<g>
		<linearGradient id="SVGID_15_" gradientUnits="userSpaceOnUse" x1="0.75" y1="6.25" x2="92.5378" y2="6.25">
			<stop  offset="0" style="stop-color:#3F53A0"/>
			<stop  offset="1" style="stop-color:#3FB7E2"/>
		</linearGradient>
		<rect x="68.063" y="4.813" fill="url(#SVGID_15_)" width="2.875" height="2.875"/>
	</g>
	<g>
		<linearGradient id="SVGID_16_" gradientUnits="userSpaceOnUse" x1="0.75" y1="46.5" x2="92.5378" y2="46.5">
			<stop  offset="0" style="stop-color:#3F53A0"/>
			<stop  offset="1" style="stop-color:#3FB7E2"/>
		</linearGradient>
		<rect x="7.688" y="45.063" fill="url(#SVGID_16_)" width="2.875" height="2.875"/>
	</g>
	<g>
		<linearGradient id="SVGID_17_" gradientUnits="userSpaceOnUse" x1="0.75" y1="46.5" x2="92.5378" y2="46.5">
			<stop  offset="0" style="stop-color:#3F53A0"/>
			<stop  offset="1" style="stop-color:#3FB7E2"/>
		</linearGradient>
		<rect x="14.875" y="45.063" fill="url(#SVGID_17_)" width="2.875" height="2.875"/>
	</g>
	<g>
		<linearGradient id="SVGID_18_" gradientUnits="userSpaceOnUse" x1="0.75" y1="46.5" x2="92.5378" y2="46.5">
			<stop  offset="0" style="stop-color:#3F53A0"/>
			<stop  offset="1" style="stop-color:#3FB7E2"/>
		</linearGradient>
		<rect x="0.5" y="45.063" fill="url(#SVGID_18_)" width="2.875" height="2.875"/>
	</g>
	<g>
		<linearGradient id="SVGID_19_" gradientUnits="userSpaceOnUse" x1="0.75" y1="60.875" x2="92.5378" y2="60.875">
			<stop  offset="0" style="stop-color:#3F53A0"/>
			<stop  offset="1" style="stop-color:#3FB7E2"/>
		</linearGradient>
		<rect x="19.188" y="59.438" fill="url(#SVGID_19_)" width="2.875" height="2.875"/>
	</g>
	<g>
		<linearGradient id="SVGID_20_" gradientUnits="userSpaceOnUse" x1="0.75" y1="65.1875" x2="92.5378" y2="65.1875">
			<stop  offset="0" style="stop-color:#3F53A0"/>
			<stop  offset="1" style="stop-color:#3FB7E2"/>
		</linearGradient>
		<rect x="12" y="63.75" fill="url(#SVGID_20_)" width="2.875" height="2.875"/>
	</g>
	<g>
		<linearGradient id="SVGID_21_" gradientUnits="userSpaceOnUse" x1="0.75" y1="69.5" x2="92.5378" y2="69.5">
			<stop  offset="0" style="stop-color:#3F53A0"/>
			<stop  offset="1" style="stop-color:#3FB7E2"/>
		</linearGradient>
		<rect x="4.813" y="68.063" fill="url(#SVGID_21_)" width="2.875" height="2.875"/>
	</g>
	<g>
		<linearGradient id="SVGID_22_" gradientUnits="userSpaceOnUse" x1="0.75" y1="72.375" x2="92.5378" y2="72.375">
			<stop  offset="0" style="stop-color:#3F53A0"/>
			<stop  offset="1" style="stop-color:#3FB7E2"/>
		</linearGradient>
		<rect x="30.688" y="70.938" fill="url(#SVGID_22_)" width="2.875" height="2.875"/>
	</g>
	<g>
		<linearGradient id="SVGID_23_" gradientUnits="userSpaceOnUse" x1="0.75" y1="79.5625" x2="92.5378" y2="79.5625">
			<stop  offset="0" style="stop-color:#3F53A0"/>
			<stop  offset="1" style="stop-color:#3FB7E2"/>
		</linearGradient>
		<rect x="26.375" y="78.125" fill="url(#SVGID_23_)" width="2.875" height="2.875"/>
	</g>
	<g>
		<linearGradient id="SVGID_24_" gradientUnits="userSpaceOnUse" x1="0.75" y1="86.75" x2="92.5378" y2="86.75">
			<stop  offset="0" style="stop-color:#3F53A0"/>
			<stop  offset="1" style="stop-color:#3FB7E2"/>
		</linearGradient>
		<rect x="22.063" y="85.313" fill="url(#SVGID_24_)" width="2.875" height="2.875"/>
	</g>
	<g>
		<linearGradient id="SVGID_25_" gradientUnits="userSpaceOnUse" x1="0.75" y1="83.875" x2="92.5378" y2="83.875">
			<stop  offset="0" style="stop-color:#3F53A0"/>
			<stop  offset="1" style="stop-color:#3FB7E2"/>
		</linearGradient>
		<rect x="45.063" y="82.438" fill="url(#SVGID_25_)" width="2.875" height="2.875"/>
	</g>
	<g>
		<linearGradient id="SVGID_26_" gradientUnits="userSpaceOnUse" x1="0.75" y1="76.6875" x2="92.5378" y2="76.6875">
			<stop  offset="0" style="stop-color:#3F53A0"/>
			<stop  offset="1" style="stop-color:#3FB7E2"/>
		</linearGradient>
		<rect x="45.063" y="75.25" fill="url(#SVGID_26_)" width="2.875" height="2.875"/>
	</g>
	<g>
		<linearGradient id="SVGID_27_" gradientUnits="userSpaceOnUse" x1="0.75" y1="91.0625" x2="92.5378" y2="91.0625">
			<stop  offset="0" style="stop-color:#3F53A0"/>
			<stop  offset="1" style="stop-color:#3FB7E2"/>
		</linearGradient>
		<rect x="45.063" y="89.625" fill="url(#SVGID_27_)" width="2.875" height="2.875"/>
	</g>
	<g>
		<linearGradient id="SVGID_28_" gradientUnits="userSpaceOnUse" x1="0.75" y1="46.5" x2="92.5378" y2="46.5">
			<stop  offset="0" style="stop-color:#3F53A0"/>
			<stop  offset="1" style="stop-color:#3FB7E2"/>
		</linearGradient>
		<rect x="82.438" y="45.063" fill="url(#SVGID_28_)" width="2.875" height="2.875"/>
	</g>
	<g>
		<linearGradient id="SVGID_29_" gradientUnits="userSpaceOnUse" x1="0.75" y1="46.5" x2="92.5378" y2="46.5">
			<stop  offset="0" style="stop-color:#3F53A0"/>
			<stop  offset="1" style="stop-color:#3FB7E2"/>
		</linearGradient>
		<rect x="75.25" y="45.063" fill="url(#SVGID_29_)" width="2.875" height="2.875"/>
	</g>
	<g>
		<linearGradient id="SVGID_30_" gradientUnits="userSpaceOnUse" x1="0.75" y1="46.5" x2="92.5378" y2="46.5">
			<stop  offset="0" style="stop-color:#3F53A0"/>
			<stop  offset="1" style="stop-color:#3FB7E2"/>
		</linearGradient>
		<rect x="89.625" y="45.063" fill="url(#SVGID_30_)" width="2.875" height="2.875"/>
	</g>
	<g>
		<linearGradient id="SVGID_31_" gradientUnits="userSpaceOnUse" x1="0.75" y1="60.875" x2="92.5378" y2="60.875">
			<stop  offset="0" style="stop-color:#3F53A0"/>
			<stop  offset="1" style="stop-color:#3FB7E2"/>
		</linearGradient>
		<rect x="70.938" y="59.438" fill="url(#SVGID_31_)" width="2.875" height="2.875"/>
	</g>
	<g>
		<linearGradient id="SVGID_32_" gradientUnits="userSpaceOnUse" x1="0.75" y1="65.1875" x2="92.5378" y2="65.1875">
			<stop  offset="0" style="stop-color:#3F53A0"/>
			<stop  offset="1" style="stop-color:#3FB7E2"/>
		</linearGradient>
		<rect x="78.125" y="63.75" fill="url(#SVGID_32_)" width="2.875" height="2.875"/>
	</g>
	<g>
		<linearGradient id="SVGID_33_" gradientUnits="userSpaceOnUse" x1="0.75" y1="69.5" x2="92.5378" y2="69.5">
			<stop  offset="0" style="stop-color:#3F53A0"/>
			<stop  offset="1" style="stop-color:#3FB7E2"/>
		</linearGradient>
		<rect x="85.313" y="68.063" fill="url(#SVGID_33_)" width="2.875" height="2.875"/>
	</g>
	<g>
		<linearGradient id="SVGID_34_" gradientUnits="userSpaceOnUse" x1="0.75" y1="72.375" x2="92.5378" y2="72.375">
			<stop  offset="0" style="stop-color:#3F53A0"/>
			<stop  offset="1" style="stop-color:#3FB7E2"/>
		</linearGradient>
		<rect x="59.438" y="70.938" fill="url(#SVGID_34_)" width="2.875" height="2.875"/>
	</g>
	<g>
		<linearGradient id="SVGID_35_" gradientUnits="userSpaceOnUse" x1="0.75" y1="79.5625" x2="92.5378" y2="79.5625">
			<stop  offset="0" style="stop-color:#3F53A0"/>
			<stop  offset="1" style="stop-color:#3FB7E2"/>
		</linearGradient>
		<rect x="63.75" y="78.125" fill="url(#SVGID_35_)" width="2.875" height="2.875"/>
	</g>
	<g>
		<linearGradient id="SVGID_36_" gradientUnits="userSpaceOnUse" x1="0.75" y1="86.75" x2="92.5378" y2="86.75">
			<stop  offset="0" style="stop-color:#3F53A0"/>
			<stop  offset="1" style="stop-color:#3FB7E2"/>
		</linearGradient>
		<rect x="68.063" y="85.313" fill="url(#SVGID_36_)" width="2.875" height="2.875"/>
	</g>
	<g>
		<g>
			<linearGradient id="SVGID_37_" gradientUnits="userSpaceOnUse" x1="0.75" y1="39.4932" x2="92.5378" y2="39.4932">
				<stop  offset="0" style="stop-color:#3F53A0"/>
				<stop  offset="1" style="stop-color:#3FB7E2"/>
			</linearGradient>
			<path fill="url(#SVGID_37_)" d="M54.766,55.126h-2.156c0-2.851,1.498-4.736,3.083-6.731c1.925-2.421,4.105-5.165,4.105-10.519
				c0-6.539-5.965-11.859-13.297-11.859s-13.297,5.32-13.297,11.859c0,5.355,2.18,8.099,4.104,10.519
				c1.586,1.995,3.083,3.88,3.083,6.731h-2.156c0-2.099-1.154-3.552-2.615-5.389c-2.037-2.564-4.572-5.754-4.572-11.861
				c0-7.728,6.932-14.016,15.453-14.016s15.453,6.288,15.453,14.016c0,6.107-2.535,9.297-4.572,11.861
				C55.92,51.575,54.766,53.028,54.766,55.126z"/>
		</g>
		<g>
			<linearGradient id="SVGID_38_" gradientUnits="userSpaceOnUse" x1="0.75" y1="62.3125" x2="92.5378" y2="62.3125">
				<stop  offset="0" style="stop-color:#3F53A0"/>
				<stop  offset="1" style="stop-color:#3FB7E2"/>
			</linearGradient>
			<rect x="41.109" y="59.438" fill="url(#SVGID_38_)" width="2.156" height="5.75"/>
		</g>
		<g>
			<linearGradient id="SVGID_39_" gradientUnits="userSpaceOnUse" x1="0.75" y1="62.3125" x2="92.5378" y2="62.3125">
				<stop  offset="0" style="stop-color:#3F53A0"/>
				<stop  offset="1" style="stop-color:#3FB7E2"/>
			</linearGradient>
			<rect x="49.734" y="59.438" fill="url(#SVGID_39_)" width="2.156" height="5.75"/>
		</g>
		<g>
			<linearGradient id="SVGID_40_" gradientUnits="userSpaceOnUse" x1="0.75" y1="59.4375" x2="92.5378" y2="59.4375">
				<stop  offset="0" style="stop-color:#3F53A0"/>
				<stop  offset="1" style="stop-color:#3FB7E2"/>
			</linearGradient>
			<rect x="37.875" y="58.359" fill="url(#SVGID_40_)" width="17.25" height="2.156"/>
		</g>
		<g>
			<linearGradient id="SVGID_41_" gradientUnits="userSpaceOnUse" x1="0.75" y1="65.1875" x2="92.5378" y2="65.1875">
				<stop  offset="0" style="stop-color:#3F53A0"/>
				<stop  offset="1" style="stop-color:#3FB7E2"/>
			</linearGradient>
			<rect x="37.875" y="64.109" fill="url(#SVGID_41_)" width="17.25" height="2.156"/>
		</g>
		<g>
			<linearGradient id="SVGID_42_" gradientUnits="userSpaceOnUse" x1="0.75" y1="66.7829" x2="92.5378" y2="66.7829">
				<stop  offset="0" style="stop-color:#3F53A0"/>
				<stop  offset="1" style="stop-color:#3FB7E2"/>
			</linearGradient>
			<polygon fill="url(#SVGID_42_)" points="48.384,69.141 44.616,69.141 41.425,65.95 42.95,64.425 45.509,66.984 47.491,66.984 
				50.05,64.425 51.575,65.95 			"/>
		</g>
		<g>
			<linearGradient id="SVGID_43_" gradientUnits="userSpaceOnUse" x1="0.75" y1="48.6563" x2="92.5378" y2="48.6563">
				<stop  offset="0" style="stop-color:#3F53A0"/>
				<stop  offset="1" style="stop-color:#3FB7E2"/>
			</linearGradient>
			<rect x="45.422" y="39.313" fill="url(#SVGID_43_)" width="2.156" height="18.688"/>
		</g>
		<g>
			<linearGradient id="SVGID_44_" gradientUnits="userSpaceOnUse" x1="0.75" y1="39.3132" x2="92.5378" y2="39.3132">
				<stop  offset="0" style="stop-color:#3F53A0"/>
				<stop  offset="1" style="stop-color:#3FB7E2"/>
			</linearGradient>
			<path fill="url(#SVGID_44_)" d="M46.5,41.829c-1.387,0-2.516-1.129-2.516-2.516s1.129-2.516,2.516-2.516s2.516,1.129,2.516,2.516
				S47.887,41.829,46.5,41.829z M46.5,38.954c-0.198,0-0.359,0.161-0.359,0.359c0,0.396,0.719,0.396,0.719,0
				C46.859,39.115,46.698,38.954,46.5,38.954z"/>
		</g>
		<g>
			<linearGradient id="SVGID_45_" gradientUnits="userSpaceOnUse" x1="0.75" y1="39.3129" x2="92.5378" y2="39.3129">
				<stop  offset="0" style="stop-color:#3F53A0"/>
				<stop  offset="1" style="stop-color:#3FB7E2"/>
			</linearGradient>
			<path fill="url(#SVGID_45_)" d="M46.5,47.578c-4.557,0-8.266-3.707-8.266-8.265s3.708-8.266,8.266-8.266
				c4.558,0,8.266,3.708,8.266,8.266S51.058,47.578,46.5,47.578z M46.5,33.204c-3.368,0-6.109,2.741-6.109,6.109
				s2.741,6.109,6.109,6.109c3.369,0,6.109-2.741,6.109-6.109S49.869,33.204,46.5,33.204z"/>
		</g>
	</g>
</g>
</svg>
