<?xml version="1.0" encoding="utf-8"?>
<!-- Generator: Adobe Illustrator 17.0.0, SVG Export Plug-In . SVG Version: 6.00 Build 0)  -->
<!DOCTYPE svg PUBLIC "-//W3C//DTD SVG 1.1//EN" "http://www.w3.org/Graphics/SVG/1.1/DTD/svg11.dtd">
<svg version="1.1" id="Layer_1" xmlns="http://www.w3.org/2000/svg" xmlns:xlink="http://www.w3.org/1999/xlink" x="0px" y="0px"
	 width="93px" height="93px" viewBox="0 0 93 93" enable-background="new 0 0 93 93" xml:space="preserve">
<g>
	<g>
		<g>
			<g>
				<linearGradient id="SVGID_1_" gradientUnits="userSpaceOnUse" x1="3.5" y1="24.5272" x2="89.3185" y2="24.5272">
					<stop  offset="0" style="stop-color:#3F53A0"/>
					<stop  offset="1" style="stop-color:#3FB7E2"/>
				</linearGradient>
				<path fill="url(#SVGID_1_)" d="M72.418,34.179C67.689,24.199,57.515,17.75,46.5,17.75s-21.189,6.449-25.918,16.429l-2.591-1.234
					C23.193,21.968,34.383,14.875,46.5,14.875s23.307,7.093,28.509,18.071L72.418,34.179z"/>
			</g>
			<g>
				<linearGradient id="SVGID_2_" gradientUnits="userSpaceOnUse" x1="3.5" y1="68.4731" x2="89.3185" y2="68.4731">
					<stop  offset="0" style="stop-color:#3F53A0"/>
					<stop  offset="1" style="stop-color:#3FB7E2"/>
				</linearGradient>
				<path fill="url(#SVGID_2_)" d="M46.5,78.125c-12.113,0-23.303-7.091-28.507-18.064l2.591-1.235
					C25.315,68.804,35.487,75.25,46.5,75.25c11.015,0,21.189-6.449,25.918-16.429l2.591,1.233
					C69.807,71.032,58.617,78.125,46.5,78.125z"/>
			</g>
			<g>
				<linearGradient id="SVGID_3_" gradientUnits="userSpaceOnUse" x1="3.5" y1="42.7669" x2="89.3185" y2="42.7669">
					<stop  offset="0" style="stop-color:#3F53A0"/>
					<stop  offset="1" style="stop-color:#3FB7E2"/>
				</linearGradient>
				<path fill="url(#SVGID_3_)" d="M70.263,80.714l-1.641-2.358c10.39-7.265,16.594-19.173,16.594-31.855
					c0-20.032-14.86-36.721-34.565-38.82l0.302-2.86c21.168,2.256,37.13,20.174,37.13,41.68
					C88.083,60.121,81.421,72.911,70.263,80.714z"/>
			</g>
			<g>
				<linearGradient id="SVGID_4_" gradientUnits="userSpaceOnUse" x1="3.5" y1="50.232" x2="89.3185" y2="50.232">
					<stop  offset="0" style="stop-color:#3F53A0"/>
					<stop  offset="1" style="stop-color:#3FB7E2"/>
				</linearGradient>
				<path fill="url(#SVGID_4_)" d="M42.047,88.179C20.879,85.923,4.917,68.005,4.917,46.5c0-13.622,6.662-26.412,17.82-34.215
					l1.641,2.358C13.988,21.909,7.785,33.817,7.785,46.5c0,20.031,14.86,36.721,34.565,38.821L42.047,88.179z"/>
			</g>
			<g>
				<linearGradient id="SVGID_5_" gradientUnits="userSpaceOnUse" x1="3.5" y1="6.25" x2="89.3185" y2="6.25">
					<stop  offset="0" style="stop-color:#3F53A0"/>
					<stop  offset="1" style="stop-color:#3FB7E2"/>
				</linearGradient>
				<path fill="url(#SVGID_5_)" d="M46.5,12c-3.163,0-5.736-2.579-5.736-5.75S43.337,0.5,46.5,0.5s5.736,2.579,5.736,5.75
					S49.663,12,46.5,12z M46.5,3.375c-1.582,0-2.868,1.289-2.868,2.875s1.286,2.875,2.868,2.875s2.868-1.289,2.868-2.875
					S48.082,3.375,46.5,3.375z"/>
			</g>
			<g>
				<linearGradient id="SVGID_6_" gradientUnits="userSpaceOnUse" x1="3.5" y1="86.75" x2="89.3185" y2="86.75">
					<stop  offset="0" style="stop-color:#3F53A0"/>
					<stop  offset="1" style="stop-color:#3FB7E2"/>
				</linearGradient>
				<path fill="url(#SVGID_6_)" d="M46.5,92.5c-3.163,0-5.736-2.579-5.736-5.75S43.337,81,46.5,81s5.736,2.579,5.736,5.75
					S49.663,92.5,46.5,92.5z M46.5,83.875c-1.582,0-2.868,1.29-2.868,2.875s1.286,2.875,2.868,2.875s2.868-1.29,2.868-2.875
					S48.082,83.875,46.5,83.875z"/>
			</g>
			<g>
				<linearGradient id="SVGID_7_" gradientUnits="userSpaceOnUse" x1="3.5" y1="46.5" x2="89.3185" y2="46.5">
					<stop  offset="0" style="stop-color:#3F53A0"/>
					<stop  offset="1" style="stop-color:#3FB7E2"/>
				</linearGradient>
				<rect x="20.69" y="45.063" fill="url(#SVGID_7_)" width="51.621" height="2.875"/>
			</g>
			<g>
				<linearGradient id="SVGID_8_" gradientUnits="userSpaceOnUse" x1="3.5" y1="28.0354" x2="89.3185" y2="28.0354">
					<stop  offset="0" style="stop-color:#3F53A0"/>
					<stop  offset="1" style="stop-color:#3FB7E2"/>
				</linearGradient>
				<path fill="url(#SVGID_8_)" d="M46.5,32.125c-8.741,0-16.874-2.113-22.312-5.797l1.606-2.382
					C30.77,27.317,38.317,29.25,46.5,29.25s15.73-1.933,20.706-5.304l1.606,2.382C63.374,30.012,55.241,32.125,46.5,32.125z"/>
			</g>
			<g>
				<linearGradient id="SVGID_9_" gradientUnits="userSpaceOnUse" x1="3.5" y1="64.9643" x2="89.3185" y2="64.9643">
					<stop  offset="0" style="stop-color:#3F53A0"/>
					<stop  offset="1" style="stop-color:#3FB7E2"/>
				</linearGradient>
				<path fill="url(#SVGID_9_)" d="M67.206,69.054C62.23,65.683,54.683,63.75,46.5,63.75s-15.73,1.933-20.706,5.304l-1.606-2.381
					c5.438-3.685,13.57-5.798,22.312-5.798s16.874,2.113,22.312,5.798L67.206,69.054z"/>
			</g>
			<g>
				<g>
					<linearGradient id="SVGID_10_" gradientUnits="userSpaceOnUse" x1="3.5" y1="46.5" x2="89.3185" y2="46.5">
						<stop  offset="0" style="stop-color:#3F53A0"/>
						<stop  offset="1" style="stop-color:#3FB7E2"/>
					</linearGradient>
					<path fill="url(#SVGID_10_)" d="M16.388,52.25c-3.163,0-5.736-2.579-5.736-5.75s2.573-5.75,5.736-5.75s5.736,2.579,5.736,5.75
						S19.551,52.25,16.388,52.25z M16.388,43.625c-1.582,0-2.868,1.29-2.868,2.875s1.286,2.875,2.868,2.875s2.868-1.29,2.868-2.875
						S17.97,43.625,16.388,43.625z"/>
				</g>
			</g>
			<g>
				<g>
					<linearGradient id="SVGID_11_" gradientUnits="userSpaceOnUse" x1="3.5" y1="46.5" x2="89.3185" y2="46.5">
						<stop  offset="0" style="stop-color:#3F53A0"/>
						<stop  offset="1" style="stop-color:#3FB7E2"/>
					</linearGradient>
					<path fill="url(#SVGID_11_)" d="M76.612,52.25c-3.163,0-5.736-2.579-5.736-5.75s2.573-5.75,5.736-5.75s5.736,2.579,5.736,5.75
						S79.775,52.25,76.612,52.25z M76.612,43.625c-1.582,0-2.868,1.29-2.868,2.875s1.286,2.875,2.868,2.875s2.868-1.29,2.868-2.875
						S78.194,43.625,76.612,43.625z"/>
				</g>
			</g>
			<g>
				<linearGradient id="SVGID_12_" gradientUnits="userSpaceOnUse" x1="3.5" y1="46.5" x2="89.3185" y2="46.5">
					<stop  offset="0" style="stop-color:#3F53A0"/>
					<stop  offset="1" style="stop-color:#3FB7E2"/>
				</linearGradient>
				<path fill="url(#SVGID_12_)" d="M46.5,78.125c-7.451,0-11.471-16.294-11.471-31.625s4.02-31.625,11.471-31.625
					S57.971,31.169,57.971,46.5S53.951,78.125,46.5,78.125z M46.5,17.75c-4.062,0-8.603,12.295-8.603,28.75
					c0,16.455,4.542,28.75,8.603,28.75s8.603-12.295,8.603-28.75C55.103,30.045,50.562,17.75,46.5,17.75z"/>
			</g>
		</g>
	</g>
</g>
</svg>
