<?xml version="1.0" encoding="utf-8"?>
<!-- Generator: Adobe Illustrator 17.0.0, SVG Export Plug-In . SVG Version: 6.00 Build 0)  -->
<!DOCTYPE svg PUBLIC "-//W3C//DTD SVG 1.1//EN" "http://www.w3.org/Graphics/SVG/1.1/DTD/svg11.dtd">
<svg version="1.1" id="Layer_1" xmlns="http://www.w3.org/2000/svg" xmlns:xlink="http://www.w3.org/1999/xlink" x="0px" y="0px"
	 width="93px" height="93px" viewBox="0 0 93 93" enable-background="new 0 0 93 93" xml:space="preserve">
<g>
	<g>
		<g>
			<linearGradient id="SVGID_1_" gradientUnits="userSpaceOnUse" x1="26.4844" y1="70.9375" x2="29.3438" y2="70.9375">
				<stop  offset="0" style="stop-color:#3F53A0"/>
				<stop  offset="1" style="stop-color:#3FB7E2"/>
			</linearGradient>
			<rect x="26.484" y="69.5" fill="url(#SVGID_1_)" width="2.859" height="2.875"/>
		</g>
		<g>
			<linearGradient id="SVGID_2_" gradientUnits="userSpaceOnUse" x1="27.9141" y1="78.125" x2="27.9141" y2="78.125">
				<stop  offset="0" style="stop-color:#3F53A0"/>
				<stop  offset="1" style="stop-color:#3FB7E2"/>
			</linearGradient>
			<path fill="url(#SVGID_2_)" d="M27.914,78.125"/>
		</g>
		<g>
			<linearGradient id="SVGID_3_" gradientUnits="userSpaceOnUse" x1="17.9063" y1="83.875" x2="20.7656" y2="83.875">
				<stop  offset="0" style="stop-color:#3F53A0"/>
				<stop  offset="1" style="stop-color:#3FB7E2"/>
			</linearGradient>
			<rect x="17.906" y="75.25" fill="url(#SVGID_3_)" width="2.859" height="17.25"/>
		</g>
		<g>
			<linearGradient id="SVGID_4_" gradientUnits="userSpaceOnUse" x1="12.1875" y1="78.125" x2="43.6406" y2="78.125">
				<stop  offset="0" style="stop-color:#3F53A0"/>
				<stop  offset="1" style="stop-color:#3FB7E2"/>
			</linearGradient>
			<path fill="url(#SVGID_4_)" d="M43.641,92.5h-2.859V70.938c0-2.378-1.924-4.313-4.289-4.313H19.336
				c-2.365,0-4.289,1.934-4.289,4.313V92.5h-2.859V70.938c0-3.963,3.207-7.188,7.148-7.188h17.156c3.941,0,7.148,3.225,7.148,7.188
				V92.5z"/>
		</g>
		<g>
			<linearGradient id="SVGID_5_" gradientUnits="userSpaceOnUse" x1="35.0625" y1="83.875" x2="37.9219" y2="83.875">
				<stop  offset="0" style="stop-color:#3F53A0"/>
				<stop  offset="1" style="stop-color:#3FB7E2"/>
			</linearGradient>
			<rect x="35.063" y="75.25" fill="url(#SVGID_5_)" width="2.859" height="17.25"/>
		</g>
		<g>
			<linearGradient id="SVGID_6_" gradientUnits="userSpaceOnUse" x1="20.7656" y1="53.6875" x2="35.0625" y2="53.6875">
				<stop  offset="0" style="stop-color:#3F53A0"/>
				<stop  offset="1" style="stop-color:#3FB7E2"/>
			</linearGradient>
			<path fill="url(#SVGID_6_)" d="M27.914,60.875c-3.941,0-7.148-3.225-7.148-7.188s3.207-7.188,7.148-7.188
				s7.148,3.225,7.148,7.188S31.855,60.875,27.914,60.875z M27.914,49.375c-2.365,0-4.289,1.934-4.289,4.313S25.549,58,27.914,58
				s4.289-1.934,4.289-4.313S30.279,49.375,27.914,49.375z"/>
		</g>
	</g>
	<g>
		<g>
			<linearGradient id="SVGID_7_" gradientUnits="userSpaceOnUse" x1="63.6563" y1="70.9375" x2="66.5156" y2="70.9375">
				<stop  offset="0" style="stop-color:#3F53A0"/>
				<stop  offset="1" style="stop-color:#3FB7E2"/>
			</linearGradient>
			<rect x="63.656" y="69.5" fill="url(#SVGID_7_)" width="2.859" height="2.875"/>
		</g>
		<g>
			<linearGradient id="SVGID_8_" gradientUnits="userSpaceOnUse" x1="55.0781" y1="83.875" x2="57.9375" y2="83.875">
				<stop  offset="0" style="stop-color:#3F53A0"/>
				<stop  offset="1" style="stop-color:#3FB7E2"/>
			</linearGradient>
			<rect x="55.078" y="75.25" fill="url(#SVGID_8_)" width="2.859" height="17.25"/>
		</g>
		<g>
			<linearGradient id="SVGID_9_" gradientUnits="userSpaceOnUse" x1="49.3594" y1="78.125" x2="80.8125" y2="78.125">
				<stop  offset="0" style="stop-color:#3F53A0"/>
				<stop  offset="1" style="stop-color:#3FB7E2"/>
			</linearGradient>
			<path fill="url(#SVGID_9_)" d="M80.813,92.5h-2.859V70.938c0-2.378-1.924-4.313-4.289-4.313H56.508
				c-2.365,0-4.289,1.934-4.289,4.313V92.5h-2.859V70.938c0-3.963,3.207-7.188,7.148-7.188h17.156c3.941,0,7.148,3.225,7.148,7.188
				V92.5z"/>
		</g>
		<g>
			<linearGradient id="SVGID_10_" gradientUnits="userSpaceOnUse" x1="72.2344" y1="83.875" x2="75.0938" y2="83.875">
				<stop  offset="0" style="stop-color:#3F53A0"/>
				<stop  offset="1" style="stop-color:#3FB7E2"/>
			</linearGradient>
			<rect x="72.234" y="75.25" fill="url(#SVGID_10_)" width="2.859" height="17.25"/>
		</g>
		<g>
			<linearGradient id="SVGID_11_" gradientUnits="userSpaceOnUse" x1="57.9375" y1="53.6875" x2="72.2344" y2="53.6875">
				<stop  offset="0" style="stop-color:#3F53A0"/>
				<stop  offset="1" style="stop-color:#3FB7E2"/>
			</linearGradient>
			<path fill="url(#SVGID_11_)" d="M65.086,60.875c-3.941,0-7.148-3.225-7.148-7.188s3.207-7.188,7.148-7.188
				s7.148,3.225,7.148,7.188S69.027,60.875,65.086,60.875z M65.086,49.375c-2.365,0-4.289,1.934-4.289,4.313S62.721,58,65.086,58
				s4.289-1.934,4.289-4.313S67.451,49.375,65.086,49.375z"/>
		</g>
	</g>
	<g>
		<linearGradient id="SVGID_12_" gradientUnits="userSpaceOnUse" x1="37.9219" y1="20.625" x2="55.0781" y2="20.625">
			<stop  offset="0" style="stop-color:#3F53A0"/>
			<stop  offset="1" style="stop-color:#3FB7E2"/>
		</linearGradient>
		<path fill="url(#SVGID_12_)" d="M55.078,40.75h-2.859c0-28.517-4.192-37.375-5.719-37.375s-5.719,8.858-5.719,37.375h-2.859
			c0-9.442,0.619-40.25,8.578-40.25S55.078,31.308,55.078,40.75z"/>
	</g>
	<g>
		<linearGradient id="SVGID_13_" gradientUnits="userSpaceOnUse" x1="23.625" y1="20.625" x2="69.375" y2="20.625">
			<stop  offset="0" style="stop-color:#3F53A0"/>
			<stop  offset="1" style="stop-color:#3FB7E2"/>
		</linearGradient>
		<path fill="url(#SVGID_13_)" d="M69.375,40.75h-2.859c0-22.006-8.23-37.375-20.016-37.375S26.484,18.744,26.484,40.75h-2.859
			c0-24.075,9.192-40.25,22.875-40.25S69.375,16.675,69.375,40.75z"/>
	</g>
	<g>
		<linearGradient id="SVGID_14_" gradientUnits="userSpaceOnUse" x1="9.3281" y1="36.4375" x2="26.4844" y2="36.4375">
			<stop  offset="0" style="stop-color:#3F53A0"/>
			<stop  offset="1" style="stop-color:#3FB7E2"/>
		</linearGradient>
		<path fill="url(#SVGID_14_)" d="M26.484,40.75h-2.859c0-3.171-2.565-5.75-5.719-5.75s-5.719,2.579-5.719,5.75H9.328
			c0-4.756,3.848-8.625,8.578-8.625S26.484,35.994,26.484,40.75z"/>
	</g>
	<g>
		<linearGradient id="SVGID_15_" gradientUnits="userSpaceOnUse" x1="23.625" y1="36.4375" x2="40.7813" y2="36.4375">
			<stop  offset="0" style="stop-color:#3F53A0"/>
			<stop  offset="1" style="stop-color:#3FB7E2"/>
		</linearGradient>
		<path fill="url(#SVGID_15_)" d="M40.781,40.75h-2.859c0-3.171-2.565-5.75-5.719-5.75s-5.719,2.579-5.719,5.75h-2.859
			c0-4.756,3.848-8.625,8.578-8.625S40.781,35.994,40.781,40.75z"/>
	</g>
	<g>
		<linearGradient id="SVGID_16_" gradientUnits="userSpaceOnUse" x1="37.9219" y1="36.4375" x2="55.0781" y2="36.4375">
			<stop  offset="0" style="stop-color:#3F53A0"/>
			<stop  offset="1" style="stop-color:#3FB7E2"/>
		</linearGradient>
		<path fill="url(#SVGID_16_)" d="M55.078,40.75h-2.859c0-3.171-2.565-5.75-5.719-5.75s-5.719,2.579-5.719,5.75h-2.859
			c0-4.756,3.848-8.625,8.578-8.625S55.078,35.994,55.078,40.75z"/>
	</g>
	<g>
		<linearGradient id="SVGID_17_" gradientUnits="userSpaceOnUse" x1="52.2188" y1="36.4375" x2="69.375" y2="36.4375">
			<stop  offset="0" style="stop-color:#3F53A0"/>
			<stop  offset="1" style="stop-color:#3FB7E2"/>
		</linearGradient>
		<path fill="url(#SVGID_17_)" d="M69.375,40.75h-2.859c0-3.171-2.565-5.75-5.719-5.75s-5.719,2.579-5.719,5.75h-2.859
			c0-4.756,3.848-8.625,8.578-8.625S69.375,35.994,69.375,40.75z"/>
	</g>
	<g>
		<linearGradient id="SVGID_18_" gradientUnits="userSpaceOnUse" x1="66.5156" y1="36.4375" x2="83.6719" y2="36.4375">
			<stop  offset="0" style="stop-color:#3F53A0"/>
			<stop  offset="1" style="stop-color:#3FB7E2"/>
		</linearGradient>
		<path fill="url(#SVGID_18_)" d="M83.672,40.75h-2.859c0-3.171-2.565-5.75-5.719-5.75s-5.719,2.579-5.719,5.75h-2.859
			c0-4.756,3.848-8.625,8.578-8.625S83.672,35.994,83.672,40.75z"/>
	</g>
	<g>
		<linearGradient id="SVGID_19_" gradientUnits="userSpaceOnUse" x1="9.3281" y1="20.625" x2="83.6719" y2="20.625">
			<stop  offset="0" style="stop-color:#3F53A0"/>
			<stop  offset="1" style="stop-color:#3FB7E2"/>
		</linearGradient>
		<path fill="url(#SVGID_19_)" d="M83.672,40.75h-2.859c0-22.355-13.789-37.375-34.313-37.375S12.188,18.395,12.188,40.75H9.328
			C9.328,17.052,24.613,0.5,46.5,0.5S83.672,17.052,83.672,40.75z"/>
	</g>
	<g>
		<linearGradient id="SVGID_20_" gradientUnits="userSpaceOnUse" x1="9.3281" y1="45.0625" x2="12.1875" y2="45.0625">
			<stop  offset="0" style="stop-color:#3F53A0"/>
			<stop  offset="1" style="stop-color:#3FB7E2"/>
		</linearGradient>
		<rect x="9.328" y="43.625" fill="url(#SVGID_20_)" width="2.859" height="2.875"/>
	</g>
	<g>
		<linearGradient id="SVGID_21_" gradientUnits="userSpaceOnUse" x1="9.3281" y1="50.8125" x2="12.1875" y2="50.8125">
			<stop  offset="0" style="stop-color:#3F53A0"/>
			<stop  offset="1" style="stop-color:#3FB7E2"/>
		</linearGradient>
		<rect x="9.328" y="49.375" fill="url(#SVGID_21_)" width="2.859" height="2.875"/>
	</g>
	<g>
		<linearGradient id="SVGID_22_" gradientUnits="userSpaceOnUse" x1="80.8125" y1="45.0625" x2="83.6719" y2="45.0625">
			<stop  offset="0" style="stop-color:#3F53A0"/>
			<stop  offset="1" style="stop-color:#3FB7E2"/>
		</linearGradient>
		<rect x="80.813" y="43.625" fill="url(#SVGID_22_)" width="2.859" height="2.875"/>
	</g>
	<g>
		<linearGradient id="SVGID_23_" gradientUnits="userSpaceOnUse" x1="80.8125" y1="50.8125" x2="83.6719" y2="50.8125">
			<stop  offset="0" style="stop-color:#3F53A0"/>
			<stop  offset="1" style="stop-color:#3FB7E2"/>
		</linearGradient>
		<rect x="80.813" y="49.375" fill="url(#SVGID_23_)" width="2.859" height="2.875"/>
	</g>
</g>
</svg>
