<?xml version="1.0" encoding="utf-8"?>
<!-- Generator: Adobe Illustrator 17.0.0, SVG Export Plug-In . SVG Version: 6.00 Build 0)  -->
<!DOCTYPE svg PUBLIC "-//W3C//DTD SVG 1.1//EN" "http://www.w3.org/Graphics/SVG/1.1/DTD/svg11.dtd">
<svg version="1.1" id="Layer_1" xmlns="http://www.w3.org/2000/svg" xmlns:xlink="http://www.w3.org/1999/xlink" x="0px" y="0px"
	 width="93px" height="93px" viewBox="0 0 93 93" enable-background="new 0 0 93 93" xml:space="preserve">
<g>
	<g>
		<linearGradient id="SVGID_1_" gradientUnits="userSpaceOnUse" x1="1" y1="77.0146" x2="92.4638" y2="77.0146">
			<stop  offset="0" style="stop-color:#3F53A0"/>
			<stop  offset="1" style="stop-color:#3FB7E2"/>
		</linearGradient>
		<path fill="url(#SVGID_1_)" d="M46.5,92.5c-0.486,0-0.94-0.246-1.205-0.654l-18.688-28.75l2.41-1.567L46.5,88.425l17.482-26.896
			l2.41,1.567l-18.688,28.75C47.44,92.254,46.986,92.5,46.5,92.5z"/>
	</g>
	<g>
		<g>
			<linearGradient id="SVGID_2_" gradientUnits="userSpaceOnUse" x1="1" y1="35" x2="92.4638" y2="35">
				<stop  offset="0" style="stop-color:#3F53A0"/>
				<stop  offset="1" style="stop-color:#3FB7E2"/>
			</linearGradient>
			<path fill="url(#SVGID_2_)" d="M46.5,63.75c-15.853,0-28.75-12.897-28.75-28.75c0-15.853,12.897-28.75,28.75-28.75
				S75.25,19.147,75.25,35C75.25,50.853,62.353,63.75,46.5,63.75z M46.5,9.125C32.232,9.125,20.625,20.732,20.625,35
				c0,14.267,11.607,25.875,25.875,25.875S72.375,49.267,72.375,35C72.375,20.732,60.768,9.125,46.5,9.125z"/>
		</g>
		<g>
			<linearGradient id="SVGID_3_" gradientUnits="userSpaceOnUse" x1="1" y1="35" x2="92.4638" y2="35">
				<stop  offset="0" style="stop-color:#3F53A0"/>
				<stop  offset="1" style="stop-color:#3FB7E2"/>
			</linearGradient>
			<path fill="url(#SVGID_3_)" d="M46.5,63.75c-11.097,0-20.125-12.897-20.125-28.75c0-15.853,9.028-28.75,20.125-28.75
				S66.625,19.147,66.625,35C66.625,50.853,57.597,63.75,46.5,63.75z M46.5,9.125c-9.512,0-17.25,11.607-17.25,25.875
				c0,14.267,7.738,25.875,17.25,25.875S63.75,49.267,63.75,35C63.75,20.732,56.012,9.125,46.5,9.125z"/>
		</g>
		<g>
			<linearGradient id="SVGID_4_" gradientUnits="userSpaceOnUse" x1="1" y1="35" x2="92.4638" y2="35">
				<stop  offset="0" style="stop-color:#3F53A0"/>
				<stop  offset="1" style="stop-color:#3FB7E2"/>
			</linearGradient>
			<path fill="url(#SVGID_4_)" d="M46.5,63.75C39.03,63.75,35,48.937,35,35S39.03,6.25,46.5,6.25S58,21.063,58,35
				S53.97,63.75,46.5,63.75z M46.5,9.125c-4.079,0-8.625,10.626-8.625,25.875c0,15.248,4.546,25.875,8.625,25.875
				S55.125,50.248,55.125,35C55.125,19.751,50.579,9.125,46.5,9.125z"/>
		</g>
		<g>
			<linearGradient id="SVGID_5_" gradientUnits="userSpaceOnUse" x1="1" y1="35" x2="92.4638" y2="35">
				<stop  offset="0" style="stop-color:#3F53A0"/>
				<stop  offset="1" style="stop-color:#3FB7E2"/>
			</linearGradient>
			<rect x="45.063" y="7.688" fill="url(#SVGID_5_)" width="2.875" height="54.625"/>
		</g>
		<g>
			<linearGradient id="SVGID_6_" gradientUnits="userSpaceOnUse" x1="1" y1="17.75" x2="92.4638" y2="17.75">
				<stop  offset="0" style="stop-color:#3F53A0"/>
				<stop  offset="1" style="stop-color:#3FB7E2"/>
			</linearGradient>
			<rect x="26.375" y="16.313" fill="url(#SVGID_6_)" width="40.25" height="2.875"/>
		</g>
		<g>
			<linearGradient id="SVGID_7_" gradientUnits="userSpaceOnUse" x1="1" y1="52.25" x2="92.4638" y2="52.25">
				<stop  offset="0" style="stop-color:#3F53A0"/>
				<stop  offset="1" style="stop-color:#3FB7E2"/>
			</linearGradient>
			<rect x="24.938" y="50.813" fill="url(#SVGID_7_)" width="43.125" height="2.875"/>
		</g>
		<g>
			<linearGradient id="SVGID_8_" gradientUnits="userSpaceOnUse" x1="1" y1="35" x2="92.4638" y2="35">
				<stop  offset="0" style="stop-color:#3F53A0"/>
				<stop  offset="1" style="stop-color:#3FB7E2"/>
			</linearGradient>
			<rect x="19.188" y="33.563" fill="url(#SVGID_8_)" width="54.625" height="2.875"/>
		</g>
	</g>
	<g>
		<linearGradient id="SVGID_9_" gradientUnits="userSpaceOnUse" x1="1" y1="91.0625" x2="92.4638" y2="91.0625">
			<stop  offset="0" style="stop-color:#3F53A0"/>
			<stop  offset="1" style="stop-color:#3FB7E2"/>
		</linearGradient>
		<rect x="0.5" y="89.625" fill="url(#SVGID_9_)" width="92" height="2.875"/>
	</g>
	<g>
		<linearGradient id="SVGID_10_" gradientUnits="userSpaceOnUse" x1="1" y1="34.4125" x2="92.4638" y2="34.4125">
			<stop  offset="0" style="stop-color:#3F53A0"/>
			<stop  offset="1" style="stop-color:#3FB7E2"/>
		</linearGradient>
		<path fill="url(#SVGID_10_)" d="M55.458,68.325l-0.744-2.777C68.498,61.852,78.125,49.289,78.125,35
			c0-17.438-14.187-31.625-31.625-31.625S14.875,17.562,14.875,35c0,14.216,9.565,26.762,23.26,30.508l-0.758,2.774
			C22.435,64.195,12,50.509,12,35C12,15.977,27.477,0.5,46.5,0.5S81,15.977,81,35C81,50.588,70.497,64.292,55.458,68.325z"/>
	</g>
</g>
</svg>
