<?xml version="1.0" encoding="utf-8"?>
<!-- Generator: Adobe Illustrator 17.0.0, SVG Export Plug-In . SVG Version: 6.00 Build 0)  -->
<!DOCTYPE svg PUBLIC "-//W3C//DTD SVG 1.1//EN" "http://www.w3.org/Graphics/SVG/1.1/DTD/svg11.dtd">
<svg version="1.1" id="Layer_1" xmlns="http://www.w3.org/2000/svg" xmlns:xlink="http://www.w3.org/1999/xlink" x="0px" y="0px"
	 width="55px" height="46px" viewBox="0 0 55 46" enable-background="new 0 0 55 46" xml:space="preserve">
<g>
	<g>
		<g>
			<g>
				<g>
					<linearGradient id="SVGID_1_" gradientUnits="userSpaceOnUse" x1="5.5" y1="20.2905" x2="49.8061" y2="20.2905">
						<stop  offset="0" style="stop-color:#3F53A0"/>
						<stop  offset="1" style="stop-color:#3FB7E2"/>
					</linearGradient>
					<path fill="url(#SVGID_1_)" d="M13.438,22.297c-0.18,0-0.36-0.069-0.497-0.206l-2.813-2.813l0.994-0.994l2.315,2.315
						l2.315-2.315l0.994,0.994l-2.813,2.813C13.797,22.228,13.617,22.297,13.438,22.297z"/>
				</g>
				<g>
					<linearGradient id="SVGID_2_" gradientUnits="userSpaceOnUse" x1="5.5" y1="14.5625" x2="49.8061" y2="14.5625">
						<stop  offset="0" style="stop-color:#3F53A0"/>
						<stop  offset="1" style="stop-color:#3FB7E2"/>
					</linearGradient>
					<path fill="url(#SVGID_2_)" d="M14.141,21.594h-1.406v-8.438c0-3.102,2.523-5.625,5.625-5.625h13.359v1.406H18.359
						c-2.326,0-4.219,1.892-4.219,4.219V21.594z"/>
				</g>
			</g>
			<g>
				<g>
					<linearGradient id="SVGID_3_" gradientUnits="userSpaceOnUse" x1="5.5" y1="24.3033" x2="49.8061" y2="24.3033">
						<stop  offset="0" style="stop-color:#3F53A0"/>
						<stop  offset="1" style="stop-color:#3FB7E2"/>
					</linearGradient>
					<path fill="url(#SVGID_3_)" d="M43.878,26.31l-2.315-2.315l-2.315,2.315l-0.994-0.994l2.813-2.813
						c0.275-0.275,0.72-0.275,0.994,0l2.813,2.813L43.878,26.31z"/>
				</g>
				<g>
					<linearGradient id="SVGID_4_" gradientUnits="userSpaceOnUse" x1="5.5" y1="30.0313" x2="49.8061" y2="30.0313">
						<stop  offset="0" style="stop-color:#3F53A0"/>
						<stop  offset="1" style="stop-color:#3FB7E2"/>
					</linearGradient>
					<path fill="url(#SVGID_4_)" d="M36.641,37.063H23.281v-1.406h13.359c2.326,0,4.219-1.892,4.219-4.219V23h1.406v8.438
						C42.266,34.539,39.742,37.063,36.641,37.063z"/>
				</g>
			</g>
			<g>
				<g>
					<linearGradient id="SVGID_5_" gradientUnits="userSpaceOnUse" x1="5.5" y1="19.4844" x2="49.8061" y2="19.4844">
						<stop  offset="0" style="stop-color:#3F53A0"/>
						<stop  offset="1" style="stop-color:#3FB7E2"/>
					</linearGradient>
					<path fill="url(#SVGID_5_)" d="M27.5,24.406c-2.405,0-4.219-2.267-4.219-5.273c0-2.128,0.48-4.57,4.219-4.57
						s4.219,2.442,4.219,4.57C31.719,22.139,29.905,24.406,27.5,24.406z M27.5,15.969c-2.129,0-2.813,0.769-2.813,3.164
						c0,1.875,0.986,3.867,2.813,3.867s2.813-1.992,2.813-3.867C30.313,16.737,29.629,15.969,27.5,15.969z"/>
				</g>
				<g>
					<linearGradient id="SVGID_6_" gradientUnits="userSpaceOnUse" x1="5.5" y1="26.2104" x2="49.8061" y2="26.2104">
						<stop  offset="0" style="stop-color:#3F53A0"/>
						<stop  offset="1" style="stop-color:#3FB7E2"/>
					</linearGradient>
					<path fill="url(#SVGID_6_)" d="M33.125,30.031h-11.25c-1.143,0-2.109-1.288-2.109-2.813v-1.814l5.276-3.015l0.698,1.221
						l-4.568,2.61v0.998c0,0.86,0.494,1.406,0.703,1.406h11.25c0.209,0,0.703-0.546,0.703-1.406V26.22l-4.568-2.61l0.698-1.221
						l5.276,3.015v1.814C35.234,28.743,34.268,30.031,33.125,30.031z"/>
				</g>
			</g>
			<g>
				<g>
					<linearGradient id="SVGID_7_" gradientUnits="userSpaceOnUse" x1="5.5" y1="34.9531" x2="49.8061" y2="34.9531">
						<stop  offset="0" style="stop-color:#3F53A0"/>
						<stop  offset="1" style="stop-color:#3FB7E2"/>
					</linearGradient>
					<path fill="url(#SVGID_7_)" d="M12.734,39.875c-2.405,0-4.219-2.267-4.219-5.273c0-2.128,0.48-4.57,4.219-4.57
						s4.219,2.442,4.219,4.57C16.953,37.608,15.139,39.875,12.734,39.875z M12.734,31.438c-2.129,0-2.813,0.769-2.813,3.164
						c0,1.875,0.986,3.867,2.813,3.867s2.813-1.992,2.813-3.867C15.547,32.206,14.863,31.438,12.734,31.438z"/>
				</g>
				<g>
					<linearGradient id="SVGID_8_" gradientUnits="userSpaceOnUse" x1="5.5" y1="41.6792" x2="49.8061" y2="41.6792">
						<stop  offset="0" style="stop-color:#3F53A0"/>
						<stop  offset="1" style="stop-color:#3FB7E2"/>
					</linearGradient>
					<path fill="url(#SVGID_8_)" d="M18.359,45.5H7.109C5.966,45.5,5,44.212,5,42.688v-1.814l5.276-3.015l0.698,1.221l-4.568,2.61
						v0.998c0,0.86,0.494,1.406,0.703,1.406h11.25c0.209,0,0.703-0.546,0.703-1.406v-0.998l-4.568-2.61l0.698-1.221l5.276,3.015
						v1.814C20.469,44.212,19.503,45.5,18.359,45.5z"/>
				</g>
			</g>
			<g>
				<g>
					<linearGradient id="SVGID_9_" gradientUnits="userSpaceOnUse" x1="5.5" y1="5.4219" x2="49.8061" y2="5.4219">
						<stop  offset="0" style="stop-color:#3F53A0"/>
						<stop  offset="1" style="stop-color:#3FB7E2"/>
					</linearGradient>
					<path fill="url(#SVGID_9_)" d="M42.266,10.344c-2.405,0-4.219-2.267-4.219-5.273c0-2.128,0.48-4.57,4.219-4.57
						s4.219,2.442,4.219,4.57C46.484,8.077,44.671,10.344,42.266,10.344z M42.266,1.906c-2.129,0-2.813,0.769-2.813,3.164
						c0,1.875,0.986,3.867,2.813,3.867s2.813-1.992,2.813-3.867C45.078,2.675,44.395,1.906,42.266,1.906z"/>
				</g>
				<g>
					<linearGradient id="SVGID_10_" gradientUnits="userSpaceOnUse" x1="5.5" y1="12.1479" x2="49.8061" y2="12.1479">
						<stop  offset="0" style="stop-color:#3F53A0"/>
						<stop  offset="1" style="stop-color:#3FB7E2"/>
					</linearGradient>
					<path fill="url(#SVGID_10_)" d="M47.891,15.969h-11.25c-1.143,0-2.109-1.288-2.109-2.813v-1.814l5.276-3.015l0.698,1.221
						l-4.568,2.61v0.998c0,0.86,0.494,1.406,0.703,1.406h11.25c0.209,0,0.703-0.546,0.703-1.406v-0.998l-4.568-2.61l0.698-1.221
						L50,11.342v1.814C50,14.681,49.034,15.969,47.891,15.969z"/>
				</g>
			</g>
		</g>
	</g>
</g>
</svg>
