<?xml version="1.0" encoding="utf-8"?>
<!-- Generator: Adobe Illustrator 17.0.0, SVG Export Plug-In . SVG Version: 6.00 Build 0)  -->
<!DOCTYPE svg PUBLIC "-//W3C//DTD SVG 1.1//EN" "http://www.w3.org/Graphics/SVG/1.1/DTD/svg11.dtd">
<svg version="1.1" id="Layer_1" xmlns="http://www.w3.org/2000/svg" xmlns:xlink="http://www.w3.org/1999/xlink" x="0px" y="0px"
	 width="55px" height="46px" viewBox="0 0 55 46" enable-background="new 0 0 55 46" xml:space="preserve">
<g>
	<g>
		<g>
			<g>
				<linearGradient id="SVGID_1_" gradientUnits="userSpaceOnUse" x1="9.75" y1="24.4073" x2="45.3902" y2="24.4073">
					<stop  offset="0" style="stop-color:#3F53A0"/>
					<stop  offset="1" style="stop-color:#3FB7E2"/>
				</linearGradient>
				<polygon fill="url(#SVGID_1_)" points="45.091,45.517 12.723,45.517 12.723,41.999 14.131,41.999 14.131,44.11 43.684,44.11 
					43.684,4.705 38.758,4.705 38.758,3.298 45.091,3.298 				"/>
			</g>
			<g>
				<linearGradient id="SVGID_2_" gradientUnits="userSpaceOnUse" x1="9.75" y1="12.4452" x2="45.3902" y2="12.4452">
					<stop  offset="0" style="stop-color:#3F53A0"/>
					<stop  offset="1" style="stop-color:#3FB7E2"/>
				</linearGradient>
				<rect x="14.131" y="11.742" fill="url(#SVGID_2_)" width="23.924" height="1.407"/>
			</g>
			<g>
				<linearGradient id="SVGID_3_" gradientUnits="userSpaceOnUse" x1="9.75" y1="15.2598" x2="45.3902" y2="15.2598">
					<stop  offset="0" style="stop-color:#3F53A0"/>
					<stop  offset="1" style="stop-color:#3FB7E2"/>
				</linearGradient>
				<rect x="14.131" y="14.556" fill="url(#SVGID_3_)" width="23.924" height="1.407"/>
			</g>
			<g>
				<linearGradient id="SVGID_4_" gradientUnits="userSpaceOnUse" x1="9.75" y1="18.0744" x2="45.3902" y2="18.0744">
					<stop  offset="0" style="stop-color:#3F53A0"/>
					<stop  offset="1" style="stop-color:#3FB7E2"/>
				</linearGradient>
				<rect x="14.131" y="17.371" fill="url(#SVGID_4_)" width="23.924" height="1.407"/>
			</g>
			<g>
				<linearGradient id="SVGID_5_" gradientUnits="userSpaceOnUse" x1="9.75" y1="20.889" x2="45.3902" y2="20.889">
					<stop  offset="0" style="stop-color:#3F53A0"/>
					<stop  offset="1" style="stop-color:#3FB7E2"/>
				</linearGradient>
				<rect x="14.131" y="20.185" fill="url(#SVGID_5_)" width="9.851" height="1.407"/>
			</g>
			<g>
				<linearGradient id="SVGID_6_" gradientUnits="userSpaceOnUse" x1="9.75" y1="33.203" x2="45.3902" y2="33.203">
					<stop  offset="0" style="stop-color:#3F53A0"/>
					<stop  offset="1" style="stop-color:#3FB7E2"/>
				</linearGradient>
				<rect x="14.131" y="27.926" fill="url(#SVGID_6_)" width="1.407" height="10.555"/>
			</g>
			<g>
				<linearGradient id="SVGID_7_" gradientUnits="userSpaceOnUse" x1="9.75" y1="34.9621" x2="45.3902" y2="34.9621">
					<stop  offset="0" style="stop-color:#3F53A0"/>
					<stop  offset="1" style="stop-color:#3FB7E2"/>
				</linearGradient>
				<rect x="16.945" y="31.444" fill="url(#SVGID_7_)" width="1.407" height="7.037"/>
			</g>
			<g>
				<linearGradient id="SVGID_8_" gradientUnits="userSpaceOnUse" x1="9.75" y1="31.7957" x2="45.3902" y2="31.7957">
					<stop  offset="0" style="stop-color:#3F53A0"/>
					<stop  offset="1" style="stop-color:#3FB7E2"/>
				</linearGradient>
				<rect x="19.76" y="25.111" fill="url(#SVGID_8_)" width="1.407" height="13.369"/>
			</g>
			<g>
				<linearGradient id="SVGID_9_" gradientUnits="userSpaceOnUse" x1="9.75" y1="33.9066" x2="45.3902" y2="33.9066">
					<stop  offset="0" style="stop-color:#3F53A0"/>
					<stop  offset="1" style="stop-color:#3FB7E2"/>
				</linearGradient>
				<rect x="22.574" y="29.333" fill="url(#SVGID_9_)" width="1.407" height="9.147"/>
			</g>
			<g>
				<linearGradient id="SVGID_10_" gradientUnits="userSpaceOnUse" x1="9.75" y1="32.4993" x2="45.3902" y2="32.4993">
					<stop  offset="0" style="stop-color:#3F53A0"/>
					<stop  offset="1" style="stop-color:#3FB7E2"/>
				</linearGradient>
				<rect x="25.389" y="26.518" fill="url(#SVGID_10_)" width="1.407" height="11.962"/>
			</g>
			<g>
				<linearGradient id="SVGID_11_" gradientUnits="userSpaceOnUse" x1="9.75" y1="34.6103" x2="45.3902" y2="34.6103">
					<stop  offset="0" style="stop-color:#3F53A0"/>
					<stop  offset="1" style="stop-color:#3FB7E2"/>
				</linearGradient>
				<rect x="28.204" y="30.74" fill="url(#SVGID_11_)" width="1.407" height="7.74"/>
			</g>
			<g>
				<linearGradient id="SVGID_12_" gradientUnits="userSpaceOnUse" x1="9.75" y1="33.9066" x2="45.3902" y2="33.9066">
					<stop  offset="0" style="stop-color:#3F53A0"/>
					<stop  offset="1" style="stop-color:#3FB7E2"/>
				</linearGradient>
				<rect x="31.018" y="29.333" fill="url(#SVGID_12_)" width="1.407" height="9.147"/>
			</g>
			<g>
				<linearGradient id="SVGID_13_" gradientUnits="userSpaceOnUse" x1="9.75" y1="31.4438" x2="45.3902" y2="31.4438">
					<stop  offset="0" style="stop-color:#3F53A0"/>
					<stop  offset="1" style="stop-color:#3FB7E2"/>
				</linearGradient>
				<rect x="33.833" y="24.407" fill="url(#SVGID_13_)" width="1.407" height="14.073"/>
			</g>
			<g>
				<linearGradient id="SVGID_14_" gradientUnits="userSpaceOnUse" x1="9.75" y1="32.4993" x2="45.3902" y2="32.4993">
					<stop  offset="0" style="stop-color:#3F53A0"/>
					<stop  offset="1" style="stop-color:#3FB7E2"/>
				</linearGradient>
				<rect x="36.647" y="26.518" fill="url(#SVGID_14_)" width="1.407" height="11.962"/>
			</g>
			<g>
				<g>
					<linearGradient id="SVGID_15_" gradientUnits="userSpaceOnUse" x1="9.75" y1="4.705" x2="45.3902" y2="4.705">
						<stop  offset="0" style="stop-color:#3F53A0"/>
						<stop  offset="1" style="stop-color:#3FB7E2"/>
					</linearGradient>
					<polygon fill="url(#SVGID_15_)" points="40.869,7.52 35.24,7.52 35.24,1.89 36.647,1.89 36.647,6.112 40.869,6.112 					"/>
				</g>
				<g>
					<linearGradient id="SVGID_16_" gradientUnits="userSpaceOnUse" x1="9.75" y1="21.5927" x2="45.3902" y2="21.5927">
						<stop  offset="0" style="stop-color:#3F53A0"/>
						<stop  offset="1" style="stop-color:#3FB7E2"/>
					</linearGradient>
					<path fill="url(#SVGID_16_)" d="M42.277,42.702H9.909V0.483h26.327l6.042,6.042V42.702z M11.316,41.295h29.553V7.107
						L35.652,1.89H11.316V41.295z"/>
				</g>
			</g>
			<g>
				<linearGradient id="SVGID_17_" gradientUnits="userSpaceOnUse" x1="9.75" y1="7.5196" x2="45.3902" y2="7.5196">
					<stop  offset="0" style="stop-color:#3F53A0"/>
					<stop  offset="1" style="stop-color:#3FB7E2"/>
				</linearGradient>
				<path fill="url(#SVGID_17_)" d="M31.722,10.334H14.834c-0.389,0-0.704-0.315-0.704-0.704V5.409c0-0.389,0.315-0.704,0.704-0.704
					h16.888c0.389,0,0.704,0.315,0.704,0.704v4.222C32.426,10.019,32.111,10.334,31.722,10.334z M15.538,8.927h15.48V6.112h-15.48
					V8.927z"/>
			</g>
		</g>
	</g>
</g>
</svg>
