<?xml version="1.0" encoding="utf-8"?>
<!-- Generator: Adobe Illustrator 17.0.0, SVG Export Plug-In . SVG Version: 6.00 Build 0)  -->
<!DOCTYPE svg PUBLIC "-//W3C//DTD SVG 1.1//EN" "http://www.w3.org/Graphics/SVG/1.1/DTD/svg11.dtd">
<svg version="1.1" id="Layer_1" xmlns="http://www.w3.org/2000/svg" xmlns:xlink="http://www.w3.org/1999/xlink" x="0px" y="0px"
	 width="55px" height="46px" viewBox="0 0 55 46" enable-background="new 0 0 55 46" xml:space="preserve">
<g>
	<g>
		<g>
			<g>
				<polygon fill="#FFFFFF" points="45.091,45.517 12.723,45.517 12.723,41.999 14.131,41.999 14.131,44.11 43.684,44.11 
					43.684,4.705 38.758,4.705 38.758,3.298 45.091,3.298 				"/>
			</g>
			<g>
				<rect x="14.131" y="11.742" fill="#FFFFFF" width="23.924" height="1.407"/>
			</g>
			<g>
				<rect x="14.131" y="14.556" fill="#FFFFFF" width="23.924" height="1.407"/>
			</g>
			<g>
				<rect x="14.131" y="17.371" fill="#FFFFFF" width="23.924" height="1.407"/>
			</g>
			<g>
				<rect x="14.131" y="20.185" fill="#FFFFFF" width="9.851" height="1.407"/>
			</g>
			<g>
				<rect x="14.131" y="27.926" fill="#FFFFFF" width="1.407" height="10.555"/>
			</g>
			<g>
				<rect x="16.945" y="31.444" fill="#FFFFFF" width="1.407" height="7.037"/>
			</g>
			<g>
				<rect x="19.76" y="25.111" fill="#FFFFFF" width="1.407" height="13.369"/>
			</g>
			<g>
				<rect x="22.574" y="29.333" fill="#FFFFFF" width="1.407" height="9.147"/>
			</g>
			<g>
				<rect x="25.389" y="26.518" fill="#FFFFFF" width="1.407" height="11.962"/>
			</g>
			<g>
				<rect x="28.204" y="30.74" fill="#FFFFFF" width="1.407" height="7.74"/>
			</g>
			<g>
				<rect x="31.018" y="29.333" fill="#FFFFFF" width="1.407" height="9.147"/>
			</g>
			<g>
				<rect x="33.833" y="24.407" fill="#FFFFFF" width="1.407" height="14.073"/>
			</g>
			<g>
				<rect x="36.647" y="26.518" fill="#FFFFFF" width="1.407" height="11.962"/>
			</g>
			<g>
				<g>
					<polygon fill="#FFFFFF" points="40.869,7.52 35.24,7.52 35.24,1.89 36.647,1.89 36.647,6.112 40.869,6.112 					"/>
				</g>
				<g>
					<path fill="#FFFFFF" d="M42.277,42.702H9.909V0.483h26.327l6.042,6.042V42.702z M11.316,41.295h29.553V7.107L35.652,1.89
						H11.316V41.295z"/>
				</g>
			</g>
			<g>
				<path fill="#FFFFFF" d="M31.722,10.334H14.834c-0.389,0-0.704-0.315-0.704-0.704V5.409c0-0.389,0.315-0.704,0.704-0.704h16.888
					c0.389,0,0.704,0.315,0.704,0.704v4.222C32.426,10.019,32.111,10.334,31.722,10.334z M15.538,8.927h15.48V6.112h-15.48V8.927z"
					/>
			</g>
		</g>
	</g>
</g>
</svg>
