<?xml version="1.0" encoding="utf-8"?>
<!-- Generator: Adobe Illustrator 17.0.0, SVG Export Plug-In . SVG Version: 6.00 Build 0)  -->
<!DOCTYPE svg PUBLIC "-//W3C//DTD SVG 1.1//EN" "http://www.w3.org/Graphics/SVG/1.1/DTD/svg11.dtd">
<svg version="1.1" id="Layer_1" xmlns="http://www.w3.org/2000/svg" xmlns:xlink="http://www.w3.org/1999/xlink" x="0px" y="0px"
	 width="55px" height="46px" viewBox="0 0 55 46" enable-background="new 0 0 55 46" xml:space="preserve">
<g>
	<g>
		<g>
			<g>
				<path fill="#FFFFFF" d="M28.795,45.5l-1.213-2.779c-0.054,0.001-0.108,0.001-0.163,0L26.205,45.5l-0.499-0.039
					c-1.422-0.112-2.831-0.36-4.189-0.735l-0.483-0.133l-0.191-3.033c-0.051-0.019-0.102-0.037-0.152-0.056l-2.094,2.2l-0.456-0.209
					c-1.288-0.591-2.526-1.309-3.68-2.133l-0.408-0.291l0.856-2.916c-0.041-0.034-0.082-0.068-0.122-0.102l-2.719,1.352
					l-0.357-0.353c-1.006-0.993-1.925-2.09-2.733-3.261l-0.285-0.413l1.799-2.445c-0.028-0.047-0.055-0.095-0.083-0.142
					l-3.017,0.338l-0.215-0.453c-0.61-1.283-1.1-2.629-1.455-3.999L5.595,28.19l2.529-1.684c-0.009-0.054-0.019-0.107-0.028-0.162
					l-2.947-0.715l-0.047-0.501C5.035,24.4,5,23.684,5,23s0.035-1.4,0.103-2.128l0.047-0.501l2.947-0.715
					c0.009-0.054,0.019-0.108,0.028-0.162L5.595,17.81l0.126-0.486c0.355-1.37,0.844-2.715,1.455-3.999l0.215-0.453l3.017,0.338
					c0.027-0.047,0.055-0.095,0.083-0.142l-1.799-2.445l0.285-0.413c0.808-1.171,1.727-2.269,2.733-3.261l0.357-0.353l2.719,1.352
					c0.041-0.034,0.081-0.069,0.122-0.102l-0.856-2.916l0.408-0.291c1.154-0.824,2.392-1.542,3.68-2.133l0.456-0.209l2.094,2.2
					c0.051-0.019,0.102-0.037,0.152-0.055l0.191-3.034l0.483-0.133c1.357-0.375,2.767-0.622,4.189-0.735L26.205,0.5l1.213,2.779
					c0.054,0,0.108,0,0.163,0L28.795,0.5l0.499,0.039c1.422,0.112,2.831,0.359,4.189,0.735l0.483,0.133l0.191,3.034
					c0.051,0.018,0.102,0.037,0.152,0.055l2.094-2.2l0.456,0.209c1.288,0.591,2.526,1.309,3.68,2.133l0.408,0.291l-0.856,2.916
					c0.041,0.034,0.082,0.068,0.122,0.102l2.719-1.352l0.357,0.353c1.006,0.993,1.925,2.09,2.733,3.261l0.285,0.413l-1.799,2.445
					c0.028,0.047,0.055,0.095,0.083,0.142l3.017-0.338l0.215,0.453c0.61,1.284,1.1,2.629,1.455,3.999l0.126,0.486l-2.529,1.684
					c0.009,0.054,0.019,0.108,0.028,0.162l2.947,0.715l0.047,0.501C49.965,21.6,50,22.316,50,23s-0.035,1.4-0.103,2.128
					l-0.047,0.501l-2.947,0.715c-0.009,0.054-0.019,0.108-0.028,0.162l2.529,1.684l-0.126,0.486
					c-0.355,1.37-0.844,2.716-1.455,3.999l-0.215,0.453l-3.017-0.338c-0.027,0.047-0.055,0.095-0.083,0.142l1.799,2.445
					l-0.285,0.413c-0.808,1.171-1.727,2.268-2.733,3.261l-0.357,0.353l-2.719-1.352c-0.041,0.034-0.081,0.069-0.122,0.102
					l0.856,2.916l-0.408,0.291c-1.154,0.824-2.392,1.542-3.68,2.133l-0.456,0.209l-2.094-2.2c-0.051,0.019-0.102,0.037-0.152,0.056
					l-0.191,3.033l-0.483,0.133c-1.357,0.375-2.767,0.622-4.189,0.735L28.795,45.5z M28.489,41.284l1.19,2.727
					c0.997-0.102,1.984-0.276,2.946-0.516l0.187-2.967l0.449-0.15c0.329-0.11,0.654-0.228,0.974-0.356l0.441-0.175L36.725,42
					c0.896-0.437,1.764-0.94,2.589-1.5l-0.837-2.853l0.371-0.295c0.27-0.215,0.535-0.436,0.792-0.665l0.355-0.316l2.66,1.323
					c0.691-0.715,1.336-1.484,1.923-2.295l-1.76-2.392l0.249-0.405c0.181-0.294,0.356-0.592,0.521-0.898l0.226-0.418l2.951,0.33
					c0.407-0.912,0.75-1.854,1.023-2.811l-2.472-1.647l0.094-0.465c0.069-0.338,0.126-0.679,0.176-1.023l0.068-0.471l2.885-0.7
					c0.037-0.512,0.055-1.006,0.055-1.498s-0.018-0.986-0.055-1.498l-2.885-0.7l-0.068-0.471c-0.05-0.345-0.107-0.686-0.176-1.024
					l-0.094-0.465l2.472-1.646c-0.273-0.957-0.616-1.899-1.023-2.812l-2.951,0.331l-0.226-0.418
					c-0.165-0.306-0.34-0.604-0.521-0.898l-0.249-0.405l1.76-2.392c-0.587-0.81-1.231-1.579-1.923-2.295l-2.66,1.322L39.64,9.313
					c-0.257-0.229-0.522-0.451-0.792-0.665l-0.371-0.295L39.314,5.5C38.488,4.94,37.621,4.437,36.725,4l-2.048,2.152l-0.441-0.175
					c-0.32-0.127-0.645-0.245-0.974-0.355l-0.449-0.15l-0.187-2.966c-0.962-0.241-1.95-0.413-2.946-0.516l-1.19,2.727l-0.612-0.019
					c-0.251-0.009-0.503-0.009-0.754,0l-0.612,0.019l-1.19-2.727c-0.997,0.102-1.984,0.275-2.946,0.516l-0.187,2.966l-0.449,0.15
					c-0.329,0.11-0.654,0.228-0.974,0.355l-0.441,0.175L18.275,4c-0.896,0.437-1.764,0.94-2.589,1.5l0.837,2.853l-0.371,0.295
					c-0.27,0.215-0.535,0.436-0.792,0.665l-0.355,0.316l-2.66-1.322c-0.691,0.716-1.336,1.485-1.923,2.295l1.76,2.392l-0.249,0.405
					c-0.181,0.295-0.356,0.593-0.521,0.898l-0.226,0.418l-2.951-0.331c-0.407,0.912-0.75,1.854-1.023,2.812l2.472,1.646
					l-0.094,0.465c-0.069,0.338-0.126,0.679-0.176,1.024l-0.068,0.471l-2.885,0.7C6.424,22.014,6.406,22.508,6.406,23
					s0.018,0.986,0.055,1.498l2.885,0.7l0.068,0.471c0.05,0.345,0.107,0.686,0.176,1.023l0.094,0.465l-2.472,1.647
					c0.273,0.957,0.616,1.899,1.023,2.811l2.951-0.33l0.226,0.418c0.165,0.306,0.34,0.604,0.521,0.898l0.249,0.405l-1.76,2.392
					c0.587,0.81,1.231,1.579,1.923,2.295l2.66-1.323l0.355,0.316c0.257,0.229,0.522,0.451,0.792,0.665l0.371,0.295L15.686,40.5
					c0.825,0.56,1.693,1.063,2.589,1.5l2.048-2.152l0.441,0.175c0.32,0.127,0.645,0.246,0.974,0.356l0.449,0.15l0.187,2.967
					c0.962,0.24,1.95,0.413,2.946,0.516l1.19-2.727l0.612,0.019c0.251,0.008,0.503,0.008,0.754,0L28.489,41.284z"/>
			</g>
			<g>
				<path fill="#FFFFFF" d="M13.438,23h-1.406c0-8.544,6.939-15.495,15.469-15.495v1.409C19.746,8.913,13.438,15.233,13.438,23z"/>
			</g>
			<g>
				<path fill="#FFFFFF" d="M27.5,38.495v-1.409c7.754,0,14.063-6.319,14.063-14.087h1.406C42.969,31.544,36.03,38.495,27.5,38.495z
					"/>
			</g>
			<g>
				<path fill="#FFFFFF" d="M29.153,34.152l-1.37-2.003c-0.192,0.009-0.381,0.009-0.568,0l-1.37,2.003l-0.451-0.086
					c-0.915-0.173-1.818-0.47-2.685-0.88l-0.415-0.197l0.067-2.426c-0.158-0.107-0.311-0.217-0.457-0.33l-2.28,0.812L19.31,30.71
					c-0.661-0.704-1.222-1.471-1.667-2.281l-0.222-0.404l1.48-1.927c-0.062-0.175-0.119-0.354-0.172-0.541l-2.325-0.686
					l-0.057-0.457c-0.067-0.531-0.098-0.98-0.098-1.414s0.031-0.883,0.098-1.414l0.057-0.457l2.325-0.686
					c0.053-0.186,0.11-0.366,0.172-0.541l-1.48-1.927l0.222-0.404c0.445-0.809,1.006-1.576,1.667-2.28l0.315-0.335l2.28,0.812
					c0.147-0.113,0.299-0.223,0.457-0.33l-0.067-2.426l0.415-0.196c0.867-0.41,1.771-0.706,2.685-0.88l0.451-0.086l1.37,2.003
					c0.191-0.01,0.38-0.01,0.568,0l1.37-2.003l0.451,0.086c0.915,0.174,1.818,0.469,2.685,0.88l0.415,0.196l-0.067,2.426
					c0.158,0.107,0.311,0.217,0.457,0.33l2.28-0.812l0.315,0.335c0.661,0.704,1.222,1.472,1.668,2.28l0.222,0.404l-1.481,1.927
					c0.062,0.175,0.119,0.354,0.172,0.541l2.325,0.686l0.057,0.457c0.067,0.531,0.098,0.98,0.098,1.414s-0.031,0.883-0.098,1.414
					l-0.057,0.457l-2.325,0.686c-0.053,0.187-0.11,0.367-0.172,0.541l1.481,1.927l-0.222,0.404
					c-0.445,0.809-1.006,1.576-1.668,2.281l-0.315,0.335l-2.28-0.812c-0.147,0.113-0.299,0.223-0.457,0.33l0.067,2.426l-0.415,0.197
					c-0.867,0.41-1.771,0.706-2.685,0.88L29.153,34.152z M28.464,30.689l0.254,0.332l1.069,1.565c0.502-0.121,1-0.285,1.487-0.488
					l-0.064-2.297l0.345-0.213c0.347-0.215,0.666-0.446,0.949-0.687l0.309-0.263l2.157,0.769c0.346-0.402,0.656-0.825,0.926-1.262
					l-1.399-1.821l0.154-0.376c0.141-0.342,0.257-0.708,0.357-1.119l0.095-0.395l2.203-0.65c0.025-0.281,0.037-0.537,0.037-0.783
					s-0.012-0.503-0.037-0.783l-2.203-0.65l-0.095-0.395c-0.1-0.411-0.216-0.777-0.357-1.119l-0.154-0.376l1.399-1.821
					c-0.27-0.437-0.579-0.859-0.926-1.262l-2.157,0.769l-0.309-0.263c-0.283-0.241-0.603-0.473-0.949-0.687l-0.345-0.213
					l0.064-2.297c-0.487-0.204-0.984-0.368-1.487-0.489l-1.298,1.899l-0.404-0.03c-0.421-0.032-0.774-0.03-1.145-0.002l-0.404,0.03
					l-0.254-0.333l-1.069-1.564c-0.502,0.121-1,0.284-1.487,0.489l0.064,2.297l-0.345,0.213c-0.347,0.214-0.666,0.445-0.949,0.687
					l-0.309,0.263l-2.157-0.769c-0.346,0.402-0.656,0.824-0.925,1.262l1.398,1.82l-0.154,0.376c-0.141,0.345-0.258,0.711-0.356,1.12
					l-0.095,0.395l-2.203,0.651c-0.025,0.281-0.037,0.537-0.037,0.783s0.012,0.503,0.037,0.783l2.203,0.651l0.095,0.395
					c0.099,0.409,0.215,0.775,0.356,1.12l0.154,0.376l-1.398,1.82c0.27,0.437,0.579,0.86,0.925,1.262l2.157-0.769l0.309,0.263
					c0.283,0.241,0.603,0.473,0.949,0.687l0.345,0.213l-0.064,2.297c0.487,0.204,0.984,0.367,1.487,0.488l1.298-1.899l0.404,0.03
					c0.421,0.032,0.774,0.03,1.145,0.002L28.464,30.689z"/>
			</g>
			<g>
				<path fill="#FFFFFF" d="M27.5,27.93c-2.714,0-4.922-2.212-4.922-4.93s2.208-4.93,4.922-4.93s4.922,2.212,4.922,4.93
					S30.214,27.93,27.5,27.93z M27.5,19.478c-1.938,0-3.516,1.58-3.516,3.522s1.577,3.522,3.516,3.522s3.516-1.58,3.516-3.522
					S29.438,19.478,27.5,19.478z"/>
			</g>
		</g>
	</g>
</g>
</svg>
