<?xml version="1.0" encoding="utf-8"?>
<!-- Generator: Adobe Illustrator 17.0.0, SVG Export Plug-In . SVG Version: 6.00 Build 0)  -->
<!DOCTYPE svg PUBLIC "-//W3C//DTD SVG 1.1//EN" "http://www.w3.org/Graphics/SVG/1.1/DTD/svg11.dtd">
<svg version="1.1" id="Layer_1" xmlns="http://www.w3.org/2000/svg" xmlns:xlink="http://www.w3.org/1999/xlink" x="0px" y="0px"
	 width="55px" height="46px" viewBox="0 0 55 46" enable-background="new 0 0 55 46" xml:space="preserve">
<g>
	<g>
		<g>
			<g>
				<g>
					<linearGradient id="SVGID_1_" gradientUnits="userSpaceOnUse" x1="3.375" y1="5.75" x2="51.724" y2="5.75">
						<stop  offset="0" style="stop-color:#3F53A0"/>
						<stop  offset="1" style="stop-color:#3FB7E2"/>
					</linearGradient>
					<path fill="url(#SVGID_1_)" d="M27.5,11c-2.555,0-4.482-2.418-4.482-5.625c0-2.27,0.509-4.875,4.482-4.875
						s4.482,2.605,4.482,4.875C31.982,8.582,30.055,11,27.5,11z M27.5,2c-2.262,0-2.988,0.82-2.988,3.375
						c0,2,1.047,4.125,2.988,4.125s2.988-2.125,2.988-4.125C30.488,2.82,29.762,2,27.5,2z"/>
				</g>
				<g>
					<linearGradient id="SVGID_2_" gradientUnits="userSpaceOnUse" x1="3.375" y1="12.9244" x2="51.724" y2="12.9244">
						<stop  offset="0" style="stop-color:#3F53A0"/>
						<stop  offset="1" style="stop-color:#3FB7E2"/>
					</linearGradient>
					<path fill="url(#SVGID_2_)" d="M33.475,17H21.525c-1.214,0-2.241-1.374-2.241-3v-1.935l5.605-3.216l0.741,1.302l-4.852,2.784
						V14c0,0.918,0.525,1.5,0.747,1.5h11.951c0.222,0,0.747-0.582,0.747-1.5v-1.065l-4.852-2.784l0.741-1.302l5.605,3.216V14
						C35.716,15.626,34.69,17,33.475,17z"/>
				</g>
			</g>
			<g>
				<g>
					<linearGradient id="SVGID_3_" gradientUnits="userSpaceOnUse" x1="3.375" y1="34.25" x2="51.724" y2="34.25">
						<stop  offset="0" style="stop-color:#3F53A0"/>
						<stop  offset="1" style="stop-color:#3FB7E2"/>
					</linearGradient>
					<path fill="url(#SVGID_3_)" d="M11.815,39.5c-2.555,0-4.482-2.418-4.482-5.625c0-2.27,0.509-4.875,4.482-4.875
						s4.482,2.605,4.482,4.875C16.296,37.082,14.37,39.5,11.815,39.5z M11.815,30.5c-2.262,0-2.988,0.82-2.988,3.375
						c0,2,1.047,4.125,2.988,4.125s2.988-2.125,2.988-4.125C14.802,31.32,14.076,30.5,11.815,30.5z"/>
				</g>
				<g>
					<linearGradient id="SVGID_4_" gradientUnits="userSpaceOnUse" x1="3.375" y1="41.4244" x2="51.724" y2="41.4244">
						<stop  offset="0" style="stop-color:#3F53A0"/>
						<stop  offset="1" style="stop-color:#3FB7E2"/>
					</linearGradient>
					<path fill="url(#SVGID_4_)" d="M17.79,45.5H5.839c-1.214,0-2.241-1.374-2.241-3v-1.935l5.605-3.216l0.741,1.302l-4.852,2.784
						V42.5c0,0.918,0.525,1.5,0.747,1.5H17.79c0.222,0,0.747-0.582,0.747-1.5v-1.065l-4.852-2.784l0.741-1.302l5.605,3.216V42.5
						C20.031,44.126,19.004,45.5,17.79,45.5z"/>
				</g>
			</g>
			<g>
				<g>
					<linearGradient id="SVGID_5_" gradientUnits="userSpaceOnUse" x1="3.375" y1="34.25" x2="51.724" y2="34.25">
						<stop  offset="0" style="stop-color:#3F53A0"/>
						<stop  offset="1" style="stop-color:#3FB7E2"/>
					</linearGradient>
					<path fill="url(#SVGID_5_)" d="M43.185,39.5c-2.555,0-4.482-2.418-4.482-5.625c0-2.27,0.509-4.875,4.482-4.875
						s4.482,2.605,4.482,4.875C47.667,37.082,45.741,39.5,43.185,39.5z M43.185,30.5c-2.262,0-2.988,0.82-2.988,3.375
						c0,2,1.047,4.125,2.988,4.125c1.94,0,2.988-2.125,2.988-4.125C46.173,31.32,45.447,30.5,43.185,30.5z"/>
				</g>
				<g>
					<linearGradient id="SVGID_6_" gradientUnits="userSpaceOnUse" x1="3.375" y1="41.4244" x2="51.724" y2="41.4244">
						<stop  offset="0" style="stop-color:#3F53A0"/>
						<stop  offset="1" style="stop-color:#3FB7E2"/>
					</linearGradient>
					<path fill="url(#SVGID_6_)" d="M49.161,45.5H37.21c-1.214,0-2.241-1.374-2.241-3v-1.935l5.605-3.216l0.741,1.302l-4.852,2.784
						V42.5c0,0.918,0.525,1.5,0.747,1.5h11.951c0.222,0,0.747-0.582,0.747-1.5v-1.065l-4.852-2.784l0.741-1.302l5.605,3.216V42.5
						C51.402,44.126,50.375,45.5,49.161,45.5z"/>
				</g>
			</g>
			<g>
				<linearGradient id="SVGID_7_" gradientUnits="userSpaceOnUse" x1="3.375" y1="23.75" x2="51.724" y2="23.75">
					<stop  offset="0" style="stop-color:#3F53A0"/>
					<stop  offset="1" style="stop-color:#3FB7E2"/>
				</linearGradient>
				<rect x="26.753" y="20" fill="url(#SVGID_7_)" width="1.494" height="7.5"/>
			</g>
			<g>
				<linearGradient id="SVGID_8_" gradientUnits="userSpaceOnUse" x1="3.375" y1="30.5" x2="51.724" y2="30.5">
					<stop  offset="0" style="stop-color:#3F53A0"/>
					<stop  offset="1" style="stop-color:#3FB7E2"/>
				</linearGradient>
				<polygon fill="url(#SVGID_8_)" points="20.498,34.086 19.564,32.914 27.033,26.914 27.967,28.086 				"/>
			</g>
			<g>
				<linearGradient id="SVGID_9_" gradientUnits="userSpaceOnUse" x1="3.375" y1="30.5" x2="51.724" y2="30.5">
					<stop  offset="0" style="stop-color:#3F53A0"/>
					<stop  offset="1" style="stop-color:#3FB7E2"/>
				</linearGradient>
				<polygon fill="url(#SVGID_9_)" points="34.502,34.086 27.033,28.086 27.967,26.914 35.436,32.914 				"/>
			</g>
		</g>
	</g>
</g>
</svg>
