<?xml version="1.0" encoding="utf-8"?>
<!-- Generator: Adobe Illustrator 16.0.0, SVG Export Plug-In . SVG Version: 6.00 Build 0)  -->
<!DOCTYPE svg PUBLIC "-//W3C//DTD SVG 1.1//EN" "http://www.w3.org/Graphics/SVG/1.1/DTD/svg11.dtd">
<svg version="1.1" id="Layer_1" xmlns="http://www.w3.org/2000/svg" xmlns:xlink="http://www.w3.org/1999/xlink" x="0px" y="0px"
	 width="55px" height="46px" viewBox="0 0 55 46" enable-background="new 0 0 55 46" xml:space="preserve">
<g>
	<g>
		<g>
			<g>
				<g>
					<path fill="#FFFFFF" d="M27.5,11c-2.555,0-4.482-2.418-4.482-5.625c0-2.27,0.509-4.875,4.482-4.875
						c3.973,0,4.482,2.605,4.482,4.875C31.982,8.582,30.055,11,27.5,11z M27.5,2c-2.262,0-2.988,0.82-2.988,3.375
						c0,2,1.047,4.125,2.988,4.125c1.941,0,2.988-2.125,2.988-4.125C30.488,2.82,29.762,2,27.5,2z"/>
				</g>
				<g>
					<path fill="#FFFFFF" d="M33.475,17h-11.95c-1.214,0-2.241-1.374-2.241-3v-1.935l5.605-3.216l0.741,1.302l-4.852,2.784V14
						c0,0.918,0.525,1.5,0.747,1.5h11.952c0.222,0,0.746-0.582,0.746-1.5v-1.065l-4.852-2.784l0.74-1.302l5.605,3.216V14
						C35.716,15.626,34.689,17,33.475,17z"/>
				</g>
			</g>
			<g>
				<g>
					<path fill="#FFFFFF" d="M11.815,39.5c-2.555,0-4.482-2.418-4.482-5.625c0-2.27,0.509-4.875,4.482-4.875
						s4.482,2.605,4.482,4.875C16.296,37.082,14.37,39.5,11.815,39.5z M11.815,30.5c-2.262,0-2.988,0.82-2.988,3.375
						c0,2,1.047,4.125,2.988,4.125s2.988-2.125,2.988-4.125C14.802,31.32,14.076,30.5,11.815,30.5z"/>
				</g>
				<g>
					<path fill="#FFFFFF" d="M17.79,45.5H5.839c-1.214,0-2.241-1.374-2.241-3v-1.936l5.605-3.215l0.741,1.301l-4.852,2.785V42.5
						c0,0.918,0.525,1.5,0.747,1.5H17.79c0.222,0,0.747-0.582,0.747-1.5v-1.064l-4.852-2.785l0.741-1.301l5.605,3.215V42.5
						C20.031,44.126,19.004,45.5,17.79,45.5z"/>
				</g>
			</g>
			<g>
				<g>
					<path fill="#FFFFFF" d="M43.186,39.5c-2.556,0-4.482-2.418-4.482-5.625c0-2.27,0.509-4.875,4.482-4.875
						c3.973,0,4.481,2.605,4.481,4.875C47.667,37.082,45.741,39.5,43.186,39.5z M43.186,30.5c-2.263,0-2.988,0.82-2.988,3.375
						c0,2,1.047,4.125,2.988,4.125c1.939,0,2.987-2.125,2.987-4.125C46.173,31.32,45.447,30.5,43.186,30.5z"/>
				</g>
				<g>
					<path fill="#FFFFFF" d="M49.161,45.5H37.21c-1.214,0-2.241-1.374-2.241-3v-1.936l5.605-3.215l0.74,1.301l-4.852,2.785V42.5
						c0,0.918,0.525,1.5,0.747,1.5h11.951c0.222,0,0.747-0.582,0.747-1.5v-1.064l-4.852-2.785l0.74-1.301l5.605,3.215V42.5
						C51.402,44.126,50.375,45.5,49.161,45.5z"/>
				</g>
			</g>
			<g>
				<rect x="26.753" y="20" fill="#FFFFFF" width="1.494" height="7.5"/>
			</g>
			<g>
				<polygon fill="#FFFFFF" points="20.498,34.086 19.564,32.914 27.033,26.914 27.967,28.086 				"/>
			</g>
			<g>
				<polygon fill="#FFFFFF" points="34.502,34.086 27.033,28.086 27.967,26.914 35.436,32.914 				"/>
			</g>
		</g>
	</g>
</g>
</svg>
