<?xml version="1.0" encoding="utf-8"?>
<!-- Generator: Adobe Illustrator 17.0.0, SVG Export Plug-In . SVG Version: 6.00 Build 0)  -->
<!DOCTYPE svg PUBLIC "-//W3C//DTD SVG 1.1//EN" "http://www.w3.org/Graphics/SVG/1.1/DTD/svg11.dtd">
<svg version="1.1" id="Layer_1" xmlns="http://www.w3.org/2000/svg" xmlns:xlink="http://www.w3.org/1999/xlink" x="0px" y="0px"
	 width="55px" height="46px" viewBox="0 0 55 46" enable-background="new 0 0 55 46" xml:space="preserve">
<g>
	<g>
		<g>
			<g>
				<path fill="#FFFFFF" d="M27.5,32.375c-5.17,0-9.375-4.205-9.375-9.375s4.205-9.375,9.375-9.375S36.875,17.83,36.875,23
					S32.67,32.375,27.5,32.375z M27.5,15.5c-4.135,0-7.5,3.365-7.5,7.5s3.365,7.5,7.5,7.5S35,27.135,35,23S31.635,15.5,27.5,15.5z"
					/>
			</g>
			<g>
				<path fill="#FFFFFF" d="M27.5,45.5C15.094,45.5,5,35.406,5,23S15.094,0.5,27.5,0.5S50,10.594,50,23S39.906,45.5,27.5,45.5z
					 M27.5,2.375C16.127,2.375,6.875,11.627,6.875,23S16.127,43.625,27.5,43.625S48.125,34.373,48.125,23S38.873,2.375,27.5,2.375z"
					/>
			</g>
			<g>
				
					<rect x="16.572" y="16.438" transform="matrix(0.7071 0.7071 -0.7071 0.7071 18.693 -10.3789)" fill="#FFFFFF" width="10.607" height="1.875"/>
			</g>
			<g>
				
					<rect x="33.594" y="8.677" transform="matrix(0.7071 0.7071 -0.7071 0.7071 21.4056 -19.7401)" fill="#FFFFFF" width="1.875" height="14.584"/>
			</g>
			<g>
				<path fill="#FFFFFF" d="M27.5,26.75c-2.068,0-3.75-1.682-3.75-3.75s1.682-3.75,3.75-3.75s3.75,1.682,3.75,3.75
					S29.568,26.75,27.5,26.75z M27.5,21.125c-1.034,0-1.875,0.841-1.875,1.875s0.841,1.875,1.875,1.875s1.875-0.841,1.875-1.875
					S28.534,21.125,27.5,21.125z"/>
			</g>
		</g>
		<g>
			<rect x="26.563" y="4.25" fill="#FFFFFF" width="1.875" height="1.875"/>
		</g>
		<g>
			<rect x="8.75" y="22.063" fill="#FFFFFF" width="1.875" height="1.875"/>
		</g>
		<g>
			<rect x="26.563" y="39.875" fill="#FFFFFF" width="1.875" height="1.875"/>
		</g>
		<g>
			<rect x="44.375" y="22.063" fill="#FFFFFF" width="1.875" height="1.875"/>
		</g>
	</g>
</g>
</svg>
