<?xml version="1.0" encoding="utf-8"?>
<!-- Generator: Adobe Illustrator 17.0.0, SVG Export Plug-In . SVG Version: 6.00 Build 0)  -->
<!DOCTYPE svg PUBLIC "-//W3C//DTD SVG 1.1//EN" "http://www.w3.org/Graphics/SVG/1.1/DTD/svg11.dtd">
<svg version="1.1" id="Layer_1" xmlns="http://www.w3.org/2000/svg" xmlns:xlink="http://www.w3.org/1999/xlink" x="0px" y="0px"
	 width="55px" height="46px" viewBox="0 0 55 46" enable-background="new 0 0 55 46" xml:space="preserve">
<g>
	<g>
		<g>
			<g>
				<linearGradient id="SVGID_1_" gradientUnits="userSpaceOnUse" x1="4.625" y1="23" x2="50.1162" y2="23">
					<stop  offset="0" style="stop-color:#3F53A0"/>
					<stop  offset="1" style="stop-color:#3FB7E2"/>
				</linearGradient>
				<path fill="url(#SVGID_1_)" d="M27.5,35.656c-6.979,0-12.656-5.678-12.656-12.656S20.521,10.344,27.5,10.344
					S40.156,16.021,40.156,23S34.479,35.656,27.5,35.656z M27.5,11.75c-6.203,0-11.25,5.047-11.25,11.25s5.047,11.25,11.25,11.25
					S38.75,29.203,38.75,23S33.703,11.75,27.5,11.75z"/>
			</g>
			<g>
				<linearGradient id="SVGID_2_" gradientUnits="userSpaceOnUse" x1="4.625" y1="23" x2="50.1162" y2="23">
					<stop  offset="0" style="stop-color:#3F53A0"/>
					<stop  offset="1" style="stop-color:#3FB7E2"/>
				</linearGradient>
				<path fill="url(#SVGID_2_)" d="M27.5,39.875c-9.305,0-16.875-7.57-16.875-16.875S18.195,6.125,27.5,6.125
					S44.375,13.695,44.375,23S36.805,39.875,27.5,39.875z M27.5,7.531c-8.53,0-15.469,6.939-15.469,15.469S18.97,38.469,27.5,38.469
					S42.969,31.53,42.969,23S36.03,7.531,27.5,7.531z"/>
			</g>
			<g>
				<linearGradient id="SVGID_3_" gradientUnits="userSpaceOnUse" x1="4.625" y1="23" x2="50.1162" y2="23">
					<stop  offset="0" style="stop-color:#3F53A0"/>
					<stop  offset="1" style="stop-color:#3FB7E2"/>
				</linearGradient>
				<path fill="url(#SVGID_3_)" d="M27.5,45.5C15.093,45.5,5,35.407,5,23S15.093,0.5,27.5,0.5S50,10.593,50,23
					S39.907,45.5,27.5,45.5z M27.5,1.906C15.869,1.906,6.406,11.369,6.406,23S15.869,44.094,27.5,44.094S48.594,34.631,48.594,23
					S39.131,1.906,27.5,1.906z"/>
			</g>
			<g>
				<linearGradient id="SVGID_4_" gradientUnits="userSpaceOnUse" x1="4.625" y1="3.6641" x2="50.1162" y2="3.6641">
					<stop  offset="0" style="stop-color:#3F53A0"/>
					<stop  offset="1" style="stop-color:#3FB7E2"/>
				</linearGradient>
				<rect x="26.797" y="0.5" fill="url(#SVGID_4_)" width="1.406" height="6.328"/>
			</g>
			<g>
				<linearGradient id="SVGID_5_" gradientUnits="userSpaceOnUse" x1="4.625" y1="36.3594" x2="50.1162" y2="36.3594">
					<stop  offset="0" style="stop-color:#3F53A0"/>
					<stop  offset="1" style="stop-color:#3FB7E2"/>
				</linearGradient>
				<polygon fill="url(#SVGID_5_)" points="12.528,38.966 11.534,37.972 15.753,33.753 16.747,34.747 				"/>
			</g>
			<g>
				<linearGradient id="SVGID_6_" gradientUnits="userSpaceOnUse" x1="4.625" y1="9.6406" x2="50.1162" y2="9.6406">
					<stop  offset="0" style="stop-color:#3F53A0"/>
					<stop  offset="1" style="stop-color:#3FB7E2"/>
				</linearGradient>
				<polygon fill="url(#SVGID_6_)" points="15.753,12.247 11.534,8.028 12.528,7.034 16.747,11.253 				"/>
			</g>
			<g>
				<linearGradient id="SVGID_7_" gradientUnits="userSpaceOnUse" x1="4.625" y1="11.75" x2="50.1162" y2="11.75">
					<stop  offset="0" style="stop-color:#3F53A0"/>
					<stop  offset="1" style="stop-color:#3FB7E2"/>
				</linearGradient>
				<rect x="11.328" y="11.047" fill="url(#SVGID_7_)" width="1.406" height="1.406"/>
			</g>
			<g>
				<linearGradient id="SVGID_8_" gradientUnits="userSpaceOnUse" x1="4.625" y1="14.5625" x2="50.1162" y2="14.5625">
					<stop  offset="0" style="stop-color:#3F53A0"/>
					<stop  offset="1" style="stop-color:#3FB7E2"/>
				</linearGradient>
				<rect x="9.922" y="13.859" fill="url(#SVGID_8_)" width="1.406" height="1.406"/>
			</g>
			<g>
				<linearGradient id="SVGID_9_" gradientUnits="userSpaceOnUse" x1="4.625" y1="17.375" x2="50.1162" y2="17.375">
					<stop  offset="0" style="stop-color:#3F53A0"/>
					<stop  offset="1" style="stop-color:#3FB7E2"/>
				</linearGradient>
				<rect x="8.516" y="16.672" fill="url(#SVGID_9_)" width="1.406" height="1.406"/>
			</g>
			<g>
				<linearGradient id="SVGID_10_" gradientUnits="userSpaceOnUse" x1="4.625" y1="20.1875" x2="50.1162" y2="20.1875">
					<stop  offset="0" style="stop-color:#3F53A0"/>
					<stop  offset="1" style="stop-color:#3FB7E2"/>
				</linearGradient>
				<rect x="7.813" y="19.484" fill="url(#SVGID_10_)" width="1.406" height="1.406"/>
			</g>
			<g>
				<linearGradient id="SVGID_11_" gradientUnits="userSpaceOnUse" x1="4.625" y1="23" x2="50.1162" y2="23">
					<stop  offset="0" style="stop-color:#3F53A0"/>
					<stop  offset="1" style="stop-color:#3FB7E2"/>
				</linearGradient>
				<rect x="7.813" y="22.297" fill="url(#SVGID_11_)" width="1.406" height="1.406"/>
			</g>
			<g>
				<linearGradient id="SVGID_12_" gradientUnits="userSpaceOnUse" x1="4.625" y1="25.8125" x2="50.1162" y2="25.8125">
					<stop  offset="0" style="stop-color:#3F53A0"/>
					<stop  offset="1" style="stop-color:#3FB7E2"/>
				</linearGradient>
				<rect x="7.813" y="25.109" fill="url(#SVGID_12_)" width="1.406" height="1.406"/>
			</g>
			<g>
				<linearGradient id="SVGID_13_" gradientUnits="userSpaceOnUse" x1="4.625" y1="28.625" x2="50.1162" y2="28.625">
					<stop  offset="0" style="stop-color:#3F53A0"/>
					<stop  offset="1" style="stop-color:#3FB7E2"/>
				</linearGradient>
				<rect x="8.516" y="27.922" fill="url(#SVGID_13_)" width="1.406" height="1.406"/>
			</g>
			<g>
				<linearGradient id="SVGID_14_" gradientUnits="userSpaceOnUse" x1="4.625" y1="31.4375" x2="50.1162" y2="31.4375">
					<stop  offset="0" style="stop-color:#3F53A0"/>
					<stop  offset="1" style="stop-color:#3FB7E2"/>
				</linearGradient>
				<rect x="9.922" y="30.734" fill="url(#SVGID_14_)" width="1.406" height="1.406"/>
			</g>
			<g>
				<linearGradient id="SVGID_15_" gradientUnits="userSpaceOnUse" x1="4.625" y1="34.25" x2="50.1162" y2="34.25">
					<stop  offset="0" style="stop-color:#3F53A0"/>
					<stop  offset="1" style="stop-color:#3FB7E2"/>
				</linearGradient>
				<rect x="11.328" y="33.547" fill="url(#SVGID_15_)" width="1.406" height="1.406"/>
			</g>
			<g>
				<linearGradient id="SVGID_16_" gradientUnits="userSpaceOnUse" x1="4.625" y1="23" x2="50.1162" y2="23">
					<stop  offset="0" style="stop-color:#3F53A0"/>
					<stop  offset="1" style="stop-color:#3FB7E2"/>
				</linearGradient>
				<rect x="43.672" y="22.297" fill="url(#SVGID_16_)" width="5.625" height="1.406"/>
			</g>
			<g>
				<g>
					<linearGradient id="SVGID_17_" gradientUnits="userSpaceOnUse" x1="4.625" y1="29.6797" x2="50.1162" y2="29.6797">
						<stop  offset="0" style="stop-color:#3F53A0"/>
						<stop  offset="1" style="stop-color:#3FB7E2"/>
					</linearGradient>
					<rect x="26.797" y="28.625" fill="url(#SVGID_17_)" width="1.406" height="2.109"/>
				</g>
				<g>
					<linearGradient id="SVGID_18_" gradientUnits="userSpaceOnUse" x1="4.625" y1="16.3203" x2="50.1162" y2="16.3203">
						<stop  offset="0" style="stop-color:#3F53A0"/>
						<stop  offset="1" style="stop-color:#3FB7E2"/>
					</linearGradient>
					<rect x="26.797" y="15.266" fill="url(#SVGID_18_)" width="1.406" height="2.109"/>
				</g>
				<g>
					<linearGradient id="SVGID_19_" gradientUnits="userSpaceOnUse" x1="4.625" y1="23" x2="50.1162" y2="23">
						<stop  offset="0" style="stop-color:#3F53A0"/>
						<stop  offset="1" style="stop-color:#3FB7E2"/>
					</linearGradient>
					<path fill="url(#SVGID_19_)" d="M27.5,29.328c-1.938,0-3.516-1.577-3.516-3.516h1.406c0,1.163,0.946,2.109,2.109,2.109
						s2.109-0.946,2.109-2.109c0-0.745-1.431-1.736-2.397-2.171c-0.33-0.148-3.228-1.501-3.228-3.454
						c0-1.938,1.577-3.516,3.516-3.516s3.516,1.577,3.516,3.516h-1.406c0-1.163-0.946-2.109-2.109-2.109s-2.109,0.946-2.109,2.109
						c0,0.745,1.431,1.736,2.397,2.171c0.33,0.148,3.228,1.501,3.228,3.454C31.016,27.751,29.438,29.328,27.5,29.328z"/>
				</g>
			</g>
			<g>
				<linearGradient id="SVGID_20_" gradientUnits="userSpaceOnUse" x1="4.625" y1="23" x2="50.1162" y2="23">
					<stop  offset="0" style="stop-color:#3F53A0"/>
					<stop  offset="1" style="stop-color:#3FB7E2"/>
				</linearGradient>
				<rect x="19.766" y="22.297" fill="url(#SVGID_20_)" width="1.406" height="1.406"/>
			</g>
			<g>
				<linearGradient id="SVGID_21_" gradientUnits="userSpaceOnUse" x1="4.625" y1="23" x2="50.1162" y2="23">
					<stop  offset="0" style="stop-color:#3F53A0"/>
					<stop  offset="1" style="stop-color:#3FB7E2"/>
				</linearGradient>
				<rect x="33.828" y="22.297" fill="url(#SVGID_21_)" width="1.406" height="1.406"/>
			</g>
			<g>
				<linearGradient id="SVGID_22_" gradientUnits="userSpaceOnUse" x1="4.625" y1="36.3594" x2="50.1162" y2="36.3594">
					<stop  offset="0" style="stop-color:#3F53A0"/>
					<stop  offset="1" style="stop-color:#3FB7E2"/>
				</linearGradient>
				<polygon fill="url(#SVGID_22_)" points="42.472,38.966 38.253,34.747 39.247,33.753 43.466,37.972 				"/>
			</g>
		</g>
	</g>
</g>
</svg>
