<?xml version="1.0" encoding="utf-8"?>
<!-- Generator: Adobe Illustrator 17.0.0, SVG Export Plug-In . SVG Version: 6.00 Build 0)  -->
<!DOCTYPE svg PUBLIC "-//W3C//DTD SVG 1.1//EN" "http://www.w3.org/Graphics/SVG/1.1/DTD/svg11.dtd">
<svg version="1.1" id="Layer_1" xmlns="http://www.w3.org/2000/svg" xmlns:xlink="http://www.w3.org/1999/xlink" x="0px" y="0px"
	 width="55px" height="46px" viewBox="0 0 55 46" enable-background="new 0 0 55 46" xml:space="preserve">
<g>
	<g>
		<g>
			<g>
				<path fill="#FFFFFF" d="M27.5,35.656c-6.979,0-12.656-5.678-12.656-12.656S20.521,10.344,27.5,10.344S40.156,16.021,40.156,23
					S34.479,35.656,27.5,35.656z M27.5,11.75c-6.203,0-11.25,5.047-11.25,11.25s5.047,11.25,11.25,11.25S38.75,29.203,38.75,23
					S33.703,11.75,27.5,11.75z"/>
			</g>
			<g>
				<path fill="#FFFFFF" d="M27.5,39.875c-9.305,0-16.875-7.57-16.875-16.875S18.195,6.125,27.5,6.125S44.375,13.695,44.375,23
					S36.805,39.875,27.5,39.875z M27.5,7.531c-8.53,0-15.469,6.939-15.469,15.469S18.97,38.469,27.5,38.469S42.969,31.53,42.969,23
					S36.03,7.531,27.5,7.531z"/>
			</g>
			<g>
				<path fill="#FFFFFF" d="M27.5,45.5C15.093,45.5,5,35.407,5,23S15.093,0.5,27.5,0.5S50,10.593,50,23S39.907,45.5,27.5,45.5z
					 M27.5,1.906C15.869,1.906,6.406,11.369,6.406,23S15.869,44.094,27.5,44.094S48.594,34.631,48.594,23S39.131,1.906,27.5,1.906z"
					/>
			</g>
			<g>
				<rect x="26.797" y="0.5" fill="#FFFFFF" width="1.406" height="6.328"/>
			</g>
			<g>
				
					<rect x="13.438" y="33.376" transform="matrix(0.7071 0.7071 -0.7071 0.7071 29.8517 0.6505)" fill="#FFFFFF" width="1.406" height="5.966"/>
			</g>
			<g>
				
					<rect x="11.158" y="8.938" transform="matrix(0.7071 0.7071 -0.7071 0.7071 10.9586 -7.1753)" fill="#FFFFFF" width="5.966" height="1.406"/>
			</g>
			<g>
				<rect x="11.328" y="11.047" fill="#FFFFFF" width="1.406" height="1.406"/>
			</g>
			<g>
				<rect x="9.922" y="13.859" fill="#FFFFFF" width="1.406" height="1.406"/>
			</g>
			<g>
				<rect x="8.516" y="16.672" fill="#FFFFFF" width="1.406" height="1.406"/>
			</g>
			<g>
				<rect x="7.813" y="19.484" fill="#FFFFFF" width="1.406" height="1.406"/>
			</g>
			<g>
				<rect x="7.813" y="22.297" fill="#FFFFFF" width="1.406" height="1.406"/>
			</g>
			<g>
				<rect x="7.813" y="25.109" fill="#FFFFFF" width="1.406" height="1.406"/>
			</g>
			<g>
				<rect x="8.516" y="27.922" fill="#FFFFFF" width="1.406" height="1.406"/>
			</g>
			<g>
				<rect x="9.922" y="30.734" fill="#FFFFFF" width="1.406" height="1.406"/>
			</g>
			<g>
				<rect x="11.328" y="33.547" fill="#FFFFFF" width="1.406" height="1.406"/>
			</g>
			<g>
				<rect x="43.672" y="22.297" fill="#FFFFFF" width="5.625" height="1.406"/>
			</g>
			<g>
				<g>
					<rect x="26.797" y="28.625" fill="#FFFFFF" width="1.406" height="2.109"/>
				</g>
				<g>
					<rect x="26.797" y="15.266" fill="#FFFFFF" width="1.406" height="2.109"/>
				</g>
				<g>
					<path fill="#FFFFFF" d="M27.5,29.328c-1.938,0-3.516-1.577-3.516-3.516h1.406c0,1.163,0.946,2.109,2.109,2.109
						s2.109-0.946,2.109-2.109c0-0.745-1.431-1.736-2.397-2.171c-0.33-0.148-3.228-1.501-3.228-3.454
						c0-1.938,1.577-3.516,3.516-3.516s3.516,1.577,3.516,3.516h-1.406c0-1.163-0.946-2.109-2.109-2.109s-2.109,0.946-2.109,2.109
						c0,0.745,1.431,1.736,2.397,2.171c0.33,0.148,3.228,1.501,3.228,3.454C31.016,27.751,29.438,29.328,27.5,29.328z"/>
				</g>
			</g>
			<g>
				<rect x="19.766" y="22.297" fill="#FFFFFF" width="1.406" height="1.406"/>
			</g>
			<g>
				<rect x="33.828" y="22.297" fill="#FFFFFF" width="1.406" height="1.406"/>
			</g>
			<g>
				
					<rect x="37.876" y="35.656" transform="matrix(0.7071 0.7071 -0.7071 0.7071 37.6774 -18.2425)" fill="#FFFFFF" width="5.966" height="1.406"/>
			</g>
		</g>
	</g>
</g>
</svg>
