<?xml version="1.0" encoding="utf-8"?>
<!-- Generator: Adobe Illustrator 17.0.0, SVG Export Plug-In . SVG Version: 6.00 Build 0)  -->
<!DOCTYPE svg PUBLIC "-//W3C//DTD SVG 1.1//EN" "http://www.w3.org/Graphics/SVG/1.1/DTD/svg11.dtd">
<svg version="1.1" id="Layer_1" xmlns="http://www.w3.org/2000/svg" xmlns:xlink="http://www.w3.org/1999/xlink" x="0px" y="0px"
	 width="55px" height="46px" viewBox="0 0 55 46" enable-background="new 0 0 55 46" xml:space="preserve">
<g>
	<g>
		<g>
			<g>
				<linearGradient id="SVGID_1_" gradientUnits="userSpaceOnUse" x1="3.0833" y1="23.7758" x2="52.0473" y2="23.7758">
					<stop  offset="0" style="stop-color:#3F53A0"/>
					<stop  offset="1" style="stop-color:#3FB7E2"/>
				</linearGradient>
				<path fill="url(#SVGID_1_)" d="M27.5,45.499c-0.202,0.011-0.455-0.108-0.602-0.293L3.084,14.948
					c-0.199-0.253-0.222-0.605-0.057-0.882L9.941,2.428C10.08,2.195,10.33,2.052,10.6,2.052h21.51v1.552H11.035l-6.416,10.8
					l22.884,29.075l11.689-14.757l1.2,0.969L28.1,45.208C27.954,45.392,27.733,45.499,27.5,45.499z"/>
			</g>
			<g>
				<linearGradient id="SVGID_2_" gradientUnits="userSpaceOnUse" x1="3.0833" y1="12.7713" x2="52.0473" y2="12.7713">
					<stop  offset="0" style="stop-color:#3F53A0"/>
					<stop  offset="1" style="stop-color:#3FB7E2"/>
				</linearGradient>
				<path fill="url(#SVGID_2_)" d="M44.995,23.491l-1.19-0.983l6.572-8.112L43.965,3.603h-4.174V2.052H44.4
					c0.27,0,0.52,0.143,0.659,0.377l6.914,11.638c0.167,0.281,0.141,0.637-0.064,0.891L44.995,23.491z"/>
			</g>
			<g>
				<linearGradient id="SVGID_3_" gradientUnits="userSpaceOnUse" x1="3.0833" y1="14.4653" x2="52.0473" y2="14.4653">
					<stop  offset="0" style="stop-color:#3F53A0"/>
					<stop  offset="1" style="stop-color:#3FB7E2"/>
				</linearGradient>
				<rect x="31.341" y="13.689" fill="url(#SVGID_3_)" width="19.973" height="1.552"/>
			</g>
			<g>
				<linearGradient id="SVGID_4_" gradientUnits="userSpaceOnUse" x1="3.0833" y1="14.4653" x2="52.0473" y2="14.4653">
					<stop  offset="0" style="stop-color:#3F53A0"/>
					<stop  offset="1" style="stop-color:#3FB7E2"/>
				</linearGradient>
				<rect x="3.686" y="13.689" fill="url(#SVGID_4_)" width="19.973" height="1.552"/>
			</g>
			<g>
				<linearGradient id="SVGID_5_" gradientUnits="userSpaceOnUse" x1="3.0833" y1="8.6464" x2="52.0473" y2="8.6464">
					<stop  offset="0" style="stop-color:#3F53A0"/>
					<stop  offset="1" style="stop-color:#3FB7E2"/>
				</linearGradient>
				<polygon fill="url(#SVGID_5_)" points="36.57,14.924 35.331,14.007 43.781,2.369 45.02,3.286 				"/>
			</g>
			<g>
				<linearGradient id="SVGID_6_" gradientUnits="userSpaceOnUse" x1="3.0833" y1="8.6464" x2="52.0473" y2="8.6464">
					<stop  offset="0" style="stop-color:#3F53A0"/>
					<stop  offset="1" style="stop-color:#3FB7E2"/>
				</linearGradient>
				<polygon fill="url(#SVGID_6_)" points="35.331,14.924 26.88,3.286 28.12,2.369 36.57,14.007 				"/>
			</g>
			<g>
				<linearGradient id="SVGID_7_" gradientUnits="userSpaceOnUse" x1="3.0833" y1="8.6464" x2="52.0473" y2="8.6464">
					<stop  offset="0" style="stop-color:#3F53A0"/>
					<stop  offset="1" style="stop-color:#3FB7E2"/>
				</linearGradient>
				<polygon fill="url(#SVGID_7_)" points="19.67,14.924 18.43,14.007 26.88,2.369 28.12,3.286 				"/>
			</g>
			<g>
				<linearGradient id="SVGID_8_" gradientUnits="userSpaceOnUse" x1="3.0833" y1="8.6464" x2="52.0473" y2="8.6464">
					<stop  offset="0" style="stop-color:#3F53A0"/>
					<stop  offset="1" style="stop-color:#3FB7E2"/>
				</linearGradient>
				<polygon fill="url(#SVGID_8_)" points="18.43,14.924 9.98,3.286 11.219,2.369 19.67,14.007 				"/>
			</g>
			<g>
				<linearGradient id="SVGID_9_" gradientUnits="userSpaceOnUse" x1="3.0833" y1="29.5943" x2="52.0473" y2="29.5943">
					<stop  offset="0" style="stop-color:#3F53A0"/>
					<stop  offset="1" style="stop-color:#3FB7E2"/>
				</linearGradient>
				<polygon fill="url(#SVGID_9_)" points="26.76,44.934 18.31,14.676 19.79,14.255 28.24,44.513 				"/>
			</g>
			<g>
				<linearGradient id="SVGID_10_" gradientUnits="userSpaceOnUse" x1="3.0833" y1="29.5943" x2="52.0473" y2="29.5943">
					<stop  offset="0" style="stop-color:#3F53A0"/>
					<stop  offset="1" style="stop-color:#3FB7E2"/>
				</linearGradient>
				<polygon fill="url(#SVGID_10_)" points="28.24,44.934 26.76,44.513 35.211,14.255 36.69,14.676 				"/>
			</g>
		</g>
		<g>
			<linearGradient id="SVGID_11_" gradientUnits="userSpaceOnUse" x1="3.0833" y1="2.8275" x2="52.0473" y2="2.8275">
				<stop  offset="0" style="stop-color:#3F53A0"/>
				<stop  offset="1" style="stop-color:#3FB7E2"/>
			</linearGradient>
			<rect x="35.182" y="0.5" fill="url(#SVGID_11_)" width="1.536" height="4.655"/>
		</g>
		<g>
			<linearGradient id="SVGID_12_" gradientUnits="userSpaceOnUse" x1="3.0833" y1="2.8275" x2="52.0473" y2="2.8275">
				<stop  offset="0" style="stop-color:#3F53A0"/>
				<stop  offset="1" style="stop-color:#3FB7E2"/>
			</linearGradient>
			<rect x="33.646" y="2.052" fill="url(#SVGID_12_)" width="4.609" height="1.552"/>
		</g>
		<g>
			<linearGradient id="SVGID_13_" gradientUnits="userSpaceOnUse" x1="3.0833" y1="14.4653" x2="52.0473" y2="14.4653">
				<stop  offset="0" style="stop-color:#3F53A0"/>
				<stop  offset="1" style="stop-color:#3FB7E2"/>
			</linearGradient>
			<rect x="26.732" y="12.138" fill="url(#SVGID_13_)" width="1.536" height="4.655"/>
		</g>
		<g>
			<linearGradient id="SVGID_14_" gradientUnits="userSpaceOnUse" x1="3.0833" y1="14.4653" x2="52.0473" y2="14.4653">
				<stop  offset="0" style="stop-color:#3F53A0"/>
				<stop  offset="1" style="stop-color:#3FB7E2"/>
			</linearGradient>
			<rect x="25.196" y="13.689" fill="url(#SVGID_14_)" width="4.609" height="1.552"/>
		</g>
		<g>
			<linearGradient id="SVGID_15_" gradientUnits="userSpaceOnUse" x1="3.0833" y1="33.0857" x2="52.0473" y2="33.0857">
				<stop  offset="0" style="stop-color:#3F53A0"/>
				<stop  offset="1" style="stop-color:#3FB7E2"/>
			</linearGradient>
			<rect x="10.6" y="30.758" fill="url(#SVGID_15_)" width="1.536" height="4.655"/>
		</g>
		<g>
			<linearGradient id="SVGID_16_" gradientUnits="userSpaceOnUse" x1="3.0833" y1="33.0857" x2="52.0473" y2="33.0857">
				<stop  offset="0" style="stop-color:#3F53A0"/>
				<stop  offset="1" style="stop-color:#3FB7E2"/>
			</linearGradient>
			<rect x="9.063" y="32.31" fill="url(#SVGID_16_)" width="4.609" height="1.552"/>
		</g>
		<g>
			<linearGradient id="SVGID_17_" gradientUnits="userSpaceOnUse" x1="3.0833" y1="26.103" x2="52.0473" y2="26.103">
				<stop  offset="0" style="stop-color:#3F53A0"/>
				<stop  offset="1" style="stop-color:#3FB7E2"/>
			</linearGradient>
			<rect x="41.328" y="23.775" fill="url(#SVGID_17_)" width="1.536" height="4.655"/>
		</g>
		<g>
			<linearGradient id="SVGID_18_" gradientUnits="userSpaceOnUse" x1="3.0833" y1="26.103" x2="52.0473" y2="26.103">
				<stop  offset="0" style="stop-color:#3F53A0"/>
				<stop  offset="1" style="stop-color:#3FB7E2"/>
			</linearGradient>
			<rect x="39.791" y="25.327" fill="url(#SVGID_18_)" width="4.609" height="1.552"/>
		</g>
	</g>
</g>
</svg>
