<?xml version="1.0" encoding="utf-8"?>
<!-- Generator: Adobe Illustrator 17.0.0, SVG Export Plug-In . SVG Version: 6.00 Build 0)  -->
<!DOCTYPE svg PUBLIC "-//W3C//DTD SVG 1.1//EN" "http://www.w3.org/Graphics/SVG/1.1/DTD/svg11.dtd">
<svg version="1.1" id="Layer_1" xmlns="http://www.w3.org/2000/svg" xmlns:xlink="http://www.w3.org/1999/xlink" x="0px" y="0px"
	 width="55px" height="46px" viewBox="0 0 55 46" enable-background="new 0 0 55 46" xml:space="preserve">
<g>
	<g>
		<g>
			<g>
				<path fill="#FFFFFF" d="M27.5,45.499c-0.202,0.011-0.455-0.108-0.602-0.293L3.084,14.948c-0.199-0.253-0.222-0.605-0.057-0.882
					L9.941,2.428C10.08,2.195,10.33,2.052,10.6,2.052h21.51v1.552H11.035l-6.416,10.8l22.884,29.075l11.689-14.757l1.2,0.969
					L28.1,45.208C27.954,45.392,27.733,45.499,27.5,45.499z"/>
			</g>
			<g>
				<path fill="#FFFFFF" d="M44.995,23.491l-1.19-0.983l6.572-8.112L43.965,3.603h-4.174V2.052H44.4c0.27,0,0.52,0.143,0.659,0.377
					l6.914,11.638c0.167,0.281,0.141,0.637-0.064,0.891L44.995,23.491z"/>
			</g>
			<g>
				<rect x="31.341" y="13.689" fill="#FFFFFF" width="19.973" height="1.552"/>
			</g>
			<g>
				<rect x="3.686" y="13.689" fill="#FFFFFF" width="19.973" height="1.552"/>
			</g>
			<g>
				<polygon fill="#FFFFFF" points="36.57,14.924 35.331,14.007 43.781,2.369 45.02,3.286 				"/>
			</g>
			<g>
				<polygon fill="#FFFFFF" points="35.331,14.924 26.88,3.286 28.12,2.369 36.57,14.007 				"/>
			</g>
			<g>
				<polygon fill="#FFFFFF" points="19.67,14.924 18.43,14.007 26.88,2.369 28.12,3.286 				"/>
			</g>
			<g>
				<polygon fill="#FFFFFF" points="18.43,14.924 9.98,3.286 11.219,2.369 19.67,14.007 				"/>
			</g>
			<g>
				<polygon fill="#FFFFFF" points="26.76,44.934 18.31,14.676 19.79,14.255 28.24,44.513 				"/>
			</g>
			<g>
				<polygon fill="#FFFFFF" points="28.24,44.934 26.76,44.513 35.211,14.255 36.69,14.676 				"/>
			</g>
		</g>
		<g>
			<rect x="35.182" y="0.5" fill="#FFFFFF" width="1.536" height="4.655"/>
		</g>
		<g>
			<rect x="33.646" y="2.052" fill="#FFFFFF" width="4.609" height="1.552"/>
		</g>
		<g>
			<rect x="26.732" y="12.138" fill="#FFFFFF" width="1.536" height="4.655"/>
		</g>
		<g>
			<rect x="25.196" y="13.689" fill="#FFFFFF" width="4.609" height="1.552"/>
		</g>
		<g>
			<rect x="10.6" y="30.758" fill="#FFFFFF" width="1.536" height="4.655"/>
		</g>
		<g>
			<rect x="9.063" y="32.31" fill="#FFFFFF" width="4.609" height="1.552"/>
		</g>
		<g>
			<rect x="41.328" y="23.775" fill="#FFFFFF" width="1.536" height="4.655"/>
		</g>
		<g>
			<rect x="39.791" y="25.327" fill="#FFFFFF" width="4.609" height="1.552"/>
		</g>
	</g>
</g>
</svg>
