<?xml version="1.0" encoding="utf-8"?>
<!-- Generator: Adobe Illustrator 19.0.0, SVG Export Plug-In . SVG Version: 6.00 Build 0)  -->
<svg version="1.1" id="Layer_1" xmlns="http://www.w3.org/2000/svg" xmlns:xlink="http://www.w3.org/1999/xlink" x="0px" y="0px"
	 viewBox="0 0 120 70" style="enable-background:new 0 0 120 70;" xml:space="preserve">
<style type="text/css">
	.st0{fill:#FFFFFF;}
</style>
<g>
	<g>
		<polygon class="st0" points="35.1,38.1 35.1,12 61.2,38.1 57.5,38.1 38.2,19.1 38.1,38.1 		"/>
		<polygon class="st0" points="68.7,21.9 70.6,23.7 82.5,12 82.5,35.5 84.9,38.1 84.9,5.3 		"/>
		<polygon class="st0" points="39.7,6.2 39.7,2.1 81.1,43.3 77.3,43.3 		"/>
	</g>
</g>
<g>
	<g>
		<path class="st0" d="M10.7,58.9V67H9v-4.2l-2,2.5H6.5l-2-2.5V67H2.9v-8.1h0.5l3.3,4.3l3.3-4.3H10.7z"/>
		<path class="st0" d="M19.6,68.4h-1.3V57.6h1.3V68.4z"/>
		<path class="st0" d="M35,58.9V67h-1.6v-4.2l-2,2.5h-0.5l-2-2.5V67h-1.6v-8.1h0.5l3.3,4.3l3.3-4.3H35z"/>
		<path class="st0" d="M46.9,66h-3.2l-0.4,1h-1.7l3.5-8.1h0.5l3.5,8.1h-1.7L46.9,66z M45.3,62l-1,2.7h2.1L45.3,62z"/>
		<path class="st0" d="M60.4,67l-2.1-2.8h-1.2V67h-1.6v-7.9h3c0.8,0,1.5,0.2,2.1,0.7s0.8,1.1,0.8,1.9c0,0.5-0.1,1-0.4,1.3
			c-0.2,0.4-0.6,0.7-1,0.9l2.2,3.1H60.4z M57.2,62.8h1.4c0.4,0,0.7-0.1,0.9-0.3s0.3-0.5,0.3-0.8c0-0.3-0.1-0.6-0.3-0.8
			s-0.5-0.3-0.9-0.3h-1.4V62.8z"/>
		<path class="st0" d="M73.7,67l-3.4-4.1V67h-1.6v-7.9h1.6v3.7l3-3.7h1.9l-3,3.7l3.4,4.2H73.7z"/>
		<path class="st0" d="M87.4,60.5h-3.7v1.6h2.7v1.4h-2.7v2h3.9V67h-5.5v-7.9h5.3V60.5z"/>
		<path class="st0" d="M100.3,60.5h-2.5V67h-1.6v-6.5h-2.5v-1.5h6.7V60.5z"/>
		<path class="st0" d="M110.9,59.3c0.4,0.3,0.8,0.6,1,1.1l-1.1,0.9c-0.4-0.6-0.9-0.9-1.5-0.9c-0.3,0-0.5,0.1-0.7,0.2
			c-0.2,0.1-0.3,0.3-0.3,0.6c0,0.2,0.1,0.4,0.2,0.5c0.1,0.1,0.4,0.3,0.7,0.4l0.9,0.4c0.7,0.3,1.2,0.6,1.5,1c0.3,0.4,0.5,0.8,0.5,1.3
			c0,0.7-0.3,1.3-0.8,1.7s-1.2,0.6-2,0.6c-0.7,0-1.3-0.2-1.8-0.5c-0.5-0.3-0.9-0.7-1.3-1.3l1.1-0.8c0.6,0.8,1.2,1.2,1.9,1.2
			c0.4,0,0.6-0.1,0.8-0.2c0.2-0.2,0.3-0.4,0.3-0.6c0-0.2,0-0.3-0.1-0.4c-0.1-0.1-0.2-0.2-0.3-0.3c-0.1-0.1-0.3-0.2-0.6-0.3l-0.9-0.4
			c-0.6-0.3-1.1-0.6-1.4-1c-0.3-0.4-0.5-0.8-0.5-1.3c0-0.7,0.2-1.2,0.7-1.6c0.5-0.4,1.1-0.6,1.9-0.6
			C109.9,58.9,110.4,59.1,110.9,59.3z"/>
	</g>
</g>
</svg>
